<?xml version="1.0" encoding="utf-8" standalone="no"?>
<!DOCTYPE svg PUBLIC "-//W3C//DTD SVG 1.1//EN"
  "http://www.w3.org/Graphics/SVG/1.1/DTD/svg11.dtd">
<svg xmlns:xlink="http://www.w3.org/1999/xlink" width="295.588844pt" height="289.005562pt" viewBox="0 0 295.588844 289.005562" xmlns="http://www.w3.org/2000/svg" version="1.1">
 <metadata>
  <rdf:RDF xmlns:dc="http://purl.org/dc/elements/1.1/" xmlns:cc="http://creativecommons.org/ns#" xmlns:rdf="http://www.w3.org/1999/02/22-rdf-syntax-ns#">
   <cc:Work>
    <dc:type rdf:resource="http://purl.org/dc/dcmitype/StillImage"/>
    <dc:date>2026-06-07T17:27:02.360637</dc:date>
    <dc:format>image/svg+xml</dc:format>
    <dc:creator>
     <cc:Agent>
      <dc:title>Matplotlib v3.10.8, https://matplotlib.org/</dc:title>
     </cc:Agent>
    </dc:creator>
   </cc:Work>
  </rdf:RDF>
 </metadata>
 <defs>
  <style type="text/css">*{stroke-linejoin: round; stroke-linecap: butt}</style>
 </defs>
 <g id="figure_1">
  <g id="patch_1">
   <path d="M 0 289.005562 
L 295.588844 289.005562 
L 295.588844 0 
L 0 0 
z
" style="fill: #ffffff"/>
  </g>
  <g id="axes_1">
   <g id="patch_2">
    <path d="M 33.364844 262.224 
L 288.388844 262.224 
L 288.388844 7.2 
L 33.364844 7.2 
z
" style="fill: #ffffff"/>
   </g>
   <g id="patch_3">
    <path d="M 160.876844 134.712 
Q 188.914067 98.82599 215.436964 64.878231 
" clip-path="url(#p9cca4ab433)" style="fill: none; stroke: #1f6feb; stroke-width: 2.2; stroke-linecap: round"/>
    <path d="M 208.167363 68.335527 
L 215.436964 64.878231 
L 213.84104 72.768289 
z
" clip-path="url(#p9cca4ab433)" style="fill: #1f6feb; stroke: #1f6feb; stroke-width: 2.2; stroke-linecap: round"/>
   </g>
   <g id="patch_4">
    <path d="M 183.646844 134.712 
C 183.646844 131.25306 182.858684 127.839164 181.342384 124.730289 
C 179.826085 121.621414 177.621138 118.898531 174.895456 116.768995 
" clip-path="url(#p9cca4ab433)" style="fill: none; stroke: #333333; stroke-width: 1.5; stroke-linejoin: miter"/>
   </g>
   <g id="matplotlib.axis_1">
    <g id="xtick_1">
     <g id="line2d_1">
      <defs>
       <path id="m2d50cb8f06" d="M 0 0 
L 0 3.5 
" style="stroke: #000000; stroke-width: 0.8"/>
      </defs>
      <g>
       <use xlink:href="#m2d50cb8f06" x="69.796844" y="262.224" style="stroke: #000000; stroke-width: 0.8"/>
      </g>
     </g>
     <g id="text_1">
      <!-- −1 -->
      <g transform="translate(60.214422 279.101969) scale(0.13 -0.13)">
       <defs>
        <path id="DejaVuSans-2212" d="M 678 2272 
L 4684 2272 
L 4684 1741 
L 678 1741 
L 678 2272 
z
" transform="scale(0.015625)"/>
        <path id="DejaVuSans-31" d="M 794 531 
L 1825 531 
L 1825 4091 
L 703 3866 
L 703 4441 
L 1819 4666 
L 2450 4666 
L 2450 531 
L 3481 531 
L 3481 0 
L 794 0 
L 794 531 
z
" transform="scale(0.015625)"/>
       </defs>
       <use xlink:href="#DejaVuSans-2212"/>
       <use xlink:href="#DejaVuSans-31" transform="translate(83.789062 0)"/>
      </g>
     </g>
    </g>
    <g id="xtick_2">
     <g id="line2d_2">
      <g>
       <use xlink:href="#m2d50cb8f06" x="251.956844" y="262.224" style="stroke: #000000; stroke-width: 0.8"/>
      </g>
     </g>
     <g id="text_2">
      <!-- 1 -->
      <g transform="translate(247.821219 279.101969) scale(0.13 -0.13)">
       <use xlink:href="#DejaVuSans-31"/>
      </g>
     </g>
    </g>
   </g>
   <g id="matplotlib.axis_2">
    <g id="ytick_1">
     <g id="line2d_3">
      <defs>
       <path id="m74e8e7187e" d="M 0 0 
L -3.5 0 
" style="stroke: #000000; stroke-width: 0.8"/>
      </defs>
      <g>
       <use xlink:href="#m74e8e7187e" x="33.364844" y="225.792" style="stroke: #000000; stroke-width: 0.8"/>
      </g>
     </g>
     <g id="text_3">
      <!-- −1 -->
      <g transform="translate(7.2 230.730984) scale(0.13 -0.13)">
       <use xlink:href="#DejaVuSans-2212"/>
       <use xlink:href="#DejaVuSans-31" transform="translate(83.789062 0)"/>
      </g>
     </g>
    </g>
    <g id="ytick_2">
     <g id="line2d_4">
      <g>
       <use xlink:href="#m74e8e7187e" x="33.364844" y="43.632" style="stroke: #000000; stroke-width: 0.8"/>
      </g>
     </g>
     <g id="text_4">
      <!-- 1 -->
      <g transform="translate(18.093594 48.570984) scale(0.13 -0.13)">
       <use xlink:href="#DejaVuSans-31"/>
      </g>
     </g>
    </g>
   </g>
   <g id="line2d_5">
    <path d="M 33.364844 134.712 
L 288.388844 134.712 
" clip-path="url(#p9cca4ab433)" style="fill: none; stroke: #333333; stroke-linecap: square"/>
   </g>
   <g id="line2d_6">
    <path d="M 160.876844 262.224 
L 160.876844 7.2 
" clip-path="url(#p9cca4ab433)" style="fill: none; stroke: #333333; stroke-linecap: square"/>
   </g>
   <g id="line2d_7">
    <path d="M 251.956844 134.712 
L 251.876416 130.885217 
L 251.635274 127.065192 
L 251.233845 123.258673 
L 250.672837 119.472381 
L 249.953241 115.713004 
L 249.076328 111.98718 
L 248.043646 108.301491 
L 246.85702 104.662445 
L 245.518544 101.076469 
L 244.030584 97.549897 
L 242.395767 94.088957 
L 240.616979 90.699761 
L 238.697363 87.388294 
L 236.640309 84.160405 
L 234.44945 81.021795 
L 232.128654 77.978007 
L 229.682021 75.034417 
L 227.113872 72.196222 
L 224.428743 69.468437 
L 221.631374 66.855877 
L 218.726708 64.363158 
L 215.719873 61.994681 
L 212.616181 59.754629 
L 209.421112 57.64696 
L 206.140309 55.675394 
L 202.779567 53.843414 
L 199.344821 52.154256 
L 195.842137 50.610902 
L 192.277701 49.216079 
L 188.657808 47.972249 
L 184.988852 46.88161 
L 181.277311 45.946087 
L 177.529741 45.167333 
L 173.752761 44.546723 
L 169.953041 44.085354 
L 166.137291 43.784039 
L 162.312251 43.643312 
L 158.484675 43.66342 
L 154.661325 43.844329 
L 150.848951 44.185718 
L 147.054288 44.686985 
L 143.284037 45.347244 
L 139.544856 46.16533 
L 135.84335 47.139798 
L 132.186055 48.268926 
L 128.579431 49.550721 
L 125.029846 50.982918 
L 121.543571 52.562989 
L 118.126763 54.288142 
L 114.785454 56.155331 
L 111.525548 58.161259 
L 108.3528 60.302382 
L 105.272815 62.57492 
L 102.291031 64.974858 
L 99.412716 67.497959 
L 96.642951 70.139765 
L 93.98663 72.895613 
L 91.448443 75.760634 
L 89.032873 78.729768 
L 86.744186 81.797772 
L 84.586425 84.959228 
L 82.563399 88.208551 
L 80.678682 91.540004 
L 78.935602 94.947703 
L 77.337238 98.425629 
L 75.886413 101.96764 
L 74.585689 105.567481 
L 73.437363 109.218793 
L 72.443463 112.915129 
L 71.605745 116.649961 
L 70.925687 120.416691 
L 70.404492 124.208668 
L 70.043079 128.019196 
L 69.842087 131.841543 
L 69.801871 135.66896 
L 69.922502 139.494687 
L 70.203766 143.311967 
L 70.645168 147.114058 
L 71.245927 150.894247 
L 72.004982 154.645856 
L 72.920994 158.36226 
L 73.992343 162.036896 
L 75.217139 165.663273 
L 76.593217 169.234988 
L 78.118148 172.745732 
L 79.789239 176.189304 
L 81.603538 179.559624 
L 83.557841 182.850739 
L 85.648696 186.056836 
L 87.872412 189.172254 
L 90.225059 192.19149 
L 92.702485 195.109212 
L 95.300312 197.920266 
L 98.013954 200.619689 
L 100.838618 203.202713 
L 103.769314 205.664776 
L 106.800868 208.00153 
L 109.927925 210.208848 
L 113.144962 212.282832 
L 116.446299 214.219818 
L 119.826104 216.016386 
L 123.278408 217.669363 
L 126.797114 219.175829 
L 130.376009 220.533125 
L 134.00877 221.738852 
L 137.688984 222.790883 
L 141.410149 223.687357 
L 145.165694 224.426693 
L 148.948986 225.007585 
L 152.753345 225.429006 
L 156.57205 225.690212 
L 160.398357 225.790743 
L 164.22551 225.73042 
L 168.046749 225.509351 
L 171.855325 225.127924 
L 175.644512 224.586815 
L 179.407617 223.886979 
L 183.137996 223.029651 
L 186.82906 222.016346 
L 190.474289 220.848854 
L 194.067247 219.529236 
L 197.601588 218.059823 
L 201.071069 216.44321 
L 204.469563 214.682252 
L 207.791069 212.780059 
L 211.029719 210.739991 
L 214.179796 208.565651 
L 217.235734 206.260878 
L 220.192137 203.829743 
L 223.043784 201.27654 
L 225.785638 198.605777 
L 228.412858 195.822173 
L 230.920802 192.930642 
L 233.305043 189.936291 
L 235.561369 186.84441 
L 237.685794 183.660458 
L 239.674569 180.390058 
L 241.524179 177.038987 
L 243.231358 173.613162 
L 244.793092 170.118634 
L 246.206622 166.561575 
L 247.469451 162.948266 
L 248.57935 159.28509 
L 249.534359 155.578515 
L 250.33279 151.835088 
L 250.973233 148.061421 
L 251.454558 144.264176 
L 251.775914 140.450062 
L 251.936735 136.625814 
L 251.956844 134.712 
L 251.956844 134.712 
" clip-path="url(#p9cca4ab433)" style="fill: none; stroke: #888888; stroke-width: 1.6; stroke-linecap: square"/>
   </g>
   <g id="line2d_8">
    <path d="M 216.951291 134.712 
L 216.951291 62.939981 
" clip-path="url(#p9cca4ab433)" style="fill: none; stroke: #d1242f; stroke-width: 2; stroke-linecap: square"/>
   </g>
   <g id="line2d_9">
    <path d="M 160.876844 134.712 
L 216.951291 134.712 
" clip-path="url(#p9cca4ab433)" style="fill: none; stroke: #1a7f37; stroke-width: 2; stroke-linecap: square"/>
   </g>
   <g id="text_5">
    <!-- $\varphi$ -->
    <g transform="translate(186.379244 125.604) scale(0.13 -0.13)">
     <defs>
      <path id="Cmmi10-27" d="M 1044 -1216 
Q 1044 -1191 1056 -1141 
L 1416 -13 
Q 938 106 628 428 
Q 319 750 319 1216 
Q 319 1450 406 1744 
Q 494 2038 631 2302 
Q 769 2566 928 2741 
Q 966 2759 972 2759 
L 1050 2759 
Q 1069 2759 1084 2740 
Q 1100 2722 1100 2700 
Q 1100 2675 1088 2663 
Q 981 2547 879 2380 
Q 778 2213 698 2028 
Q 619 1844 566 1641 
Q 513 1438 513 1288 
Q 513 909 814 676 
Q 1116 444 1528 366 
L 1709 941 
Q 1828 1313 1945 1605 
Q 2063 1897 2239 2176 
Q 2416 2456 2666 2642 
Q 2916 2828 3225 2828 
Q 3469 2828 3633 2706 
Q 3797 2584 3876 2381 
Q 3956 2178 3956 1947 
Q 3956 1566 3787 1202 
Q 3619 838 3325 548 
Q 3031 259 2662 93 
Q 2294 -72 1919 -72 
Q 1869 -69 1811 -66 
Q 1753 -63 1716 -63 
L 1503 -1178 
Q 1484 -1272 1407 -1333 
Q 1331 -1394 1234 -1394 
Q 1156 -1394 1100 -1345 
Q 1044 -1297 1044 -1216 
z
M 1784 331 
Q 1856 325 1991 325 
Q 2388 325 2798 520 
Q 3209 716 3479 1056 
Q 3750 1397 3750 1797 
Q 3750 1978 3676 2122 
Q 3603 2266 3470 2348 
Q 3338 2431 3163 2431 
Q 2666 2431 2331 1950 
Q 1997 1469 1894 916 
L 1784 331 
z
" transform="scale(0.015625)"/>
     </defs>
     <use xlink:href="#Cmmi10-27" transform="translate(0 0.8125)"/>
    </g>
   </g>
   <g id="text_6">
    <!-- $\cos\varphi$ -->
    <g style="fill: #1a7f37" transform="translate(185.468444 151.1064) scale(0.12 -0.12)">
     <defs>
      <path id="Cmr10-63" d="M 1594 -72 
Q 1206 -72 890 129 
Q 575 331 394 667 
Q 213 1003 213 1381 
Q 213 1759 392 2106 
Q 572 2453 889 2661 
Q 1206 2869 1594 2869 
Q 1969 2869 2276 2722 
Q 2584 2575 2584 2241 
Q 2584 2116 2495 2023 
Q 2406 1931 2278 1931 
Q 2150 1931 2061 2023 
Q 1972 2116 1972 2241 
Q 1972 2353 2044 2436 
Q 2116 2519 2222 2541 
Q 2000 2681 1600 2681 
Q 1294 2681 1106 2478 
Q 919 2275 844 1975 
Q 769 1675 769 1381 
Q 769 1072 861 783 
Q 953 494 1158 305 
Q 1363 116 1672 116 
Q 1975 116 2187 302 
Q 2400 488 2478 788 
Q 2478 825 2528 825 
L 2606 825 
Q 2625 825 2640 808 
Q 2656 791 2656 769 
L 2656 750 
Q 2559 372 2271 150 
Q 1984 -72 1594 -72 
z
" transform="scale(0.015625)"/>
      <path id="Cmr10-6f" d="M 1600 -72 
Q 1216 -72 887 123 
Q 559 319 368 647 
Q 178 975 178 1363 
Q 178 1656 283 1928 
Q 388 2200 583 2414 
Q 778 2628 1037 2748 
Q 1297 2869 1600 2869 
Q 1994 2869 2317 2661 
Q 2641 2453 2828 2104 
Q 3016 1756 3016 1363 
Q 3016 978 2825 648 
Q 2634 319 2307 123 
Q 1981 -72 1600 -72 
z
M 1600 116 
Q 2113 116 2284 487 
Q 2456 859 2456 1434 
Q 2456 1756 2422 1967 
Q 2388 2178 2272 2350 
Q 2200 2456 2089 2536 
Q 1978 2616 1854 2658 
Q 1731 2700 1600 2700 
Q 1400 2700 1220 2609 
Q 1041 2519 922 2350 
Q 803 2169 770 1951 
Q 738 1734 738 1434 
Q 738 1075 800 789 
Q 863 503 1052 309 
Q 1241 116 1600 116 
z
" transform="scale(0.015625)"/>
      <path id="Cmr10-73" d="M 213 -19 
L 213 1025 
Q 213 1075 269 1075 
L 347 1075 
Q 384 1075 397 1025 
Q 575 97 1259 97 
Q 1563 97 1767 234 
Q 1972 372 1972 659 
Q 1972 866 1812 1011 
Q 1653 1156 1434 1209 
L 1006 1294 
Q 791 1341 614 1437 
Q 438 1534 325 1695 
Q 213 1856 213 2069 
Q 213 2350 361 2529 
Q 509 2709 746 2789 
Q 984 2869 1259 2869 
Q 1588 2869 1831 2694 
L 2016 2853 
Q 2016 2869 2047 2869 
L 2094 2869 
Q 2113 2869 2128 2851 
Q 2144 2834 2144 2816 
L 2144 1978 
Q 2144 1919 2094 1919 
L 2016 1919 
Q 1959 1919 1959 1978 
Q 1959 2313 1773 2516 
Q 1588 2719 1253 2719 
Q 966 2719 755 2612 
Q 544 2506 544 2247 
Q 544 2069 695 1955 
Q 847 1841 1050 1791 
L 1484 1709 
Q 1703 1659 1892 1540 
Q 2081 1422 2192 1240 
Q 2303 1059 2303 831 
Q 2303 600 2223 429 
Q 2144 259 2001 146 
Q 1859 34 1665 -19 
Q 1472 -72 1259 -72 
Q 859 -72 575 197 
L 341 -56 
Q 341 -72 306 -72 
L 269 -72 
Q 213 -72 213 -19 
z
" transform="scale(0.015625)"/>
     </defs>
     <use xlink:href="#Cmr10-63" transform="translate(0 0.171875)"/>
     <use xlink:href="#Cmr10-6f" transform="translate(44.384766 0.171875)"/>
     <use xlink:href="#Cmr10-73" transform="translate(94.384766 0.171875)"/>
     <use xlink:href="#Cmmi10-27" transform="translate(148.421517 0.171875)"/>
    </g>
   </g>
   <g id="text_7">
    <!-- $\sin\varphi$ -->
    <g style="fill: #d1242f" transform="translate(219.683691 102.834) scale(0.12 -0.12)">
     <defs>
      <path id="Cmr10-69" d="M 197 0 
L 197 225 
Q 416 225 556 259 
Q 697 294 697 428 
L 697 2175 
Q 697 2422 601 2478 
Q 506 2534 225 2534 
L 225 2759 
L 1147 2828 
L 1147 428 
Q 1147 294 1269 259 
Q 1391 225 1594 225 
L 1594 0 
L 197 0 
z
M 469 3928 
Q 469 4069 575 4175 
Q 681 4281 819 4281 
Q 909 4281 993 4234 
Q 1078 4188 1125 4103 
Q 1172 4019 1172 3928 
Q 1172 3791 1065 3684 
Q 959 3578 819 3578 
Q 681 3578 575 3684 
Q 469 3791 469 3928 
z
" transform="scale(0.015625)"/>
      <path id="Cmr10-6e" d="M 191 0 
L 191 225 
Q 409 225 550 259 
Q 691 294 691 428 
L 691 2175 
Q 691 2347 639 2423 
Q 588 2500 491 2517 
Q 394 2534 191 2534 
L 191 2759 
L 1119 2828 
L 1119 2203 
Q 1247 2478 1498 2653 
Q 1750 2828 2047 2828 
Q 2491 2828 2714 2615 
Q 2938 2403 2938 1966 
L 2938 428 
Q 2938 294 3078 259 
Q 3219 225 3438 225 
L 3438 0 
L 1972 0 
L 1972 225 
Q 2191 225 2331 259 
Q 2472 294 2472 428 
L 2472 1947 
Q 2472 2259 2381 2461 
Q 2291 2663 2009 2663 
Q 1638 2663 1398 2366 
Q 1159 2069 1159 1691 
L 1159 428 
Q 1159 294 1300 259 
Q 1441 225 1656 225 
L 1656 0 
L 191 0 
z
" transform="scale(0.015625)"/>
     </defs>
     <use xlink:href="#Cmr10-73" transform="translate(0 0.109375)"/>
     <use xlink:href="#Cmr10-69" transform="translate(39.404297 0.109375)"/>
     <use xlink:href="#Cmr10-6e" transform="translate(67.089844 0.109375)"/>
     <use xlink:href="#Cmmi10-27" transform="translate(137.239876 0.109375)"/>
    </g>
   </g>
   <g id="text_8">
    <!-- $P(\cos\varphi\,|\,\sin\varphi)$ -->
    <g transform="translate(207.843291 55.653581) scale(0.1 -0.1)">
     <defs>
      <path id="Cmmi10-50" d="M 313 0 
Q 250 0 250 84 
Q 253 100 262 139 
Q 272 178 289 201 
Q 306 225 331 225 
Q 722 225 878 269 
Q 959 297 997 441 
L 1875 3956 
Q 1888 4019 1888 4044 
Q 1888 4113 1813 4122 
Q 1691 4147 1350 4147 
Q 1288 4147 1288 4231 
Q 1291 4247 1300 4286 
Q 1309 4325 1326 4348 
Q 1344 4372 1369 4372 
L 3578 4372 
Q 3881 4372 4165 4264 
Q 4450 4156 4631 3934 
Q 4813 3713 4813 3397 
Q 4813 2991 4527 2672 
Q 4241 2353 3814 2175 
Q 3388 1997 2988 1997 
L 1947 1997 
L 1556 416 
Q 1544 353 1544 325 
Q 1544 300 1551 283 
Q 1559 266 1573 261 
Q 1588 256 1619 250 
Q 1741 225 2081 225 
Q 2144 225 2144 141 
Q 2122 50 2109 25 
Q 2097 0 2034 0 
L 313 0 
z
M 1978 2188 
L 2875 2188 
Q 3497 2188 3822 2522 
Q 3988 2688 4092 3000 
Q 4197 3313 4197 3566 
Q 4197 3881 3956 4014 
Q 3716 4147 3359 4147 
L 2747 4147 
Q 2572 4147 2515 4117 
Q 2459 4088 2413 3928 
L 1978 2188 
z
" transform="scale(0.015625)"/>
      <path id="Cmr10-28" d="M 1984 -1588 
Q 1628 -1306 1370 -942 
Q 1113 -578 948 -165 
Q 784 247 703 697 
Q 622 1147 622 1600 
Q 622 2059 703 2509 
Q 784 2959 951 3375 
Q 1119 3791 1378 4153 
Q 1638 4516 1984 4788 
Q 1984 4800 2016 4800 
L 2075 4800 
Q 2094 4800 2109 4783 
Q 2125 4766 2125 4744 
Q 2125 4716 2113 4703 
Q 1800 4397 1592 4047 
Q 1384 3697 1257 3301 
Q 1131 2906 1075 2482 
Q 1019 2059 1019 1600 
Q 1019 -434 2106 -1491 
Q 2125 -1509 2125 -1544 
Q 2125 -1559 2108 -1579 
Q 2091 -1600 2075 -1600 
L 2016 -1600 
Q 1984 -1600 1984 -1588 
z
" transform="scale(0.015625)"/>
      <path id="Cmsy10-6a" d="M 763 -1484 
L 763 4684 
Q 763 4734 800 4767 
Q 838 4800 891 4800 
Q 938 4800 978 4767 
Q 1019 4734 1019 4684 
L 1019 -1484 
Q 1019 -1534 978 -1567 
Q 938 -1600 891 -1600 
Q 838 -1600 800 -1567 
Q 763 -1534 763 -1484 
z
" transform="scale(0.015625)"/>
      <path id="Cmr10-29" d="M 416 -1600 
Q 359 -1600 359 -1544 
Q 359 -1516 372 -1503 
Q 1466 -434 1466 1600 
Q 1466 3634 384 4691 
Q 359 4706 359 4744 
Q 359 4766 376 4783 
Q 394 4800 416 4800 
L 475 4800 
Q 494 4800 506 4788 
Q 966 4425 1272 3906 
Q 1578 3388 1720 2800 
Q 1863 2213 1863 1600 
Q 1863 1147 1786 708 
Q 1709 269 1542 -157 
Q 1375 -584 1119 -945 
Q 863 -1306 506 -1588 
Q 494 -1600 475 -1600 
L 416 -1600 
z
" transform="scale(0.015625)"/>
     </defs>
     <use xlink:href="#Cmmi10-50"/>
     <use xlink:href="#Cmr10-28" transform="translate(64.208984 0)"/>
     <use xlink:href="#Cmr10-63" transform="translate(103.027344 0)"/>
     <use xlink:href="#Cmr10-6f" transform="translate(147.412109 0)"/>
     <use xlink:href="#Cmr10-73" transform="translate(197.412109 0)"/>
     <use xlink:href="#Cmmi10-27" transform="translate(251.44886 0)"/>
     <use xlink:href="#Cmsy10-6a" transform="translate(331.462174 0)"/>
     <use xlink:href="#Cmr10-73" transform="translate(373.780175 0)"/>
     <use xlink:href="#Cmr10-69" transform="translate(413.184472 0)"/>
     <use xlink:href="#Cmr10-6e" transform="translate(440.870019 0)"/>
     <use xlink:href="#Cmmi10-27" transform="translate(511.020051 0)"/>
     <use xlink:href="#Cmr10-29" transform="translate(576.40091 0)"/>
    </g>
   </g>
  </g>
 </g>
 <defs>
  <clipPath id="p9cca4ab433">
   <rect x="33.364844" y="7.2" width="255.024" height="255.024"/>
  </clipPath>
 </defs>
</svg>
