<?xml version="1.0" encoding="utf-8" standalone="no"?>
<!DOCTYPE svg PUBLIC "-//W3C//DTD SVG 1.1//EN"
  "http://www.w3.org/Graphics/SVG/1.1/DTD/svg11.dtd">
<svg xmlns:xlink="http://www.w3.org/1999/xlink" width="353.579219pt" height="279.113906pt" viewBox="0 0 353.579219 279.113906" xmlns="http://www.w3.org/2000/svg" version="1.1">
 <metadata>
  <rdf:RDF xmlns:dc="http://purl.org/dc/elements/1.1/" xmlns:cc="http://creativecommons.org/ns#" xmlns:rdf="http://www.w3.org/1999/02/22-rdf-syntax-ns#">
   <cc:Work>
    <dc:type rdf:resource="http://purl.org/dc/dcmitype/StillImage"/>
    <dc:date>2026-06-07T17:27:02.711943</dc:date>
    <dc:format>image/svg+xml</dc:format>
    <dc:creator>
     <cc:Agent>
      <dc:title>Matplotlib v3.10.8, https://matplotlib.org/</dc:title>
     </cc:Agent>
    </dc:creator>
   </cc:Work>
  </rdf:RDF>
 </metadata>
 <defs>
  <style type="text/css">*{stroke-linejoin: round; stroke-linecap: butt}</style>
 </defs>
 <g id="figure_1">
  <g id="patch_1">
   <path d="M 0 279.113906 
L 353.579219 279.113906 
L 353.579219 0 
L 0 0 
z
" style="fill: #ffffff"/>
  </g>
  <g id="axes_1">
   <g id="patch_2">
    <path d="M 45.059219 235.750781 
L 346.379219 235.750781 
L 346.379219 13.990781 
L 45.059219 13.990781 
z
" style="fill: #ffffff"/>
   </g>
   <g id="FillBetweenPolyCollection_1">
    <defs>
     <path id="m89de4d1ed7" d="M 88.104933 -111.596971 
L 88.104933 -111.596971 
L 90.278959 -109.560608 
L 92.452985 -107.586901 
L 94.627011 -105.675852 
L 96.801037 -103.827461 
L 98.975063 -102.041726 
L 101.149089 -100.318649 
L 103.323115 -98.65823 
L 105.497141 -97.060468 
L 107.671167 -95.525363 
L 109.845193 -94.052915 
L 112.019219 -92.643125 
L 114.193245 -91.295992 
L 116.367271 -90.011517 
L 118.541297 -88.789698 
L 120.715323 -87.630538 
L 122.889349 -86.534034 
L 125.063375 -85.500188 
L 127.237401 -84.528999 
L 129.411427 -83.620468 
L 131.585453 -82.774594 
L 133.759478 -81.991377 
L 135.933504 -81.270817 
L 138.10753 -80.612915 
L 140.281556 -80.01767 
L 142.455582 -79.485083 
L 144.629608 -79.015153 
L 146.803634 -78.60788 
L 148.97766 -78.263265 
L 151.151686 -77.981307 
L 153.325712 -77.762006 
L 155.499738 -77.605363 
L 157.673764 -77.511377 
L 159.84779 -77.480048 
L 162.021816 -77.511377 
L 164.195842 -77.605363 
L 166.369868 -77.762006 
L 168.543894 -77.981307 
L 170.71792 -78.263265 
L 172.891946 -78.60788 
L 175.065972 -79.015153 
L 177.239998 -79.485083 
L 179.414024 -80.01767 
L 181.58805 -80.612915 
L 183.762076 -81.270817 
L 185.936102 -81.991377 
L 188.110128 -82.774594 
L 190.284154 -83.620468 
L 192.45818 -84.528999 
L 194.632206 -85.500188 
L 196.806232 -86.534034 
L 198.980258 -87.630538 
L 201.154284 -88.789698 
L 203.32831 -90.011517 
L 205.502336 -91.295992 
L 207.676362 -92.643125 
L 209.850388 -94.052915 
L 212.024414 -95.525363 
L 214.19844 -97.060468 
L 216.372466 -98.65823 
L 218.546491 -100.318649 
L 220.720517 -102.041726 
L 222.894543 -103.827461 
L 225.068569 -105.675852 
L 227.242595 -107.586901 
L 229.416621 -109.560608 
L 231.590647 -111.596971 
L 233.764673 -113.695992 
L 235.938699 -115.85767 
L 238.112725 -118.082006 
L 240.286751 -120.368999 
L 242.460777 -122.718649 
L 244.634803 -125.130957 
L 246.808829 -127.605922 
L 248.982855 -130.143545 
L 251.156881 -132.743824 
L 253.330907 -135.406761 
L 255.504933 -138.132356 
L 257.678959 -140.920608 
L 259.852985 -143.771517 
L 262.027011 -146.685083 
L 264.201037 -149.661307 
L 266.375063 -152.700188 
L 268.549089 -155.801726 
L 270.723115 -158.965922 
L 272.897141 -162.192775 
L 275.071167 -165.482286 
L 277.245193 -168.834454 
L 279.419219 -172.249279 
L 281.593245 -175.726761 
L 283.767271 -179.266901 
L 285.941297 -182.869698 
L 288.115323 -186.535153 
L 290.289349 -190.263265 
L 292.463375 -194.054034 
L 294.637401 -197.907461 
L 296.811427 -201.823545 
L 298.985453 -205.802286 
L 301.159478 -209.843684 
L 303.333504 -213.94774 
L 303.333504 -213.94774 
L 303.333504 -213.94774 
L 301.159478 -212.913894 
L 298.985453 -211.880048 
L 296.811427 -210.846202 
L 294.637401 -209.812356 
L 292.463375 -208.77851 
L 290.289349 -207.744663 
L 288.115323 -206.710817 
L 285.941297 -205.676971 
L 283.767271 -204.643125 
L 281.593245 -203.609279 
L 279.419219 -202.575433 
L 277.245193 -201.541587 
L 275.071167 -200.50774 
L 272.897141 -199.473894 
L 270.723115 -198.440048 
L 268.549089 -197.406202 
L 266.375063 -196.372356 
L 264.201037 -195.33851 
L 262.027011 -194.304663 
L 259.852985 -193.270817 
L 257.678959 -192.236971 
L 255.504933 -191.203125 
L 253.330907 -190.169279 
L 251.156881 -189.135433 
L 248.982855 -188.101587 
L 246.808829 -187.06774 
L 244.634803 -186.033894 
L 242.460777 -185.000048 
L 240.286751 -183.966202 
L 238.112725 -182.932356 
L 235.938699 -181.89851 
L 233.764673 -180.864663 
L 231.590647 -179.830817 
L 229.416621 -178.796971 
L 227.242595 -177.763125 
L 225.068569 -176.729279 
L 222.894543 -175.695433 
L 220.720517 -174.661587 
L 218.546491 -173.62774 
L 216.372466 -172.593894 
L 214.19844 -171.560048 
L 212.024414 -170.526202 
L 209.850388 -169.492356 
L 207.676362 -168.45851 
L 205.502336 -167.424663 
L 203.32831 -166.390817 
L 201.154284 -165.356971 
L 198.980258 -164.323125 
L 196.806232 -163.289279 
L 194.632206 -162.255433 
L 192.45818 -161.221587 
L 190.284154 -160.18774 
L 188.110128 -159.153894 
L 185.936102 -158.120048 
L 183.762076 -157.086202 
L 181.58805 -156.052356 
L 179.414024 -155.01851 
L 177.239998 -153.984663 
L 175.065972 -152.950817 
L 172.891946 -151.916971 
L 170.71792 -150.883125 
L 168.543894 -149.849279 
L 166.369868 -148.815433 
L 164.195842 -147.781587 
L 162.021816 -146.74774 
L 159.84779 -145.713894 
L 157.673764 -144.680048 
L 155.499738 -143.646202 
L 153.325712 -142.612356 
L 151.151686 -141.57851 
L 148.97766 -140.544663 
L 146.803634 -139.510817 
L 144.629608 -138.476971 
L 142.455582 -137.443125 
L 140.281556 -136.409279 
L 138.10753 -135.375433 
L 135.933504 -134.341587 
L 133.759478 -133.30774 
L 131.585453 -132.273894 
L 129.411427 -131.240048 
L 127.237401 -130.206202 
L 125.063375 -129.172356 
L 122.889349 -128.13851 
L 120.715323 -127.104663 
L 118.541297 -126.070817 
L 116.367271 -125.036971 
L 114.193245 -124.003125 
L 112.019219 -122.969279 
L 109.845193 -121.935433 
L 107.671167 -120.901587 
L 105.497141 -119.86774 
L 103.323115 -118.833894 
L 101.149089 -117.800048 
L 98.975063 -116.766202 
L 96.801037 -115.732356 
L 94.627011 -114.69851 
L 92.452985 -113.664663 
L 90.278959 -112.630817 
L 88.104933 -111.596971 
z
" style="stroke: #ffe9b3"/>
    </defs>
    <g clip-path="url(#pc4d4ea7855)">
     <use xlink:href="#m89de4d1ed7" x="0" y="279.113906" style="fill: #ffe9b3; stroke: #ffe9b3"/>
    </g>
   </g>
   <g id="matplotlib.axis_1">
    <g id="xtick_1">
     <g id="line2d_1">
      <path d="M 88.104933 235.750781 
L 88.104933 13.990781 
" clip-path="url(#pc4d4ea7855)" style="fill: none; stroke-dasharray: 0.7,1.155; stroke-dashoffset: 0; stroke: #cccccc; stroke-width: 0.7"/>
     </g>
     <g id="line2d_2">
      <defs>
       <path id="mfaa236c8d6" d="M 0 0 
L 0 3.5 
" style="stroke: #000000; stroke-width: 0.8"/>
      </defs>
      <g>
       <use xlink:href="#mfaa236c8d6" x="88.104933" y="235.750781" style="stroke: #000000; stroke-width: 0.8"/>
      </g>
     </g>
     <g id="text_1">
      <!-- −1 -->
      <g transform="translate(78.522511 252.62875) scale(0.13 -0.13)">
       <defs>
        <path id="DejaVuSans-2212" d="M 678 2272 
L 4684 2272 
L 4684 1741 
L 678 1741 
L 678 2272 
z
" transform="scale(0.015625)"/>
        <path id="DejaVuSans-31" d="M 794 531 
L 1825 531 
L 1825 4091 
L 703 3866 
L 703 4441 
L 1819 4666 
L 2450 4666 
L 2450 531 
L 3481 531 
L 3481 0 
L 794 0 
L 794 531 
z
" transform="scale(0.015625)"/>
       </defs>
       <use xlink:href="#DejaVuSans-2212"/>
       <use xlink:href="#DejaVuSans-31" transform="translate(83.789062 0)"/>
      </g>
     </g>
    </g>
    <g id="xtick_2">
     <g id="line2d_3">
      <path d="M 159.84779 235.750781 
L 159.84779 13.990781 
" clip-path="url(#pc4d4ea7855)" style="fill: none; stroke-dasharray: 0.7,1.155; stroke-dashoffset: 0; stroke: #cccccc; stroke-width: 0.7"/>
     </g>
     <g id="line2d_4">
      <g>
       <use xlink:href="#mfaa236c8d6" x="159.84779" y="235.750781" style="stroke: #000000; stroke-width: 0.8"/>
      </g>
     </g>
     <g id="text_2">
      <!-- 0 -->
      <g transform="translate(155.712165 252.62875) scale(0.13 -0.13)">
       <defs>
        <path id="DejaVuSans-30" d="M 2034 4250 
Q 1547 4250 1301 3770 
Q 1056 3291 1056 2328 
Q 1056 1369 1301 889 
Q 1547 409 2034 409 
Q 2525 409 2770 889 
Q 3016 1369 3016 2328 
Q 3016 3291 2770 3770 
Q 2525 4250 2034 4250 
z
M 2034 4750 
Q 2819 4750 3233 4129 
Q 3647 3509 3647 2328 
Q 3647 1150 3233 529 
Q 2819 -91 2034 -91 
Q 1250 -91 836 529 
Q 422 1150 422 2328 
Q 422 3509 836 4129 
Q 1250 4750 2034 4750 
z
" transform="scale(0.015625)"/>
       </defs>
       <use xlink:href="#DejaVuSans-30"/>
      </g>
     </g>
    </g>
    <g id="xtick_3">
     <g id="line2d_5">
      <path d="M 231.590647 235.750781 
L 231.590647 13.990781 
" clip-path="url(#pc4d4ea7855)" style="fill: none; stroke-dasharray: 0.7,1.155; stroke-dashoffset: 0; stroke: #cccccc; stroke-width: 0.7"/>
     </g>
     <g id="line2d_6">
      <g>
       <use xlink:href="#mfaa236c8d6" x="231.590647" y="235.750781" style="stroke: #000000; stroke-width: 0.8"/>
      </g>
     </g>
     <g id="text_3">
      <!-- 1 -->
      <g transform="translate(227.455022 252.62875) scale(0.13 -0.13)">
       <use xlink:href="#DejaVuSans-31"/>
      </g>
     </g>
    </g>
    <g id="xtick_4">
     <g id="line2d_7">
      <path d="M 303.333504 235.750781 
L 303.333504 13.990781 
" clip-path="url(#pc4d4ea7855)" style="fill: none; stroke-dasharray: 0.7,1.155; stroke-dashoffset: 0; stroke: #cccccc; stroke-width: 0.7"/>
     </g>
     <g id="line2d_8">
      <g>
       <use xlink:href="#mfaa236c8d6" x="303.333504" y="235.750781" style="stroke: #000000; stroke-width: 0.8"/>
      </g>
     </g>
     <g id="text_4">
      <!-- 2 -->
      <g transform="translate(299.197879 252.62875) scale(0.13 -0.13)">
       <defs>
        <path id="DejaVuSans-32" d="M 1228 531 
L 3431 531 
L 3431 0 
L 469 0 
L 469 531 
Q 828 903 1448 1529 
Q 2069 2156 2228 2338 
Q 2531 2678 2651 2914 
Q 2772 3150 2772 3378 
Q 2772 3750 2511 3984 
Q 2250 4219 1831 4219 
Q 1534 4219 1204 4116 
Q 875 4013 500 3803 
L 500 4441 
Q 881 4594 1212 4672 
Q 1544 4750 1819 4750 
Q 2544 4750 2975 4387 
Q 3406 4025 3406 3419 
Q 3406 3131 3298 2873 
Q 3191 2616 2906 2266 
Q 2828 2175 2409 1742 
Q 1991 1309 1228 531 
z
" transform="scale(0.015625)"/>
       </defs>
       <use xlink:href="#DejaVuSans-32"/>
      </g>
     </g>
    </g>
    <g id="text_5">
     <!-- x -->
     <g transform="translate(338.684844 269.210312) scale(0.13 -0.13)">
      <defs>
       <path id="DejaVuSans-78" d="M 3513 3500 
L 2247 1797 
L 3578 0 
L 2900 0 
L 1881 1375 
L 863 0 
L 184 0 
L 1544 1831 
L 300 3500 
L 978 3500 
L 1906 2253 
L 2834 3500 
L 3513 3500 
z
" transform="scale(0.015625)"/>
      </defs>
      <use xlink:href="#DejaVuSans-78"/>
     </g>
    </g>
   </g>
   <g id="matplotlib.axis_2">
    <g id="ytick_1">
     <g id="line2d_9">
      <path d="M 45.059219 235.750781 
L 346.379219 235.750781 
" clip-path="url(#pc4d4ea7855)" style="fill: none; stroke-dasharray: 0.7,1.155; stroke-dashoffset: 0; stroke: #cccccc; stroke-width: 0.7"/>
     </g>
     <g id="line2d_10">
      <defs>
       <path id="m390c201ccf" d="M 0 0 
L -3.5 0 
" style="stroke: #000000; stroke-width: 0.8"/>
      </defs>
      <g>
       <use xlink:href="#m390c201ccf" x="45.059219" y="235.750781" style="stroke: #000000; stroke-width: 0.8"/>
      </g>
     </g>
     <g id="text_6">
      <!-- −1 -->
      <g transform="translate(18.894375 240.689766) scale(0.13 -0.13)">
       <use xlink:href="#DejaVuSans-2212"/>
       <use xlink:href="#DejaVuSans-31" transform="translate(83.789062 0)"/>
      </g>
     </g>
    </g>
    <g id="ytick_2">
     <g id="line2d_11">
      <path d="M 45.059219 201.633858 
L 346.379219 201.633858 
" clip-path="url(#pc4d4ea7855)" style="fill: none; stroke-dasharray: 0.7,1.155; stroke-dashoffset: 0; stroke: #cccccc; stroke-width: 0.7"/>
     </g>
     <g id="line2d_12">
      <g>
       <use xlink:href="#m390c201ccf" x="45.059219" y="201.633858" style="stroke: #000000; stroke-width: 0.8"/>
      </g>
     </g>
     <g id="text_7">
      <!-- 0 -->
      <g transform="translate(29.787969 206.572843) scale(0.13 -0.13)">
       <use xlink:href="#DejaVuSans-30"/>
      </g>
     </g>
    </g>
    <g id="ytick_3">
     <g id="line2d_13">
      <path d="M 45.059219 167.516935 
L 346.379219 167.516935 
" clip-path="url(#pc4d4ea7855)" style="fill: none; stroke-dasharray: 0.7,1.155; stroke-dashoffset: 0; stroke: #cccccc; stroke-width: 0.7"/>
     </g>
     <g id="line2d_14">
      <g>
       <use xlink:href="#m390c201ccf" x="45.059219" y="167.516935" style="stroke: #000000; stroke-width: 0.8"/>
      </g>
     </g>
     <g id="text_8">
      <!-- 1 -->
      <g transform="translate(29.787969 172.455919) scale(0.13 -0.13)">
       <use xlink:href="#DejaVuSans-31"/>
      </g>
     </g>
    </g>
    <g id="ytick_4">
     <g id="line2d_15">
      <path d="M 45.059219 133.400012 
L 346.379219 133.400012 
" clip-path="url(#pc4d4ea7855)" style="fill: none; stroke-dasharray: 0.7,1.155; stroke-dashoffset: 0; stroke: #cccccc; stroke-width: 0.7"/>
     </g>
     <g id="line2d_16">
      <g>
       <use xlink:href="#m390c201ccf" x="45.059219" y="133.400012" style="stroke: #000000; stroke-width: 0.8"/>
      </g>
     </g>
     <g id="text_9">
      <!-- 2 -->
      <g transform="translate(29.787969 138.338996) scale(0.13 -0.13)">
       <use xlink:href="#DejaVuSans-32"/>
      </g>
     </g>
    </g>
    <g id="ytick_5">
     <g id="line2d_17">
      <path d="M 45.059219 99.283089 
L 346.379219 99.283089 
" clip-path="url(#pc4d4ea7855)" style="fill: none; stroke-dasharray: 0.7,1.155; stroke-dashoffset: 0; stroke: #cccccc; stroke-width: 0.7"/>
     </g>
     <g id="line2d_18">
      <g>
       <use xlink:href="#m390c201ccf" x="45.059219" y="99.283089" style="stroke: #000000; stroke-width: 0.8"/>
      </g>
     </g>
     <g id="text_10">
      <!-- 3 -->
      <g transform="translate(29.787969 104.222073) scale(0.13 -0.13)">
       <defs>
        <path id="DejaVuSans-33" d="M 2597 2516 
Q 3050 2419 3304 2112 
Q 3559 1806 3559 1356 
Q 3559 666 3084 287 
Q 2609 -91 1734 -91 
Q 1441 -91 1130 -33 
Q 819 25 488 141 
L 488 750 
Q 750 597 1062 519 
Q 1375 441 1716 441 
Q 2309 441 2620 675 
Q 2931 909 2931 1356 
Q 2931 1769 2642 2001 
Q 2353 2234 1838 2234 
L 1294 2234 
L 1294 2753 
L 1863 2753 
Q 2328 2753 2575 2939 
Q 2822 3125 2822 3475 
Q 2822 3834 2567 4026 
Q 2313 4219 1838 4219 
Q 1578 4219 1281 4162 
Q 984 4106 628 3988 
L 628 4550 
Q 988 4650 1302 4700 
Q 1616 4750 1894 4750 
Q 2613 4750 3031 4423 
Q 3450 4097 3450 3541 
Q 3450 3153 3228 2886 
Q 3006 2619 2597 2516 
z
" transform="scale(0.015625)"/>
       </defs>
       <use xlink:href="#DejaVuSans-33"/>
      </g>
     </g>
    </g>
    <g id="ytick_6">
     <g id="line2d_19">
      <path d="M 45.059219 65.166166 
L 346.379219 65.166166 
" clip-path="url(#pc4d4ea7855)" style="fill: none; stroke-dasharray: 0.7,1.155; stroke-dashoffset: 0; stroke: #cccccc; stroke-width: 0.7"/>
     </g>
     <g id="line2d_20">
      <g>
       <use xlink:href="#m390c201ccf" x="45.059219" y="65.166166" style="stroke: #000000; stroke-width: 0.8"/>
      </g>
     </g>
     <g id="text_11">
      <!-- 4 -->
      <g transform="translate(29.787969 70.10515) scale(0.13 -0.13)">
       <defs>
        <path id="DejaVuSans-34" d="M 2419 4116 
L 825 1625 
L 2419 1625 
L 2419 4116 
z
M 2253 4666 
L 3047 4666 
L 3047 1625 
L 3713 1625 
L 3713 1100 
L 3047 1100 
L 3047 0 
L 2419 0 
L 2419 1100 
L 313 1100 
L 313 1709 
L 2253 4666 
z
" transform="scale(0.015625)"/>
       </defs>
       <use xlink:href="#DejaVuSans-34"/>
      </g>
     </g>
    </g>
    <g id="ytick_7">
     <g id="line2d_21">
      <path d="M 45.059219 31.049243 
L 346.379219 31.049243 
" clip-path="url(#pc4d4ea7855)" style="fill: none; stroke-dasharray: 0.7,1.155; stroke-dashoffset: 0; stroke: #cccccc; stroke-width: 0.7"/>
     </g>
     <g id="line2d_22">
      <g>
       <use xlink:href="#m390c201ccf" x="45.059219" y="31.049243" style="stroke: #000000; stroke-width: 0.8"/>
      </g>
     </g>
     <g id="text_12">
      <!-- 5 -->
      <g transform="translate(29.787969 35.988227) scale(0.13 -0.13)">
       <defs>
        <path id="DejaVuSans-35" d="M 691 4666 
L 3169 4666 
L 3169 4134 
L 1269 4134 
L 1269 2991 
Q 1406 3038 1543 3061 
Q 1681 3084 1819 3084 
Q 2600 3084 3056 2656 
Q 3513 2228 3513 1497 
Q 3513 744 3044 326 
Q 2575 -91 1722 -91 
Q 1428 -91 1123 -41 
Q 819 9 494 109 
L 494 744 
Q 775 591 1075 516 
Q 1375 441 1709 441 
Q 2250 441 2565 725 
Q 2881 1009 2881 1497 
Q 2881 1984 2565 2268 
Q 2250 2553 1709 2553 
Q 1456 2553 1204 2497 
Q 953 2441 691 2322 
L 691 4666 
z
" transform="scale(0.015625)"/>
       </defs>
       <use xlink:href="#DejaVuSans-35"/>
      </g>
     </g>
    </g>
    <g id="text_13">
     <!-- y -->
     <g transform="translate(7.2 11.287188) scale(0.13 -0.13)">
      <defs>
       <path id="DejaVuSans-79" d="M 2059 -325 
Q 1816 -950 1584 -1140 
Q 1353 -1331 966 -1331 
L 506 -1331 
L 506 -850 
L 844 -850 
Q 1081 -850 1212 -737 
Q 1344 -625 1503 -206 
L 1606 56 
L 191 3500 
L 800 3500 
L 1894 763 
L 2988 3500 
L 3597 3500 
L 2059 -325 
z
" transform="scale(0.015625)"/>
      </defs>
      <use xlink:href="#DejaVuSans-79"/>
     </g>
    </g>
   </g>
   <g id="line2d_23">
    <path d="M 45.059219 201.633858 
L 346.379219 201.633858 
" clip-path="url(#pc4d4ea7855)" style="fill: none; stroke: #333333; stroke-linecap: square"/>
   </g>
   <g id="line2d_24">
    <path d="M 159.84779 235.750781 
L 159.84779 13.990781 
" clip-path="url(#pc4d4ea7855)" style="fill: none; stroke: #333333; stroke-linecap: square"/>
   </g>
   <g id="line2d_25">
    <path d="M 45.059219 114.294535 
L 51.115902 123.268093 
L 57.172586 131.755342 
L 63.229269 139.756282 
L 67.771782 145.437847 
L 72.314294 150.845863 
L 76.856807 155.98033 
L 81.399319 160.841249 
L 85.941832 165.428619 
L 90.484344 169.74244 
L 95.026857 173.782712 
L 99.56937 177.549435 
L 104.111882 181.04261 
L 108.654395 184.262235 
L 113.196907 187.208312 
L 117.73942 189.880841 
L 122.281932 192.27982 
L 126.824445 194.405251 
L 131.366957 196.257132 
L 135.90947 197.835465 
L 140.451983 199.14025 
L 144.994495 200.171485 
L 149.537008 200.929172 
L 154.07952 201.41331 
L 158.622033 201.623899 
L 163.164545 201.560939 
L 167.707058 201.224431 
L 172.249571 200.614374 
L 176.792083 199.730768 
L 181.334596 198.573613 
L 185.877108 197.142909 
L 190.419621 195.438657 
L 194.962133 193.460856 
L 199.504646 191.209506 
L 204.047158 188.684607 
L 208.589671 185.88616 
L 213.132184 182.814164 
L 217.674696 179.468619 
L 222.217209 175.849525 
L 226.759721 171.956882 
L 231.302234 167.790691 
L 235.844746 163.35095 
L 240.387259 158.637661 
L 244.929772 153.650824 
L 249.472284 148.390437 
L 254.014797 142.856502 
L 258.557309 137.049018 
L 264.613993 128.880185 
L 270.670676 120.225044 
L 276.727359 111.083593 
L 282.784043 101.455834 
L 288.840726 91.341766 
L 294.89741 80.741389 
L 300.954093 69.654702 
L 307.010777 58.081707 
L 313.06746 46.022403 
L 319.124143 33.47679 
L 325.180827 20.444868 
L 331.23751 6.926637 
L 334.690071 -1 
L 334.690071 -1 
" clip-path="url(#pc4d4ea7855)" style="fill: none; stroke: #1f6feb; stroke-width: 2.2; stroke-linecap: square"/>
   </g>
   <g id="line2d_26">
    <path d="M 45.059219 187.987089 
L 346.379219 44.696012 
L 346.379219 44.696012 
" clip-path="url(#pc4d4ea7855)" style="fill: none; stroke: #d1242f; stroke-width: 2.2; stroke-linecap: square"/>
   </g>
   <g id="line2d_27">
    <defs>
     <path id="m7a87dbc094" d="M 0 3 
C 0.795609 3 1.55874 2.683901 2.12132 2.12132 
C 2.683901 1.55874 3 0.795609 3 0 
C 3 -0.795609 2.683901 -1.55874 2.12132 -2.12132 
C 1.55874 -2.683901 0.795609 -3 0 -3 
C -0.795609 -3 -1.55874 -2.683901 -2.12132 -2.12132 
C -2.683901 -1.55874 -3 -0.795609 -3 0 
C -3 0.795609 -2.683901 1.55874 -2.12132 2.12132 
C -1.55874 2.683901 -0.795609 3 0 3 
z
" style="stroke: #333333"/>
    </defs>
    <g clip-path="url(#pc4d4ea7855)">
     <use xlink:href="#m7a87dbc094" x="88.104933" y="167.516935" style="fill: #333333; stroke: #333333"/>
    </g>
   </g>
   <g id="line2d_28">
    <g clip-path="url(#pc4d4ea7855)">
     <use xlink:href="#m7a87dbc094" x="303.333504" y="65.166166" style="fill: #333333; stroke: #333333"/>
    </g>
   </g>
   <g id="legend_1">
    <g id="line2d_29">
     <path d="M 155.919219 27.990781 
L 165.919219 27.990781 
L 175.919219 27.990781 
" style="fill: none; stroke: #1f6feb; stroke-width: 2.2; stroke-linecap: square"/>
    </g>
    <g id="text_14">
     <!-- $f(x)=x^2$ -->
     <g transform="translate(183.919219 31.490781) scale(0.1 -0.1)">
      <defs>
       <path id="Cmmi10-66" d="M 622 -1056 
Q 741 -1147 909 -1147 
Q 1138 -1147 1281 -641 
Q 1341 -397 1606 966 
L 1900 2534 
L 1350 2534 
Q 1288 2534 1288 2619 
Q 1313 2759 1369 2759 
L 1941 2759 
L 2016 3175 
Q 2053 3369 2084 3508 
Q 2116 3647 2152 3765 
Q 2188 3884 2259 4031 
Q 2369 4241 2555 4377 
Q 2741 4513 2956 4513 
Q 3097 4513 3230 4461 
Q 3363 4409 3447 4306 
Q 3531 4203 3531 4063 
Q 3531 3900 3423 3779 
Q 3316 3659 3163 3659 
Q 3059 3659 2986 3723 
Q 2913 3788 2913 3891 
Q 2913 4031 3008 4136 
Q 3103 4241 3244 4256 
Q 3125 4347 2950 4347 
Q 2853 4347 2767 4256 
Q 2681 4166 2656 4063 
Q 2616 3900 2478 3181 
L 2400 2759 
L 3059 2759 
Q 3122 2759 3122 2675 
Q 3119 2659 3109 2620 
Q 3100 2581 3083 2557 
Q 3066 2534 3041 2534 
L 2356 2534 
L 2059 972 
Q 2003 631 1929 279 
Q 1856 -72 1723 -442 
Q 1591 -813 1384 -1063 
Q 1178 -1313 897 -1313 
Q 681 -1313 511 -1189 
Q 341 -1066 341 -863 
Q 341 -700 445 -579 
Q 550 -459 709 -459 
Q 816 -459 887 -523 
Q 959 -588 959 -691 
Q 959 -828 857 -942 
Q 756 -1056 622 -1056 
z
" transform="scale(0.015625)"/>
       <path id="Cmr10-28" d="M 1984 -1588 
Q 1628 -1306 1370 -942 
Q 1113 -578 948 -165 
Q 784 247 703 697 
Q 622 1147 622 1600 
Q 622 2059 703 2509 
Q 784 2959 951 3375 
Q 1119 3791 1378 4153 
Q 1638 4516 1984 4788 
Q 1984 4800 2016 4800 
L 2075 4800 
Q 2094 4800 2109 4783 
Q 2125 4766 2125 4744 
Q 2125 4716 2113 4703 
Q 1800 4397 1592 4047 
Q 1384 3697 1257 3301 
Q 1131 2906 1075 2482 
Q 1019 2059 1019 1600 
Q 1019 -434 2106 -1491 
Q 2125 -1509 2125 -1544 
Q 2125 -1559 2108 -1579 
Q 2091 -1600 2075 -1600 
L 2016 -1600 
Q 1984 -1600 1984 -1588 
z
" transform="scale(0.015625)"/>
       <path id="Cmmi10-78" d="M 500 184 
Q 613 97 819 97 
Q 1019 97 1172 289 
Q 1325 481 1381 709 
L 1672 1844 
Q 1741 2153 1741 2266 
Q 1741 2425 1652 2544 
Q 1563 2663 1403 2663 
Q 1200 2663 1022 2536 
Q 844 2409 722 2214 
Q 600 2019 550 1819 
Q 538 1778 500 1778 
L 422 1778 
Q 372 1778 372 1838 
L 372 1856 
Q 434 2094 584 2320 
Q 734 2547 951 2687 
Q 1169 2828 1416 2828 
Q 1650 2828 1839 2703 
Q 2028 2578 2106 2363 
Q 2216 2559 2386 2693 
Q 2556 2828 2759 2828 
Q 2897 2828 3040 2779 
Q 3184 2731 3275 2631 
Q 3366 2531 3366 2381 
Q 3366 2219 3261 2101 
Q 3156 1984 2994 1984 
Q 2891 1984 2822 2050 
Q 2753 2116 2753 2216 
Q 2753 2350 2845 2451 
Q 2938 2553 3066 2572 
Q 2950 2663 2747 2663 
Q 2541 2663 2389 2472 
Q 2238 2281 2175 2047 
L 1894 916 
Q 1825 659 1825 494 
Q 1825 331 1917 214 
Q 2009 97 2163 97 
Q 2463 97 2698 361 
Q 2934 625 3009 941 
Q 3022 978 3059 978 
L 3138 978 
Q 3163 978 3178 961 
Q 3194 944 3194 922 
Q 3194 916 3188 903 
Q 3097 522 2806 225 
Q 2516 -72 2150 -72 
Q 1916 -72 1727 54 
Q 1538 181 1459 397 
Q 1359 209 1182 68 
Q 1006 -72 806 -72 
Q 669 -72 523 -23 
Q 378 25 287 125 
Q 197 225 197 378 
Q 197 528 301 651 
Q 406 775 563 775 
Q 669 775 741 711 
Q 813 647 813 544 
Q 813 409 723 309 
Q 634 209 500 184 
z
" transform="scale(0.015625)"/>
       <path id="Cmr10-29" d="M 416 -1600 
Q 359 -1600 359 -1544 
Q 359 -1516 372 -1503 
Q 1466 -434 1466 1600 
Q 1466 3634 384 4691 
Q 359 4706 359 4744 
Q 359 4766 376 4783 
Q 394 4800 416 4800 
L 475 4800 
Q 494 4800 506 4788 
Q 966 4425 1272 3906 
Q 1578 3388 1720 2800 
Q 1863 2213 1863 1600 
Q 1863 1147 1786 708 
Q 1709 269 1542 -157 
Q 1375 -584 1119 -945 
Q 863 -1306 506 -1588 
Q 494 -1600 475 -1600 
L 416 -1600 
z
" transform="scale(0.015625)"/>
       <path id="Cmr10-3d" d="M 481 850 
Q 428 850 393 890 
Q 359 931 359 978 
Q 359 1031 393 1068 
Q 428 1106 481 1106 
L 4500 1106 
Q 4547 1106 4581 1068 
Q 4616 1031 4616 978 
Q 4616 931 4581 890 
Q 4547 850 4500 850 
L 481 850 
z
M 481 2094 
Q 428 2094 393 2131 
Q 359 2169 359 2222 
Q 359 2269 393 2309 
Q 428 2350 481 2350 
L 4500 2350 
Q 4547 2350 4581 2309 
Q 4616 2269 4616 2222 
Q 4616 2169 4581 2131 
Q 4547 2094 4500 2094 
L 481 2094 
z
" transform="scale(0.015625)"/>
       <path id="Cmr10-32" d="M 319 0 
L 319 172 
Q 319 188 331 206 
L 1325 1306 
Q 1550 1550 1690 1715 
Q 1831 1881 1968 2097 
Q 2106 2313 2186 2536 
Q 2266 2759 2266 3009 
Q 2266 3272 2169 3511 
Q 2072 3750 1880 3894 
Q 1688 4038 1416 4038 
Q 1138 4038 916 3870 
Q 694 3703 603 3438 
Q 628 3444 672 3444 
Q 816 3444 917 3347 
Q 1019 3250 1019 3097 
Q 1019 2950 917 2848 
Q 816 2747 672 2747 
Q 522 2747 420 2851 
Q 319 2956 319 3097 
Q 319 3338 409 3548 
Q 500 3759 670 3923 
Q 841 4088 1055 4175 
Q 1269 4263 1509 4263 
Q 1875 4263 2190 4108 
Q 2506 3953 2690 3670 
Q 2875 3388 2875 3009 
Q 2875 2731 2753 2481 
Q 2631 2231 2440 2026 
Q 2250 1822 1953 1562 
Q 1656 1303 1563 1216 
L 838 519 
L 1453 519 
Q 1906 519 2211 526 
Q 2516 534 2534 550 
Q 2609 631 2688 1141 
L 2875 1141 
L 2694 0 
L 319 0 
z
" transform="scale(0.015625)"/>
      </defs>
      <use xlink:href="#Cmmi10-66" transform="translate(0 0.109375)"/>
      <use xlink:href="#Cmr10-28" transform="translate(48.876953 0.109375)"/>
      <use xlink:href="#Cmmi10-78" transform="translate(87.695312 0.109375)"/>
      <use xlink:href="#Cmr10-29" transform="translate(144.775391 0.109375)"/>
      <use xlink:href="#Cmr10-3d" transform="translate(201.152344 0.109375)"/>
      <use xlink:href="#Cmmi10-78" transform="translate(296.396484 0.109375)"/>
      <use xlink:href="#Cmr10-32" transform="translate(359.779844 38.373438) scale(0.7)"/>
     </g>
    </g>
    <g id="line2d_30">
     <path d="M 155.919219 43.089219 
L 165.919219 43.089219 
L 175.919219 43.089219 
" style="fill: none; stroke: #d1242f; stroke-width: 2.2; stroke-linecap: square"/>
    </g>
    <g id="text_15">
     <!-- $g(x)=x+2$ -->
     <g transform="translate(183.919219 46.589219) scale(0.1 -0.1)">
      <defs>
       <path id="Cmmi10-67" d="M 91 -916 
Q 91 -759 198 -642 
Q 306 -525 459 -525 
Q 563 -525 633 -589 
Q 703 -653 703 -756 
Q 703 -872 637 -964 
Q 572 -1056 469 -1094 
Q 641 -1147 1006 -1147 
Q 1300 -1147 1544 -920 
Q 1788 -694 1863 -397 
L 2047 353 
Q 1700 0 1325 0 
Q 1050 0 854 140 
Q 659 281 556 515 
Q 453 750 453 1013 
Q 453 1306 573 1628 
Q 694 1950 911 2225 
Q 1128 2500 1409 2664 
Q 1691 2828 2003 2828 
Q 2191 2828 2341 2725 
Q 2491 2622 2578 2450 
Q 2641 2700 2853 2700 
Q 2934 2700 2990 2651 
Q 3047 2603 3047 2522 
Q 3047 2503 3045 2493 
Q 3044 2484 3041 2472 
L 2309 -434 
Q 2259 -634 2125 -800 
Q 1991 -966 1809 -1077 
Q 1628 -1188 1412 -1250 
Q 1197 -1313 997 -1313 
Q 631 -1313 361 -1242 
Q 91 -1172 91 -916 
z
M 1338 166 
Q 1747 166 2144 728 
L 2497 2125 
Q 2453 2347 2322 2505 
Q 2191 2663 1991 2663 
Q 1778 2663 1589 2489 
Q 1400 2316 1275 2075 
Q 1156 1844 1045 1411 
Q 934 978 934 728 
Q 934 509 1034 337 
Q 1134 166 1338 166 
z
" transform="scale(0.015625)"/>
       <path id="Cmr10-2b" d="M 481 1472 
Q 428 1472 393 1512 
Q 359 1553 359 1600 
Q 359 1647 393 1687 
Q 428 1728 481 1728 
L 2363 1728 
L 2363 3616 
Q 2363 3666 2400 3698 
Q 2438 3731 2491 3731 
Q 2538 3731 2578 3698 
Q 2619 3666 2619 3616 
L 2619 1728 
L 4500 1728 
Q 4547 1728 4581 1687 
Q 4616 1647 4616 1600 
Q 4616 1553 4581 1512 
Q 4547 1472 4500 1472 
L 2619 1472 
L 2619 -416 
Q 2619 -466 2578 -498 
Q 2538 -531 2491 -531 
Q 2438 -531 2400 -498 
Q 2363 -466 2363 -416 
L 2363 1472 
L 481 1472 
z
" transform="scale(0.015625)"/>
      </defs>
      <use xlink:href="#Cmmi10-67"/>
      <use xlink:href="#Cmr10-28" transform="translate(47.705078 0)"/>
      <use xlink:href="#Cmmi10-78" transform="translate(86.523438 0)"/>
      <use xlink:href="#Cmr10-29" transform="translate(143.603516 0)"/>
      <use xlink:href="#Cmr10-3d" transform="translate(199.980469 0)"/>
      <use xlink:href="#Cmmi10-78" transform="translate(295.224609 0)"/>
      <use xlink:href="#Cmr10-2b" transform="translate(369.863281 0)"/>
      <use xlink:href="#Cmr10-32" transform="translate(465.107422 0)"/>
     </g>
    </g>
   </g>
  </g>
 </g>
 <defs>
  <clipPath id="pc4d4ea7855">
   <rect x="45.059219" y="13.990781" width="301.32" height="221.76"/>
  </clipPath>
 </defs>
</svg>
