<?xml version="1.0" encoding="utf-8" standalone="no"?>
<!DOCTYPE svg PUBLIC "-//W3C//DTD SVG 1.1//EN"
  "http://www.w3.org/Graphics/SVG/1.1/DTD/svg11.dtd">
<svg xmlns:xlink="http://www.w3.org/1999/xlink" width="353.579219pt" height="290.201906pt" viewBox="0 0 353.579219 290.201906" xmlns="http://www.w3.org/2000/svg" version="1.1">
 <metadata>
  <rdf:RDF xmlns:dc="http://purl.org/dc/elements/1.1/" xmlns:cc="http://creativecommons.org/ns#" xmlns:rdf="http://www.w3.org/1999/02/22-rdf-syntax-ns#">
   <cc:Work>
    <dc:type rdf:resource="http://purl.org/dc/dcmitype/StillImage"/>
    <dc:date>2026-06-07T17:27:02.630230</dc:date>
    <dc:format>image/svg+xml</dc:format>
    <dc:creator>
     <cc:Agent>
      <dc:title>Matplotlib v3.10.8, https://matplotlib.org/</dc:title>
     </cc:Agent>
    </dc:creator>
   </cc:Work>
  </rdf:RDF>
 </metadata>
 <defs>
  <style type="text/css">*{stroke-linejoin: round; stroke-linecap: butt}</style>
 </defs>
 <g id="figure_1">
  <g id="patch_1">
   <path d="M 0 290.201906 
L 353.579219 290.201906 
L 353.579219 0 
L 0 0 
z
" style="fill: #ffffff"/>
  </g>
  <g id="axes_1">
   <g id="patch_2">
    <path d="M 45.059219 246.838781 
L 346.379219 246.838781 
L 346.379219 13.990781 
L 45.059219 13.990781 
z
" style="fill: #ffffff"/>
   </g>
   <g id="matplotlib.axis_1">
    <g id="xtick_1">
     <g id="line2d_1">
      <path d="M 64.710523 246.838781 
L 64.710523 13.990781 
" clip-path="url(#pebdb2c1688)" style="fill: none; stroke-dasharray: 0.7,1.155; stroke-dashoffset: 0; stroke: #cccccc; stroke-width: 0.7"/>
     </g>
     <g id="line2d_2">
      <defs>
       <path id="m61eaccf3d6" d="M 0 0 
L 0 3.5 
" style="stroke: #000000; stroke-width: 0.8"/>
      </defs>
      <g>
       <use xlink:href="#m61eaccf3d6" x="64.710523" y="246.838781" style="stroke: #000000; stroke-width: 0.8"/>
      </g>
     </g>
     <g id="text_1">
      <!-- −2 -->
      <g transform="translate(55.128101 263.71675) scale(0.13 -0.13)">
       <defs>
        <path id="DejaVuSans-2212" d="M 678 2272 
L 4684 2272 
L 4684 1741 
L 678 1741 
L 678 2272 
z
" transform="scale(0.015625)"/>
        <path id="DejaVuSans-32" d="M 1228 531 
L 3431 531 
L 3431 0 
L 469 0 
L 469 531 
Q 828 903 1448 1529 
Q 2069 2156 2228 2338 
Q 2531 2678 2651 2914 
Q 2772 3150 2772 3378 
Q 2772 3750 2511 3984 
Q 2250 4219 1831 4219 
Q 1534 4219 1204 4116 
Q 875 4013 500 3803 
L 500 4441 
Q 881 4594 1212 4672 
Q 1544 4750 1819 4750 
Q 2544 4750 2975 4387 
Q 3406 4025 3406 3419 
Q 3406 3131 3298 2873 
Q 3191 2616 2906 2266 
Q 2828 2175 2409 1742 
Q 1991 1309 1228 531 
z
" transform="scale(0.015625)"/>
       </defs>
       <use xlink:href="#DejaVuSans-2212"/>
       <use xlink:href="#DejaVuSans-32" transform="translate(83.789062 0)"/>
      </g>
     </g>
    </g>
    <g id="xtick_2">
     <g id="line2d_3">
      <path d="M 130.214871 246.838781 
L 130.214871 13.990781 
" clip-path="url(#pebdb2c1688)" style="fill: none; stroke-dasharray: 0.7,1.155; stroke-dashoffset: 0; stroke: #cccccc; stroke-width: 0.7"/>
     </g>
     <g id="line2d_4">
      <g>
       <use xlink:href="#m61eaccf3d6" x="130.214871" y="246.838781" style="stroke: #000000; stroke-width: 0.8"/>
      </g>
     </g>
     <g id="text_2">
      <!-- −1 -->
      <g transform="translate(120.632449 263.71675) scale(0.13 -0.13)">
       <defs>
        <path id="DejaVuSans-31" d="M 794 531 
L 1825 531 
L 1825 4091 
L 703 3866 
L 703 4441 
L 1819 4666 
L 2450 4666 
L 2450 531 
L 3481 531 
L 3481 0 
L 794 0 
L 794 531 
z
" transform="scale(0.015625)"/>
       </defs>
       <use xlink:href="#DejaVuSans-2212"/>
       <use xlink:href="#DejaVuSans-31" transform="translate(83.789062 0)"/>
      </g>
     </g>
    </g>
    <g id="xtick_3">
     <g id="line2d_5">
      <path d="M 195.719219 246.838781 
L 195.719219 13.990781 
" clip-path="url(#pebdb2c1688)" style="fill: none; stroke-dasharray: 0.7,1.155; stroke-dashoffset: 0; stroke: #cccccc; stroke-width: 0.7"/>
     </g>
     <g id="line2d_6">
      <g>
       <use xlink:href="#m61eaccf3d6" x="195.719219" y="246.838781" style="stroke: #000000; stroke-width: 0.8"/>
      </g>
     </g>
     <g id="text_3">
      <!-- 0 -->
      <g transform="translate(191.583594 263.71675) scale(0.13 -0.13)">
       <defs>
        <path id="DejaVuSans-30" d="M 2034 4250 
Q 1547 4250 1301 3770 
Q 1056 3291 1056 2328 
Q 1056 1369 1301 889 
Q 1547 409 2034 409 
Q 2525 409 2770 889 
Q 3016 1369 3016 2328 
Q 3016 3291 2770 3770 
Q 2525 4250 2034 4250 
z
M 2034 4750 
Q 2819 4750 3233 4129 
Q 3647 3509 3647 2328 
Q 3647 1150 3233 529 
Q 2819 -91 2034 -91 
Q 1250 -91 836 529 
Q 422 1150 422 2328 
Q 422 3509 836 4129 
Q 1250 4750 2034 4750 
z
" transform="scale(0.015625)"/>
       </defs>
       <use xlink:href="#DejaVuSans-30"/>
      </g>
     </g>
    </g>
    <g id="xtick_4">
     <g id="line2d_7">
      <path d="M 261.223567 246.838781 
L 261.223567 13.990781 
" clip-path="url(#pebdb2c1688)" style="fill: none; stroke-dasharray: 0.7,1.155; stroke-dashoffset: 0; stroke: #cccccc; stroke-width: 0.7"/>
     </g>
     <g id="line2d_8">
      <g>
       <use xlink:href="#m61eaccf3d6" x="261.223567" y="246.838781" style="stroke: #000000; stroke-width: 0.8"/>
      </g>
     </g>
     <g id="text_4">
      <!-- 1 -->
      <g transform="translate(257.087942 263.71675) scale(0.13 -0.13)">
       <use xlink:href="#DejaVuSans-31"/>
      </g>
     </g>
    </g>
    <g id="xtick_5">
     <g id="line2d_9">
      <path d="M 326.727914 246.838781 
L 326.727914 13.990781 
" clip-path="url(#pebdb2c1688)" style="fill: none; stroke-dasharray: 0.7,1.155; stroke-dashoffset: 0; stroke: #cccccc; stroke-width: 0.7"/>
     </g>
     <g id="line2d_10">
      <g>
       <use xlink:href="#m61eaccf3d6" x="326.727914" y="246.838781" style="stroke: #000000; stroke-width: 0.8"/>
      </g>
     </g>
     <g id="text_5">
      <!-- 2 -->
      <g transform="translate(322.592289 263.71675) scale(0.13 -0.13)">
       <use xlink:href="#DejaVuSans-32"/>
      </g>
     </g>
    </g>
    <g id="text_6">
     <!-- x -->
     <g transform="translate(338.684844 280.298312) scale(0.13 -0.13)">
      <defs>
       <path id="DejaVuSans-78" d="M 3513 3500 
L 2247 1797 
L 3578 0 
L 2900 0 
L 1881 1375 
L 863 0 
L 184 0 
L 1544 1831 
L 300 3500 
L 978 3500 
L 1906 2253 
L 2834 3500 
L 3513 3500 
z
" transform="scale(0.015625)"/>
      </defs>
      <use xlink:href="#DejaVuSans-78"/>
     </g>
    </g>
   </g>
   <g id="matplotlib.axis_2">
    <g id="ytick_1">
     <g id="line2d_11">
      <path d="M 45.059219 239.562281 
L 346.379219 239.562281 
" clip-path="url(#pebdb2c1688)" style="fill: none; stroke-dasharray: 0.7,1.155; stroke-dashoffset: 0; stroke: #cccccc; stroke-width: 0.7"/>
     </g>
     <g id="line2d_12">
      <defs>
       <path id="maa7bbb3e36" d="M 0 0 
L -3.5 0 
" style="stroke: #000000; stroke-width: 0.8"/>
      </defs>
      <g>
       <use xlink:href="#maa7bbb3e36" x="45.059219" y="239.562281" style="stroke: #000000; stroke-width: 0.8"/>
      </g>
     </g>
     <g id="text_7">
      <!-- −3 -->
      <g transform="translate(18.894375 244.501266) scale(0.13 -0.13)">
       <defs>
        <path id="DejaVuSans-33" d="M 2597 2516 
Q 3050 2419 3304 2112 
Q 3559 1806 3559 1356 
Q 3559 666 3084 287 
Q 2609 -91 1734 -91 
Q 1441 -91 1130 -33 
Q 819 25 488 141 
L 488 750 
Q 750 597 1062 519 
Q 1375 441 1716 441 
Q 2309 441 2620 675 
Q 2931 909 2931 1356 
Q 2931 1769 2642 2001 
Q 2353 2234 1838 2234 
L 1294 2234 
L 1294 2753 
L 1863 2753 
Q 2328 2753 2575 2939 
Q 2822 3125 2822 3475 
Q 2822 3834 2567 4026 
Q 2313 4219 1838 4219 
Q 1578 4219 1281 4162 
Q 984 4106 628 3988 
L 628 4550 
Q 988 4650 1302 4700 
Q 1616 4750 1894 4750 
Q 2613 4750 3031 4423 
Q 3450 4097 3450 3541 
Q 3450 3153 3228 2886 
Q 3006 2619 2597 2516 
z
" transform="scale(0.015625)"/>
       </defs>
       <use xlink:href="#DejaVuSans-2212"/>
       <use xlink:href="#DejaVuSans-33" transform="translate(83.789062 0)"/>
      </g>
     </g>
    </g>
    <g id="ytick_2">
     <g id="line2d_13">
      <path d="M 45.059219 203.179781 
L 346.379219 203.179781 
" clip-path="url(#pebdb2c1688)" style="fill: none; stroke-dasharray: 0.7,1.155; stroke-dashoffset: 0; stroke: #cccccc; stroke-width: 0.7"/>
     </g>
     <g id="line2d_14">
      <g>
       <use xlink:href="#maa7bbb3e36" x="45.059219" y="203.179781" style="stroke: #000000; stroke-width: 0.8"/>
      </g>
     </g>
     <g id="text_8">
      <!-- −2 -->
      <g transform="translate(18.894375 208.118766) scale(0.13 -0.13)">
       <use xlink:href="#DejaVuSans-2212"/>
       <use xlink:href="#DejaVuSans-32" transform="translate(83.789062 0)"/>
      </g>
     </g>
    </g>
    <g id="ytick_3">
     <g id="line2d_15">
      <path d="M 45.059219 166.797281 
L 346.379219 166.797281 
" clip-path="url(#pebdb2c1688)" style="fill: none; stroke-dasharray: 0.7,1.155; stroke-dashoffset: 0; stroke: #cccccc; stroke-width: 0.7"/>
     </g>
     <g id="line2d_16">
      <g>
       <use xlink:href="#maa7bbb3e36" x="45.059219" y="166.797281" style="stroke: #000000; stroke-width: 0.8"/>
      </g>
     </g>
     <g id="text_9">
      <!-- −1 -->
      <g transform="translate(18.894375 171.736266) scale(0.13 -0.13)">
       <use xlink:href="#DejaVuSans-2212"/>
       <use xlink:href="#DejaVuSans-31" transform="translate(83.789062 0)"/>
      </g>
     </g>
    </g>
    <g id="ytick_4">
     <g id="line2d_17">
      <path d="M 45.059219 130.414781 
L 346.379219 130.414781 
" clip-path="url(#pebdb2c1688)" style="fill: none; stroke-dasharray: 0.7,1.155; stroke-dashoffset: 0; stroke: #cccccc; stroke-width: 0.7"/>
     </g>
     <g id="line2d_18">
      <g>
       <use xlink:href="#maa7bbb3e36" x="45.059219" y="130.414781" style="stroke: #000000; stroke-width: 0.8"/>
      </g>
     </g>
     <g id="text_10">
      <!-- 0 -->
      <g transform="translate(29.787969 135.353766) scale(0.13 -0.13)">
       <use xlink:href="#DejaVuSans-30"/>
      </g>
     </g>
    </g>
    <g id="ytick_5">
     <g id="line2d_19">
      <path d="M 45.059219 94.032281 
L 346.379219 94.032281 
" clip-path="url(#pebdb2c1688)" style="fill: none; stroke-dasharray: 0.7,1.155; stroke-dashoffset: 0; stroke: #cccccc; stroke-width: 0.7"/>
     </g>
     <g id="line2d_20">
      <g>
       <use xlink:href="#maa7bbb3e36" x="45.059219" y="94.032281" style="stroke: #000000; stroke-width: 0.8"/>
      </g>
     </g>
     <g id="text_11">
      <!-- 1 -->
      <g transform="translate(29.787969 98.971266) scale(0.13 -0.13)">
       <use xlink:href="#DejaVuSans-31"/>
      </g>
     </g>
    </g>
    <g id="ytick_6">
     <g id="line2d_21">
      <path d="M 45.059219 57.649781 
L 346.379219 57.649781 
" clip-path="url(#pebdb2c1688)" style="fill: none; stroke-dasharray: 0.7,1.155; stroke-dashoffset: 0; stroke: #cccccc; stroke-width: 0.7"/>
     </g>
     <g id="line2d_22">
      <g>
       <use xlink:href="#maa7bbb3e36" x="45.059219" y="57.649781" style="stroke: #000000; stroke-width: 0.8"/>
      </g>
     </g>
     <g id="text_12">
      <!-- 2 -->
      <g transform="translate(29.787969 62.588766) scale(0.13 -0.13)">
       <use xlink:href="#DejaVuSans-32"/>
      </g>
     </g>
    </g>
    <g id="ytick_7">
     <g id="line2d_23">
      <path d="M 45.059219 21.267281 
L 346.379219 21.267281 
" clip-path="url(#pebdb2c1688)" style="fill: none; stroke-dasharray: 0.7,1.155; stroke-dashoffset: 0; stroke: #cccccc; stroke-width: 0.7"/>
     </g>
     <g id="line2d_24">
      <g>
       <use xlink:href="#maa7bbb3e36" x="45.059219" y="21.267281" style="stroke: #000000; stroke-width: 0.8"/>
      </g>
     </g>
     <g id="text_13">
      <!-- 3 -->
      <g transform="translate(29.787969 26.206266) scale(0.13 -0.13)">
       <use xlink:href="#DejaVuSans-33"/>
      </g>
     </g>
    </g>
    <g id="text_14">
     <!-- y -->
     <g transform="translate(7.2 11.287187) scale(0.13 -0.13)">
      <defs>
       <path id="DejaVuSans-79" d="M 2059 -325 
Q 1816 -950 1584 -1140 
Q 1353 -1331 966 -1331 
L 506 -1331 
L 506 -850 
L 844 -850 
Q 1081 -850 1212 -737 
Q 1344 -625 1503 -206 
L 1606 56 
L 191 3500 
L 800 3500 
L 1894 763 
L 2988 3500 
L 3597 3500 
L 2059 -325 
z
" transform="scale(0.015625)"/>
      </defs>
      <use xlink:href="#DejaVuSans-79"/>
     </g>
    </g>
   </g>
   <g id="line2d_25">
    <path d="M 45.059219 130.414781 
L 346.379219 130.414781 
" clip-path="url(#pebdb2c1688)" style="fill: none; stroke: #333333; stroke-linecap: square"/>
   </g>
   <g id="line2d_26">
    <path d="M 195.719219 246.838781 
L 195.719219 13.990781 
" clip-path="url(#pebdb2c1688)" style="fill: none; stroke: #333333; stroke-linecap: square"/>
   </g>
   <g id="line2d_27">
    <path d="M 49.538025 291.201906 
L 53.121292 268.146423 
L 57.152329 243.923793 
L 60.175607 226.907216 
L 63.198884 210.852846 
L 66.222162 195.739221 
L 69.245439 181.544879 
L 72.268717 168.248358 
L 75.291995 155.828198 
L 78.315272 144.262934 
L 81.33855 133.531107 
L 84.361827 123.611254 
L 87.385105 114.481912 
L 90.408383 106.121621 
L 93.43166 98.508919 
L 96.454938 91.622342 
L 99.478215 85.440431 
L 102.501493 79.941722 
L 104.517011 76.644874 
L 106.53253 73.635775 
L 108.548048 70.908064 
L 110.563567 68.455384 
L 112.579085 66.271374 
L 114.594603 64.349676 
L 116.610122 62.68393 
L 118.62564 61.267778 
L 120.641159 60.094861 
L 122.656677 59.158819 
L 124.672195 58.453293 
L 126.687714 57.971925 
L 128.703232 57.708354 
L 130.718751 57.656223 
L 132.734269 57.809172 
L 134.749787 58.160842 
L 136.765306 58.704874 
L 138.780824 59.434908 
L 140.796342 60.344587 
L 142.811861 61.42755 
L 145.835138 63.362993 
L 148.858416 65.652557 
L 151.881694 68.274779 
L 154.904971 71.208199 
L 157.928249 74.431354 
L 160.951526 77.922783 
L 164.982563 82.95824 
L 169.0136 88.3816 
L 173.044637 94.141992 
L 178.083433 101.738929 
L 184.129988 111.305556 
L 192.192062 124.543288 
L 208.316209 151.145934 
L 214.362764 160.641021 
L 219.40156 168.156483 
L 223.432597 173.837386 
L 227.463633 179.16854 
L 231.49467 184.099073 
L 234.517948 187.503461 
L 237.541225 190.632422 
L 240.564503 193.464495 
L 243.587781 195.978216 
L 246.611058 198.152124 
L 249.634336 199.964757 
L 251.649854 200.961873 
L 253.665373 201.782524 
L 255.680891 202.420352 
L 257.696409 202.868998 
L 259.711928 203.122102 
L 261.727446 203.173306 
L 263.742965 203.01625 
L 265.758483 202.644576 
L 267.774001 202.051924 
L 269.78952 201.231935 
L 271.805038 200.17825 
L 273.820557 198.88451 
L 275.836075 197.344356 
L 277.851593 195.551429 
L 279.867112 193.49937 
L 281.88263 191.18182 
L 283.898149 188.592419 
L 285.913667 185.724809 
L 287.929185 182.572631 
L 289.944704 179.129525 
L 292.967981 173.405466 
L 295.991259 166.991051 
L 299.014536 159.864817 
L 302.037814 152.005303 
L 305.061092 143.391046 
L 308.084369 134.000585 
L 311.107647 123.812459 
L 314.130924 112.805204 
L 317.154202 100.95736 
L 320.17748 88.247464 
L 323.200757 74.654054 
L 326.224035 60.155669 
L 329.247312 44.730847 
L 332.27059 28.358126 
L 335.293868 11.016044 
L 337.293805 -1 
L 337.293805 -1 
" clip-path="url(#pebdb2c1688)" style="fill: none; stroke: #1f6feb; stroke-width: 2.3; stroke-linecap: square"/>
   </g>
   <g id="line2d_28">
    <defs>
     <path id="m093c96c717" d="M 0 3 
C 0.795609 3 1.55874 2.683901 2.12132 2.12132 
C 2.683901 1.55874 3 0.795609 3 0 
C 3 -0.795609 2.683901 -1.55874 2.12132 -2.12132 
C 1.55874 -2.683901 0.795609 -3 0 -3 
C -0.795609 -3 -1.55874 -2.683901 -2.12132 -2.12132 
C -2.683901 -1.55874 -3 -0.795609 -3 0 
C -3 0.795609 -2.683901 1.55874 -2.12132 2.12132 
C -1.55874 2.683901 -0.795609 3 0 3 
z
" style="stroke: #d1242f"/>
    </defs>
    <g clip-path="url(#pebdb2c1688)">
     <use xlink:href="#m093c96c717" x="130.214871" y="57.649781" style="fill: #d1242f; stroke: #d1242f"/>
    </g>
   </g>
   <g id="line2d_29">
    <defs>
     <path id="mb3c75c03d0" d="M 0 3 
C 0.795609 3 1.55874 2.683901 2.12132 2.12132 
C 2.683901 1.55874 3 0.795609 3 0 
C 3 -0.795609 2.683901 -1.55874 2.12132 -2.12132 
C 1.55874 -2.683901 0.795609 -3 0 -3 
C -0.795609 -3 -1.55874 -2.683901 -2.12132 -2.12132 
C -2.683901 -1.55874 -3 -0.795609 -3 0 
C -3 0.795609 -2.683901 1.55874 -2.12132 2.12132 
C -1.55874 2.683901 -0.795609 3 0 3 
z
" style="stroke: #1a7f37"/>
    </defs>
    <g clip-path="url(#pebdb2c1688)">
     <use xlink:href="#mb3c75c03d0" x="261.223567" y="203.179781" style="fill: #1a7f37; stroke: #1a7f37"/>
    </g>
   </g>
   <g id="line2d_30">
    <defs>
     <path id="m41e9b6a701" d="M -3 3 
L 3 3 
L 3 -3 
L -3 -3 
z
" style="stroke: #e36209; stroke-linejoin: miter"/>
    </defs>
    <g clip-path="url(#pebdb2c1688)">
     <use xlink:href="#m41e9b6a701" x="195.719219" y="130.414781" style="fill: #e36209; stroke: #e36209; stroke-linejoin: miter"/>
    </g>
   </g>
   <g id="text_15">
    <!-- HP(-1|2) -->
    <g style="fill: #d1242f" transform="translate(71.260958 50.373281) scale(0.1 -0.1)">
     <defs>
      <path id="DejaVuSans-48" d="M 628 4666 
L 1259 4666 
L 1259 2753 
L 3553 2753 
L 3553 4666 
L 4184 4666 
L 4184 0 
L 3553 0 
L 3553 2222 
L 1259 2222 
L 1259 0 
L 628 0 
L 628 4666 
z
" transform="scale(0.015625)"/>
      <path id="DejaVuSans-50" d="M 1259 4147 
L 1259 2394 
L 2053 2394 
Q 2494 2394 2734 2622 
Q 2975 2850 2975 3272 
Q 2975 3691 2734 3919 
Q 2494 4147 2053 4147 
L 1259 4147 
z
M 628 4666 
L 2053 4666 
Q 2838 4666 3239 4311 
Q 3641 3956 3641 3272 
Q 3641 2581 3239 2228 
Q 2838 1875 2053 1875 
L 1259 1875 
L 1259 0 
L 628 0 
L 628 4666 
z
" transform="scale(0.015625)"/>
      <path id="DejaVuSans-28" d="M 1984 4856 
Q 1566 4138 1362 3434 
Q 1159 2731 1159 2009 
Q 1159 1288 1364 580 
Q 1569 -128 1984 -844 
L 1484 -844 
Q 1016 -109 783 600 
Q 550 1309 550 2009 
Q 550 2706 781 3412 
Q 1013 4119 1484 4856 
L 1984 4856 
z
" transform="scale(0.015625)"/>
      <path id="DejaVuSans-2d" d="M 313 2009 
L 1997 2009 
L 1997 1497 
L 313 1497 
L 313 2009 
z
" transform="scale(0.015625)"/>
      <path id="DejaVuSans-7c" d="M 1344 4891 
L 1344 -1509 
L 813 -1509 
L 813 4891 
L 1344 4891 
z
" transform="scale(0.015625)"/>
      <path id="DejaVuSans-29" d="M 513 4856 
L 1013 4856 
Q 1481 4119 1714 3412 
Q 1947 2706 1947 2009 
Q 1947 1309 1714 600 
Q 1481 -109 1013 -844 
L 513 -844 
Q 928 -128 1133 580 
Q 1338 1288 1338 2009 
Q 1338 2731 1133 3434 
Q 928 4138 513 4856 
z
" transform="scale(0.015625)"/>
     </defs>
     <use xlink:href="#DejaVuSans-48"/>
     <use xlink:href="#DejaVuSans-50" transform="translate(75.195312 0)"/>
     <use xlink:href="#DejaVuSans-28" transform="translate(135.498047 0)"/>
     <use xlink:href="#DejaVuSans-2d" transform="translate(174.511719 0)"/>
     <use xlink:href="#DejaVuSans-31" transform="translate(210.595703 0)"/>
     <use xlink:href="#DejaVuSans-7c" transform="translate(274.21875 0)"/>
     <use xlink:href="#DejaVuSans-32" transform="translate(307.910156 0)"/>
     <use xlink:href="#DejaVuSans-29" transform="translate(371.533203 0)"/>
    </g>
   </g>
   <g id="text_16">
    <!-- TP(1|-2) -->
    <g style="fill: #1a7f37" transform="translate(264.498784 221.371031) scale(0.1 -0.1)">
     <defs>
      <path id="DejaVuSans-54" d="M -19 4666 
L 3928 4666 
L 3928 4134 
L 2272 4134 
L 2272 0 
L 1638 0 
L 1638 4134 
L -19 4134 
L -19 4666 
z
" transform="scale(0.015625)"/>
     </defs>
     <use xlink:href="#DejaVuSans-54"/>
     <use xlink:href="#DejaVuSans-50" transform="translate(61.083984 0)"/>
     <use xlink:href="#DejaVuSans-28" transform="translate(121.386719 0)"/>
     <use xlink:href="#DejaVuSans-31" transform="translate(160.400391 0)"/>
     <use xlink:href="#DejaVuSans-7c" transform="translate(224.023438 0)"/>
     <use xlink:href="#DejaVuSans-2d" transform="translate(257.714844 0)"/>
     <use xlink:href="#DejaVuSans-32" transform="translate(293.798828 0)"/>
     <use xlink:href="#DejaVuSans-29" transform="translate(357.421875 0)"/>
    </g>
   </g>
   <g id="text_17">
    <!-- WP(0|0) -->
    <g style="fill: #e36209" transform="translate(202.269654 119.500031) scale(0.1 -0.1)">
     <defs>
      <path id="DejaVuSans-57" d="M 213 4666 
L 850 4666 
L 1831 722 
L 2809 4666 
L 3519 4666 
L 4500 722 
L 5478 4666 
L 6119 4666 
L 4947 0 
L 4153 0 
L 3169 4050 
L 2175 0 
L 1381 0 
L 213 4666 
z
" transform="scale(0.015625)"/>
     </defs>
     <use xlink:href="#DejaVuSans-57"/>
     <use xlink:href="#DejaVuSans-50" transform="translate(98.876953 0)"/>
     <use xlink:href="#DejaVuSans-28" transform="translate(159.179688 0)"/>
     <use xlink:href="#DejaVuSans-30" transform="translate(198.193359 0)"/>
     <use xlink:href="#DejaVuSans-7c" transform="translate(261.816406 0)"/>
     <use xlink:href="#DejaVuSans-30" transform="translate(295.507812 0)"/>
     <use xlink:href="#DejaVuSans-29" transform="translate(359.130859 0)"/>
    </g>
   </g>
  </g>
 </g>
 <defs>
  <clipPath id="pebdb2c1688">
   <rect x="45.059219" y="13.990781" width="301.32" height="232.848"/>
  </clipPath>
 </defs>
</svg>
