<?xml version="1.0" encoding="utf-8" standalone="no"?>
<!DOCTYPE svg PUBLIC "-//W3C//DTD SVG 1.1//EN"
  "http://www.w3.org/Graphics/SVG/1.1/DTD/svg11.dtd">
<svg xmlns:xlink="http://www.w3.org/1999/xlink" width="483.12pt" height="205.51625pt" viewBox="0 0 483.12 205.51625" xmlns="http://www.w3.org/2000/svg" version="1.1">
 <metadata>
  <rdf:RDF xmlns:dc="http://purl.org/dc/elements/1.1/" xmlns:cc="http://creativecommons.org/ns#" xmlns:rdf="http://www.w3.org/1999/02/22-rdf-syntax-ns#">
   <cc:Work>
    <dc:type rdf:resource="http://purl.org/dc/dcmitype/StillImage"/>
    <dc:date>2026-06-07T17:28:18.582739</dc:date>
    <dc:format>image/svg+xml</dc:format>
    <dc:creator>
     <cc:Agent>
      <dc:title>Matplotlib v3.10.8, https://matplotlib.org/</dc:title>
     </cc:Agent>
    </dc:creator>
   </cc:Work>
  </rdf:RDF>
 </metadata>
 <defs>
  <style type="text/css">*{stroke-linejoin: round; stroke-linecap: butt}</style>
 </defs>
 <g id="figure_1">
  <g id="patch_1">
   <path d="M 0 205.51625 
L 483.12 205.51625 
L 483.12 0 
L 0 0 
z
" style="fill: #ffffff"/>
  </g>
  <g id="axes_1">
   <g id="patch_2">
    <path d="M 7.2 198.31625 
L 145.058824 198.31625 
L 145.058824 31.99625 
L 7.2 31.99625 
z
" style="fill: #ffffff"/>
   </g>
   <g id="matplotlib.axis_1"/>
   <g id="matplotlib.axis_2"/>
   <g id="line2d_1">
    <path d="M 13.46631 152.95625 
L 16.023988 150.641964 
L 18.581665 148.327679 
L 21.139343 146.013393 
L 23.697021 143.699107 
L 26.254698 141.384821 
L 28.812376 139.070536 
L 31.370053 136.75625 
L 33.927731 134.441964 
L 36.485409 132.127679 
L 39.043086 129.813393 
L 41.600764 127.499107 
L 44.158442 125.184821 
L 46.716119 122.870536 
L 49.273797 120.55625 
L 51.831474 118.241964 
L 54.389152 115.927679 
L 56.94683 113.613393 
L 59.504507 111.299107 
L 62.062185 108.984821 
L 64.619862 106.670536 
L 67.17754 104.35625 
L 69.735218 102.041964 
L 72.292895 99.727679 
L 74.850573 97.413393 
L 77.408251 95.099107 
L 79.965928 92.784821 
L 82.523606 90.470536 
L 85.081283 88.15625 
L 87.638961 85.841964 
L 90.196639 83.527679 
L 92.754316 81.213393 
L 95.311994 78.899107 
L 97.869672 76.584821 
L 100.427349 74.270536 
L 102.985027 71.95625 
L 105.542704 69.641964 
L 108.100382 67.327679 
L 110.65806 65.013393 
L 113.215737 62.699107 
L 115.773415 60.384821 
L 118.331092 58.070536 
L 120.88877 55.75625 
L 123.446448 53.441964 
L 126.004125 51.127679 
L 128.561803 48.813393 
L 131.119481 46.499107 
L 133.677158 44.184821 
L 136.234836 41.870536 
L 138.792513 39.55625 
" clip-path="url(#p301ba9ae72)" style="fill: none; stroke: #1f6feb; stroke-width: 2.2; stroke-linecap: square"/>
   </g>
   <g id="line2d_2">
    <path d="M 13.46631 77.35625 
L 16.023988 79.670536 
L 18.581665 81.984821 
L 21.139343 84.299107 
L 23.697021 86.613393 
L 26.254698 88.927679 
L 28.812376 91.241964 
L 31.370053 93.55625 
L 33.927731 95.870536 
L 36.485409 98.184821 
L 39.043086 100.499107 
L 41.600764 102.813393 
L 44.158442 105.127679 
L 46.716119 107.441964 
L 49.273797 109.75625 
L 51.831474 112.070536 
L 54.389152 114.384821 
L 56.94683 116.699107 
L 59.504507 119.013393 
L 62.062185 121.327679 
L 64.619862 123.641964 
L 67.17754 125.95625 
L 69.735218 128.270536 
L 72.292895 130.584821 
L 74.850573 132.899107 
L 77.408251 135.213393 
L 79.965928 137.527679 
L 82.523606 139.841964 
L 85.081283 142.15625 
L 87.638961 144.470536 
L 90.196639 146.784821 
L 92.754316 149.099107 
L 95.311994 151.413393 
L 97.869672 153.727679 
L 100.427349 156.041964 
L 102.985027 158.35625 
L 105.542704 160.670536 
L 108.100382 162.984821 
L 110.65806 165.299107 
L 113.215737 167.613393 
L 115.773415 169.927679 
L 118.331092 172.241964 
L 120.88877 174.55625 
L 123.446448 176.870536 
L 126.004125 179.184821 
L 128.561803 181.499107 
L 131.119481 183.813393 
L 133.677158 186.127679 
L 136.234836 188.441964 
L 138.792513 190.75625 
" clip-path="url(#p301ba9ae72)" style="fill: none; stroke: #d1242f; stroke-width: 2.2; stroke-linecap: square"/>
   </g>
   <g id="line2d_3">
    <defs>
     <path id="me7a3478fb3" d="M 0 3 
C 0.795609 3 1.55874 2.683901 2.12132 2.12132 
C 2.683901 1.55874 3 0.795609 3 0 
C 3 -0.795609 2.683901 -1.55874 2.12132 -2.12132 
C 1.55874 -2.683901 0.795609 -3 0 -3 
C -0.795609 -3 -1.55874 -2.683901 -2.12132 -2.12132 
C -2.683901 -1.55874 -3 -0.795609 -3 0 
C -3 0.795609 -2.683901 1.55874 -2.12132 2.12132 
C -1.55874 2.683901 -0.795609 3 0 3 
z
" style="stroke: #333333"/>
    </defs>
    <g clip-path="url(#p301ba9ae72)">
     <use xlink:href="#me7a3478fb3" x="55.241711" y="115.15625" style="fill: #333333; stroke: #333333"/>
    </g>
   </g>
   <g id="line2d_4">
    <path d="M 7.2 115.15625 
L 145.058824 115.15625 
" clip-path="url(#p301ba9ae72)" style="fill: none; stroke: #bbbbbb; stroke-width: 0.7; stroke-linecap: square"/>
   </g>
   <g id="line2d_5">
    <path d="M 76.129412 198.31625 
L 76.129412 31.99625 
" clip-path="url(#p301ba9ae72)" style="fill: none; stroke: #bbbbbb; stroke-width: 0.7; stroke-linecap: square"/>
   </g>
   <g id="patch_3">
    <path d="M 7.2 198.31625 
L 7.2 31.99625 
" style="fill: none; stroke: #000000; stroke-width: 0.8; stroke-linejoin: miter; stroke-linecap: square"/>
   </g>
   <g id="patch_4">
    <path d="M 7.2 198.31625 
L 145.058824 198.31625 
" style="fill: none; stroke: #000000; stroke-width: 0.8; stroke-linejoin: miter; stroke-linecap: square"/>
   </g>
   <g id="text_1">
    <!-- genau eine Lösung -->
    <g transform="translate(28.713787 14.798438) scale(0.1 -0.1)">
     <defs>
      <path id="DejaVuSans-67" d="M 2906 1791 
Q 2906 2416 2648 2759 
Q 2391 3103 1925 3103 
Q 1463 3103 1205 2759 
Q 947 2416 947 1791 
Q 947 1169 1205 825 
Q 1463 481 1925 481 
Q 2391 481 2648 825 
Q 2906 1169 2906 1791 
z
M 3481 434 
Q 3481 -459 3084 -895 
Q 2688 -1331 1869 -1331 
Q 1566 -1331 1297 -1286 
Q 1028 -1241 775 -1147 
L 775 -588 
Q 1028 -725 1275 -790 
Q 1522 -856 1778 -856 
Q 2344 -856 2625 -561 
Q 2906 -266 2906 331 
L 2906 616 
Q 2728 306 2450 153 
Q 2172 0 1784 0 
Q 1141 0 747 490 
Q 353 981 353 1791 
Q 353 2603 747 3093 
Q 1141 3584 1784 3584 
Q 2172 3584 2450 3431 
Q 2728 3278 2906 2969 
L 2906 3500 
L 3481 3500 
L 3481 434 
z
" transform="scale(0.015625)"/>
      <path id="DejaVuSans-65" d="M 3597 1894 
L 3597 1613 
L 953 1613 
Q 991 1019 1311 708 
Q 1631 397 2203 397 
Q 2534 397 2845 478 
Q 3156 559 3463 722 
L 3463 178 
Q 3153 47 2828 -22 
Q 2503 -91 2169 -91 
Q 1331 -91 842 396 
Q 353 884 353 1716 
Q 353 2575 817 3079 
Q 1281 3584 2069 3584 
Q 2775 3584 3186 3129 
Q 3597 2675 3597 1894 
z
M 3022 2063 
Q 3016 2534 2758 2815 
Q 2500 3097 2075 3097 
Q 1594 3097 1305 2825 
Q 1016 2553 972 2059 
L 3022 2063 
z
" transform="scale(0.015625)"/>
      <path id="DejaVuSans-6e" d="M 3513 2113 
L 3513 0 
L 2938 0 
L 2938 2094 
Q 2938 2591 2744 2837 
Q 2550 3084 2163 3084 
Q 1697 3084 1428 2787 
Q 1159 2491 1159 1978 
L 1159 0 
L 581 0 
L 581 3500 
L 1159 3500 
L 1159 2956 
Q 1366 3272 1645 3428 
Q 1925 3584 2291 3584 
Q 2894 3584 3203 3211 
Q 3513 2838 3513 2113 
z
" transform="scale(0.015625)"/>
      <path id="DejaVuSans-61" d="M 2194 1759 
Q 1497 1759 1228 1600 
Q 959 1441 959 1056 
Q 959 750 1161 570 
Q 1363 391 1709 391 
Q 2188 391 2477 730 
Q 2766 1069 2766 1631 
L 2766 1759 
L 2194 1759 
z
M 3341 1997 
L 3341 0 
L 2766 0 
L 2766 531 
Q 2569 213 2275 61 
Q 1981 -91 1556 -91 
Q 1019 -91 701 211 
Q 384 513 384 1019 
Q 384 1609 779 1909 
Q 1175 2209 1959 2209 
L 2766 2209 
L 2766 2266 
Q 2766 2663 2505 2880 
Q 2244 3097 1772 3097 
Q 1472 3097 1187 3025 
Q 903 2953 641 2809 
L 641 3341 
Q 956 3463 1253 3523 
Q 1550 3584 1831 3584 
Q 2591 3584 2966 3190 
Q 3341 2797 3341 1997 
z
" transform="scale(0.015625)"/>
      <path id="DejaVuSans-75" d="M 544 1381 
L 544 3500 
L 1119 3500 
L 1119 1403 
Q 1119 906 1312 657 
Q 1506 409 1894 409 
Q 2359 409 2629 706 
Q 2900 1003 2900 1516 
L 2900 3500 
L 3475 3500 
L 3475 0 
L 2900 0 
L 2900 538 
Q 2691 219 2414 64 
Q 2138 -91 1772 -91 
Q 1169 -91 856 284 
Q 544 659 544 1381 
z
M 1991 3584 
L 1991 3584 
z
" transform="scale(0.015625)"/>
      <path id="DejaVuSans-20" transform="scale(0.015625)"/>
      <path id="DejaVuSans-69" d="M 603 3500 
L 1178 3500 
L 1178 0 
L 603 0 
L 603 3500 
z
M 603 4863 
L 1178 4863 
L 1178 4134 
L 603 4134 
L 603 4863 
z
" transform="scale(0.015625)"/>
      <path id="DejaVuSans-4c" d="M 628 4666 
L 1259 4666 
L 1259 531 
L 3531 531 
L 3531 0 
L 628 0 
L 628 4666 
z
" transform="scale(0.015625)"/>
      <path id="DejaVuSans-f6" d="M 1959 3097 
Q 1497 3097 1228 2736 
Q 959 2375 959 1747 
Q 959 1119 1226 758 
Q 1494 397 1959 397 
Q 2419 397 2687 759 
Q 2956 1122 2956 1747 
Q 2956 2369 2687 2733 
Q 2419 3097 1959 3097 
z
M 1959 3584 
Q 2709 3584 3137 3096 
Q 3566 2609 3566 1747 
Q 3566 888 3137 398 
Q 2709 -91 1959 -91 
Q 1206 -91 779 398 
Q 353 888 353 1747 
Q 353 2609 779 3096 
Q 1206 3584 1959 3584 
z
M 2254 4850 
L 2888 4850 
L 2888 4219 
L 2254 4219 
L 2254 4850 
z
M 1032 4850 
L 1666 4850 
L 1666 4219 
L 1032 4219 
L 1032 4850 
z
" transform="scale(0.015625)"/>
      <path id="DejaVuSans-73" d="M 2834 3397 
L 2834 2853 
Q 2591 2978 2328 3040 
Q 2066 3103 1784 3103 
Q 1356 3103 1142 2972 
Q 928 2841 928 2578 
Q 928 2378 1081 2264 
Q 1234 2150 1697 2047 
L 1894 2003 
Q 2506 1872 2764 1633 
Q 3022 1394 3022 966 
Q 3022 478 2636 193 
Q 2250 -91 1575 -91 
Q 1294 -91 989 -36 
Q 684 19 347 128 
L 347 722 
Q 666 556 975 473 
Q 1284 391 1588 391 
Q 1994 391 2212 530 
Q 2431 669 2431 922 
Q 2431 1156 2273 1281 
Q 2116 1406 1581 1522 
L 1381 1569 
Q 847 1681 609 1914 
Q 372 2147 372 2553 
Q 372 3047 722 3315 
Q 1072 3584 1716 3584 
Q 2034 3584 2315 3537 
Q 2597 3491 2834 3397 
z
" transform="scale(0.015625)"/>
     </defs>
     <use xlink:href="#DejaVuSans-67"/>
     <use xlink:href="#DejaVuSans-65" transform="translate(63.476562 0)"/>
     <use xlink:href="#DejaVuSans-6e" transform="translate(125 0)"/>
     <use xlink:href="#DejaVuSans-61" transform="translate(188.378906 0)"/>
     <use xlink:href="#DejaVuSans-75" transform="translate(249.658203 0)"/>
     <use xlink:href="#DejaVuSans-20" transform="translate(313.037109 0)"/>
     <use xlink:href="#DejaVuSans-65" transform="translate(344.824219 0)"/>
     <use xlink:href="#DejaVuSans-69" transform="translate(406.347656 0)"/>
     <use xlink:href="#DejaVuSans-6e" transform="translate(434.130859 0)"/>
     <use xlink:href="#DejaVuSans-65" transform="translate(497.509766 0)"/>
     <use xlink:href="#DejaVuSans-20" transform="translate(559.033203 0)"/>
     <use xlink:href="#DejaVuSans-4c" transform="translate(590.820312 0)"/>
     <use xlink:href="#DejaVuSans-f6" transform="translate(644.783203 0)"/>
     <use xlink:href="#DejaVuSans-73" transform="translate(705.964844 0)"/>
     <use xlink:href="#DejaVuSans-75" transform="translate(758.064453 0)"/>
     <use xlink:href="#DejaVuSans-6e" transform="translate(821.443359 0)"/>
     <use xlink:href="#DejaVuSans-67" transform="translate(884.822266 0)"/>
    </g>
    <!-- (Schnittpunkt) -->
    <g transform="translate(40.290349 25.99625) scale(0.1 -0.1)">
     <defs>
      <path id="DejaVuSans-28" d="M 1984 4856 
Q 1566 4138 1362 3434 
Q 1159 2731 1159 2009 
Q 1159 1288 1364 580 
Q 1569 -128 1984 -844 
L 1484 -844 
Q 1016 -109 783 600 
Q 550 1309 550 2009 
Q 550 2706 781 3412 
Q 1013 4119 1484 4856 
L 1984 4856 
z
" transform="scale(0.015625)"/>
      <path id="DejaVuSans-53" d="M 3425 4513 
L 3425 3897 
Q 3066 4069 2747 4153 
Q 2428 4238 2131 4238 
Q 1616 4238 1336 4038 
Q 1056 3838 1056 3469 
Q 1056 3159 1242 3001 
Q 1428 2844 1947 2747 
L 2328 2669 
Q 3034 2534 3370 2195 
Q 3706 1856 3706 1288 
Q 3706 609 3251 259 
Q 2797 -91 1919 -91 
Q 1588 -91 1214 -16 
Q 841 59 441 206 
L 441 856 
Q 825 641 1194 531 
Q 1563 422 1919 422 
Q 2459 422 2753 634 
Q 3047 847 3047 1241 
Q 3047 1584 2836 1778 
Q 2625 1972 2144 2069 
L 1759 2144 
Q 1053 2284 737 2584 
Q 422 2884 422 3419 
Q 422 4038 858 4394 
Q 1294 4750 2059 4750 
Q 2388 4750 2728 4690 
Q 3069 4631 3425 4513 
z
" transform="scale(0.015625)"/>
      <path id="DejaVuSans-63" d="M 3122 3366 
L 3122 2828 
Q 2878 2963 2633 3030 
Q 2388 3097 2138 3097 
Q 1578 3097 1268 2742 
Q 959 2388 959 1747 
Q 959 1106 1268 751 
Q 1578 397 2138 397 
Q 2388 397 2633 464 
Q 2878 531 3122 666 
L 3122 134 
Q 2881 22 2623 -34 
Q 2366 -91 2075 -91 
Q 1284 -91 818 406 
Q 353 903 353 1747 
Q 353 2603 823 3093 
Q 1294 3584 2113 3584 
Q 2378 3584 2631 3529 
Q 2884 3475 3122 3366 
z
" transform="scale(0.015625)"/>
      <path id="DejaVuSans-68" d="M 3513 2113 
L 3513 0 
L 2938 0 
L 2938 2094 
Q 2938 2591 2744 2837 
Q 2550 3084 2163 3084 
Q 1697 3084 1428 2787 
Q 1159 2491 1159 1978 
L 1159 0 
L 581 0 
L 581 4863 
L 1159 4863 
L 1159 2956 
Q 1366 3272 1645 3428 
Q 1925 3584 2291 3584 
Q 2894 3584 3203 3211 
Q 3513 2838 3513 2113 
z
" transform="scale(0.015625)"/>
      <path id="DejaVuSans-74" d="M 1172 4494 
L 1172 3500 
L 2356 3500 
L 2356 3053 
L 1172 3053 
L 1172 1153 
Q 1172 725 1289 603 
Q 1406 481 1766 481 
L 2356 481 
L 2356 0 
L 1766 0 
Q 1100 0 847 248 
Q 594 497 594 1153 
L 594 3053 
L 172 3053 
L 172 3500 
L 594 3500 
L 594 4494 
L 1172 4494 
z
" transform="scale(0.015625)"/>
      <path id="DejaVuSans-70" d="M 1159 525 
L 1159 -1331 
L 581 -1331 
L 581 3500 
L 1159 3500 
L 1159 2969 
Q 1341 3281 1617 3432 
Q 1894 3584 2278 3584 
Q 2916 3584 3314 3078 
Q 3713 2572 3713 1747 
Q 3713 922 3314 415 
Q 2916 -91 2278 -91 
Q 1894 -91 1617 61 
Q 1341 213 1159 525 
z
M 3116 1747 
Q 3116 2381 2855 2742 
Q 2594 3103 2138 3103 
Q 1681 3103 1420 2742 
Q 1159 2381 1159 1747 
Q 1159 1113 1420 752 
Q 1681 391 2138 391 
Q 2594 391 2855 752 
Q 3116 1113 3116 1747 
z
" transform="scale(0.015625)"/>
      <path id="DejaVuSans-6b" d="M 581 4863 
L 1159 4863 
L 1159 1991 
L 2875 3500 
L 3609 3500 
L 1753 1863 
L 3688 0 
L 2938 0 
L 1159 1709 
L 1159 0 
L 581 0 
L 581 4863 
z
" transform="scale(0.015625)"/>
      <path id="DejaVuSans-29" d="M 513 4856 
L 1013 4856 
Q 1481 4119 1714 3412 
Q 1947 2706 1947 2009 
Q 1947 1309 1714 600 
Q 1481 -109 1013 -844 
L 513 -844 
Q 928 -128 1133 580 
Q 1338 1288 1338 2009 
Q 1338 2731 1133 3434 
Q 928 4138 513 4856 
z
" transform="scale(0.015625)"/>
     </defs>
     <use xlink:href="#DejaVuSans-28"/>
     <use xlink:href="#DejaVuSans-53" transform="translate(39.013672 0)"/>
     <use xlink:href="#DejaVuSans-63" transform="translate(102.490234 0)"/>
     <use xlink:href="#DejaVuSans-68" transform="translate(157.470703 0)"/>
     <use xlink:href="#DejaVuSans-6e" transform="translate(220.849609 0)"/>
     <use xlink:href="#DejaVuSans-69" transform="translate(284.228516 0)"/>
     <use xlink:href="#DejaVuSans-74" transform="translate(312.011719 0)"/>
     <use xlink:href="#DejaVuSans-74" transform="translate(351.220703 0)"/>
     <use xlink:href="#DejaVuSans-70" transform="translate(390.429688 0)"/>
     <use xlink:href="#DejaVuSans-75" transform="translate(453.90625 0)"/>
     <use xlink:href="#DejaVuSans-6e" transform="translate(517.285156 0)"/>
     <use xlink:href="#DejaVuSans-6b" transform="translate(580.664062 0)"/>
     <use xlink:href="#DejaVuSans-74" transform="translate(638.574219 0)"/>
     <use xlink:href="#DejaVuSans-29" transform="translate(677.783203 0)"/>
    </g>
   </g>
  </g>
  <g id="axes_2">
   <g id="patch_5">
    <path d="M 172.630588 198.31625 
L 310.489412 198.31625 
L 310.489412 31.99625 
L 172.630588 31.99625 
z
" style="fill: #ffffff"/>
   </g>
   <g id="matplotlib.axis_3"/>
   <g id="matplotlib.axis_4"/>
   <g id="line2d_6">
    <path d="M 178.896898 140.35625 
L 181.454576 138.299107 
L 184.012254 136.241964 
L 186.569931 134.184821 
L 189.127609 132.127679 
L 191.685286 130.070536 
L 194.242964 128.013393 
L 196.800642 125.95625 
L 199.358319 123.899107 
L 201.915997 121.841964 
L 204.473675 119.784821 
L 207.031352 117.727679 
L 209.58903 115.670536 
L 212.146707 113.613393 
L 214.704385 111.55625 
L 217.262063 109.499107 
L 219.81974 107.441964 
L 222.377418 105.384821 
L 224.935095 103.327679 
L 227.492773 101.270536 
L 230.050451 99.213393 
L 232.608128 97.15625 
L 235.165806 95.099107 
L 237.723484 93.041964 
L 240.281161 90.984821 
L 242.838839 88.927679 
L 245.396516 86.870536 
L 247.954194 84.813393 
L 250.511872 82.75625 
L 253.069549 80.699107 
L 255.627227 78.641964 
L 258.184905 76.584821 
L 260.742582 74.527679 
L 263.30026 72.470536 
L 265.857937 70.413393 
L 268.415615 68.35625 
L 270.973293 66.299107 
L 273.53097 64.241964 
L 276.088648 62.184821 
L 278.646325 60.127679 
L 281.204003 58.070536 
L 283.761681 56.013393 
L 286.319358 53.95625 
L 288.877036 51.899107 
L 291.434714 49.841964 
L 293.992391 47.784821 
L 296.550069 45.727679 
L 299.107746 43.670536 
L 301.665424 41.613393 
L 304.223102 39.55625 
" clip-path="url(#pce011f1e82)" style="fill: none; stroke: #1f6feb; stroke-width: 2.2; stroke-linecap: square"/>
   </g>
   <g id="line2d_7">
    <path d="M 178.896898 190.75625 
L 181.454576 188.699107 
L 184.012254 186.641964 
L 186.569931 184.584821 
L 189.127609 182.527679 
L 191.685286 180.470536 
L 194.242964 178.413393 
L 196.800642 176.35625 
L 199.358319 174.299107 
L 201.915997 172.241964 
L 204.473675 170.184821 
L 207.031352 168.127679 
L 209.58903 166.070536 
L 212.146707 164.013393 
L 214.704385 161.95625 
L 217.262063 159.899107 
L 219.81974 157.841964 
L 222.377418 155.784821 
L 224.935095 153.727679 
L 227.492773 151.670536 
L 230.050451 149.613393 
L 232.608128 147.55625 
L 235.165806 145.499107 
L 237.723484 143.441964 
L 240.281161 141.384821 
L 242.838839 139.327679 
L 245.396516 137.270536 
L 247.954194 135.213393 
L 250.511872 133.15625 
L 253.069549 131.099107 
L 255.627227 129.041964 
L 258.184905 126.984821 
L 260.742582 124.927679 
L 263.30026 122.870536 
L 265.857937 120.813393 
L 268.415615 118.75625 
L 270.973293 116.699107 
L 273.53097 114.641964 
L 276.088648 112.584821 
L 278.646325 110.527679 
L 281.204003 108.470536 
L 283.761681 106.413393 
L 286.319358 104.35625 
L 288.877036 102.299107 
L 291.434714 100.241964 
L 293.992391 98.184821 
L 296.550069 96.127679 
L 299.107746 94.070536 
L 301.665424 92.013393 
L 304.223102 89.95625 
" clip-path="url(#pce011f1e82)" style="fill: none; stroke: #d1242f; stroke-width: 2.2; stroke-linecap: square"/>
   </g>
   <g id="line2d_8">
    <path d="M 172.630588 123.55625 
L 310.489412 123.55625 
" clip-path="url(#pce011f1e82)" style="fill: none; stroke: #bbbbbb; stroke-width: 0.7; stroke-linecap: square"/>
   </g>
   <g id="line2d_9">
    <path d="M 241.56 198.31625 
L 241.56 31.99625 
" clip-path="url(#pce011f1e82)" style="fill: none; stroke: #bbbbbb; stroke-width: 0.7; stroke-linecap: square"/>
   </g>
   <g id="patch_6">
    <path d="M 172.630588 198.31625 
L 172.630588 31.99625 
" style="fill: none; stroke: #000000; stroke-width: 0.8; stroke-linejoin: miter; stroke-linecap: square"/>
   </g>
   <g id="patch_7">
    <path d="M 172.630588 198.31625 
L 310.489412 198.31625 
" style="fill: none; stroke: #000000; stroke-width: 0.8; stroke-linejoin: miter; stroke-linecap: square"/>
   </g>
   <g id="text_2">
    <!-- keine Lösung -->
    <g transform="translate(208.671719 14.798438) scale(0.1 -0.1)">
     <use xlink:href="#DejaVuSans-6b"/>
     <use xlink:href="#DejaVuSans-65" transform="translate(54.285156 0)"/>
     <use xlink:href="#DejaVuSans-69" transform="translate(115.808594 0)"/>
     <use xlink:href="#DejaVuSans-6e" transform="translate(143.591797 0)"/>
     <use xlink:href="#DejaVuSans-65" transform="translate(206.970703 0)"/>
     <use xlink:href="#DejaVuSans-20" transform="translate(268.494141 0)"/>
     <use xlink:href="#DejaVuSans-4c" transform="translate(300.28125 0)"/>
     <use xlink:href="#DejaVuSans-f6" transform="translate(354.244141 0)"/>
     <use xlink:href="#DejaVuSans-73" transform="translate(415.425781 0)"/>
     <use xlink:href="#DejaVuSans-75" transform="translate(467.525391 0)"/>
     <use xlink:href="#DejaVuSans-6e" transform="translate(530.904297 0)"/>
     <use xlink:href="#DejaVuSans-67" transform="translate(594.283203 0)"/>
    </g>
    <!-- (parallel) -->
    <g transform="translate(219.056875 25.99625) scale(0.1 -0.1)">
     <defs>
      <path id="DejaVuSans-72" d="M 2631 2963 
Q 2534 3019 2420 3045 
Q 2306 3072 2169 3072 
Q 1681 3072 1420 2755 
Q 1159 2438 1159 1844 
L 1159 0 
L 581 0 
L 581 3500 
L 1159 3500 
L 1159 2956 
Q 1341 3275 1631 3429 
Q 1922 3584 2338 3584 
Q 2397 3584 2469 3576 
Q 2541 3569 2628 3553 
L 2631 2963 
z
" transform="scale(0.015625)"/>
      <path id="DejaVuSans-6c" d="M 603 4863 
L 1178 4863 
L 1178 0 
L 603 0 
L 603 4863 
z
" transform="scale(0.015625)"/>
     </defs>
     <use xlink:href="#DejaVuSans-28"/>
     <use xlink:href="#DejaVuSans-70" transform="translate(39.013672 0)"/>
     <use xlink:href="#DejaVuSans-61" transform="translate(102.490234 0)"/>
     <use xlink:href="#DejaVuSans-72" transform="translate(163.769531 0)"/>
     <use xlink:href="#DejaVuSans-61" transform="translate(204.882812 0)"/>
     <use xlink:href="#DejaVuSans-6c" transform="translate(266.162109 0)"/>
     <use xlink:href="#DejaVuSans-6c" transform="translate(293.945312 0)"/>
     <use xlink:href="#DejaVuSans-65" transform="translate(321.728516 0)"/>
     <use xlink:href="#DejaVuSans-6c" transform="translate(383.251953 0)"/>
     <use xlink:href="#DejaVuSans-29" transform="translate(411.035156 0)"/>
    </g>
   </g>
  </g>
  <g id="axes_3">
   <g id="patch_8">
    <path d="M 338.061176 198.31625 
L 475.92 198.31625 
L 475.92 31.99625 
L 338.061176 31.99625 
z
" style="fill: #ffffff"/>
   </g>
   <g id="matplotlib.axis_5"/>
   <g id="matplotlib.axis_6"/>
   <g id="line2d_10">
    <path d="M 344.327487 190.75625 
L 346.885164 187.670536 
L 349.442842 184.584821 
L 352.000519 181.499107 
L 354.558197 178.413393 
L 357.115875 175.327679 
L 359.673552 172.241964 
L 362.23123 169.15625 
L 364.788908 166.070536 
L 367.346585 162.984821 
L 369.904263 159.899107 
L 372.46194 156.813393 
L 375.019618 153.727679 
L 377.577296 150.641964 
L 380.134973 147.55625 
L 382.692651 144.470536 
L 385.250328 141.384821 
L 387.808006 138.299107 
L 390.365684 135.213393 
L 392.923361 132.127679 
L 395.481039 129.041964 
L 398.038717 125.95625 
L 400.596394 122.870536 
L 403.154072 119.784821 
L 405.711749 116.699107 
L 408.269427 113.613393 
L 410.827105 110.527679 
L 413.384782 107.441964 
L 415.94246 104.35625 
L 418.500138 101.270536 
L 421.057815 98.184821 
L 423.615493 95.099107 
L 426.17317 92.013393 
L 428.730848 88.927679 
L 431.288526 85.841964 
L 433.846203 82.75625 
L 436.403881 79.670536 
L 438.961558 76.584821 
L 441.519236 73.499107 
L 444.076914 70.413393 
L 446.634591 67.327679 
L 449.192269 64.241964 
L 451.749947 61.15625 
L 454.307624 58.070536 
L 456.865302 54.984821 
L 459.422979 51.899107 
L 461.980657 48.813393 
L 464.538335 45.727679 
L 467.096012 42.641964 
L 469.65369 39.55625 
" clip-path="url(#p600f7bc309)" style="fill: none; stroke: #1f6feb; stroke-width: 2.2; stroke-linecap: square"/>
   </g>
   <g id="line2d_11">
    <path d="M 344.327487 190.75625 
L 346.885164 187.670536 
L 349.442842 184.584821 
L 352.000519 181.499107 
L 354.558197 178.413393 
L 357.115875 175.327679 
L 359.673552 172.241964 
L 362.23123 169.15625 
L 364.788908 166.070536 
L 367.346585 162.984821 
L 369.904263 159.899107 
L 372.46194 156.813393 
L 375.019618 153.727679 
L 377.577296 150.641964 
L 380.134973 147.55625 
L 382.692651 144.470536 
L 385.250328 141.384821 
L 387.808006 138.299107 
L 390.365684 135.213393 
L 392.923361 132.127679 
L 395.481039 129.041964 
L 398.038717 125.95625 
L 400.596394 122.870536 
L 403.154072 119.784821 
L 405.711749 116.699107 
L 408.269427 113.613393 
L 410.827105 110.527679 
L 413.384782 107.441964 
L 415.94246 104.35625 
L 418.500138 101.270536 
L 421.057815 98.184821 
L 423.615493 95.099107 
L 426.17317 92.013393 
L 428.730848 88.927679 
L 431.288526 85.841964 
L 433.846203 82.75625 
L 436.403881 79.670536 
L 438.961558 76.584821 
L 441.519236 73.499107 
L 444.076914 70.413393 
L 446.634591 67.327679 
L 449.192269 64.241964 
L 451.749947 61.15625 
L 454.307624 58.070536 
L 456.865302 54.984821 
L 459.422979 51.899107 
L 461.980657 48.813393 
L 464.538335 45.727679 
L 467.096012 42.641964 
L 469.65369 39.55625 
" clip-path="url(#p600f7bc309)" style="fill: none; stroke-dasharray: 13.2,8.8; stroke-dashoffset: 0; stroke: #d1242f; stroke-width: 2.2"/>
   </g>
   <g id="line2d_12">
    <path d="M 338.061176 140.35625 
L 475.92 140.35625 
" clip-path="url(#p600f7bc309)" style="fill: none; stroke: #bbbbbb; stroke-width: 0.7; stroke-linecap: square"/>
   </g>
   <g id="line2d_13">
    <path d="M 406.990588 198.31625 
L 406.990588 31.99625 
" clip-path="url(#p600f7bc309)" style="fill: none; stroke: #bbbbbb; stroke-width: 0.7; stroke-linecap: square"/>
   </g>
   <g id="patch_9">
    <path d="M 338.061176 198.31625 
L 338.061176 31.99625 
" style="fill: none; stroke: #000000; stroke-width: 0.8; stroke-linejoin: miter; stroke-linecap: square"/>
   </g>
   <g id="patch_10">
    <path d="M 338.061176 198.31625 
L 475.92 198.31625 
" style="fill: none; stroke: #000000; stroke-width: 0.8; stroke-linejoin: miter; stroke-linecap: square"/>
   </g>
   <g id="text_3">
    <!-- unendlich viele -->
    <g transform="translate(369.057776 14.798438) scale(0.1 -0.1)">
     <defs>
      <path id="DejaVuSans-64" d="M 2906 2969 
L 2906 4863 
L 3481 4863 
L 3481 0 
L 2906 0 
L 2906 525 
Q 2725 213 2448 61 
Q 2172 -91 1784 -91 
Q 1150 -91 751 415 
Q 353 922 353 1747 
Q 353 2572 751 3078 
Q 1150 3584 1784 3584 
Q 2172 3584 2448 3432 
Q 2725 3281 2906 2969 
z
M 947 1747 
Q 947 1113 1208 752 
Q 1469 391 1925 391 
Q 2381 391 2643 752 
Q 2906 1113 2906 1747 
Q 2906 2381 2643 2742 
Q 2381 3103 1925 3103 
Q 1469 3103 1208 2742 
Q 947 2381 947 1747 
z
" transform="scale(0.015625)"/>
      <path id="DejaVuSans-76" d="M 191 3500 
L 800 3500 
L 1894 563 
L 2988 3500 
L 3597 3500 
L 2284 0 
L 1503 0 
L 191 3500 
z
" transform="scale(0.015625)"/>
     </defs>
     <use xlink:href="#DejaVuSans-75"/>
     <use xlink:href="#DejaVuSans-6e" transform="translate(63.378906 0)"/>
     <use xlink:href="#DejaVuSans-65" transform="translate(126.757812 0)"/>
     <use xlink:href="#DejaVuSans-6e" transform="translate(188.28125 0)"/>
     <use xlink:href="#DejaVuSans-64" transform="translate(251.660156 0)"/>
     <use xlink:href="#DejaVuSans-6c" transform="translate(315.136719 0)"/>
     <use xlink:href="#DejaVuSans-69" transform="translate(342.919922 0)"/>
     <use xlink:href="#DejaVuSans-63" transform="translate(370.703125 0)"/>
     <use xlink:href="#DejaVuSans-68" transform="translate(425.683594 0)"/>
     <use xlink:href="#DejaVuSans-20" transform="translate(489.0625 0)"/>
     <use xlink:href="#DejaVuSans-76" transform="translate(520.849609 0)"/>
     <use xlink:href="#DejaVuSans-69" transform="translate(580.029297 0)"/>
     <use xlink:href="#DejaVuSans-65" transform="translate(607.8125 0)"/>
     <use xlink:href="#DejaVuSans-6c" transform="translate(669.335938 0)"/>
     <use xlink:href="#DejaVuSans-65" transform="translate(697.119141 0)"/>
    </g>
    <!-- (identisch) -->
    <g transform="translate(380.408557 25.99625) scale(0.1 -0.1)">
     <use xlink:href="#DejaVuSans-28"/>
     <use xlink:href="#DejaVuSans-69" transform="translate(39.013672 0)"/>
     <use xlink:href="#DejaVuSans-64" transform="translate(66.796875 0)"/>
     <use xlink:href="#DejaVuSans-65" transform="translate(130.273438 0)"/>
     <use xlink:href="#DejaVuSans-6e" transform="translate(191.796875 0)"/>
     <use xlink:href="#DejaVuSans-74" transform="translate(255.175781 0)"/>
     <use xlink:href="#DejaVuSans-69" transform="translate(294.384766 0)"/>
     <use xlink:href="#DejaVuSans-73" transform="translate(322.167969 0)"/>
     <use xlink:href="#DejaVuSans-63" transform="translate(374.267578 0)"/>
     <use xlink:href="#DejaVuSans-68" transform="translate(429.248047 0)"/>
     <use xlink:href="#DejaVuSans-29" transform="translate(492.626953 0)"/>
    </g>
   </g>
  </g>
 </g>
 <defs>
  <clipPath id="p301ba9ae72">
   <rect x="7.2" y="31.99625" width="137.858824" height="166.32"/>
  </clipPath>
  <clipPath id="pce011f1e82">
   <rect x="172.630588" y="31.99625" width="137.858824" height="166.32"/>
  </clipPath>
  <clipPath id="p600f7bc309">
   <rect x="338.061176" y="31.99625" width="137.858824" height="166.32"/>
  </clipPath>
 </defs>
</svg>
