<?xml version="1.0" encoding="utf-8" standalone="no"?>
<!DOCTYPE svg PUBLIC "-//W3C//DTD SVG 1.1//EN"
  "http://www.w3.org/Graphics/SVG/1.1/DTD/svg11.dtd">
<svg xmlns:xlink="http://www.w3.org/1999/xlink" width="360.36pt" height="229.694312pt" viewBox="0 0 360.36 229.694312" xmlns="http://www.w3.org/2000/svg" version="1.1">
 <metadata>
  <rdf:RDF xmlns:dc="http://purl.org/dc/elements/1.1/" xmlns:cc="http://creativecommons.org/ns#" xmlns:rdf="http://www.w3.org/1999/02/22-rdf-syntax-ns#">
   <cc:Work>
    <dc:type rdf:resource="http://purl.org/dc/dcmitype/StillImage"/>
    <dc:date>2026-06-07T17:27:02.833386</dc:date>
    <dc:format>image/svg+xml</dc:format>
    <dc:creator>
     <cc:Agent>
      <dc:title>Matplotlib v3.10.8, https://matplotlib.org/</dc:title>
     </cc:Agent>
    </dc:creator>
   </cc:Work>
  </rdf:RDF>
 </metadata>
 <defs>
  <style type="text/css">*{stroke-linejoin: round; stroke-linecap: butt}</style>
 </defs>
 <g id="figure_1">
  <g id="patch_1">
   <path d="M 0 229.694312 
L 360.36 229.694312 
L 360.36 0 
L 0 0 
z
" style="fill: #ffffff"/>
  </g>
  <g id="axes_1">
   <g id="patch_2">
    <path d="M 7.2 206.784 
L 353.16 206.784 
L 353.16 7.2 
L 7.2 7.2 
z
" style="fill: #ffffff"/>
   </g>
   <g id="FillBetweenPolyCollection_1">
    <defs>
     <path id="mbf1a8c1bc2" d="M 62.239091 -31.982312 
L 62.239091 -33.997954 
L 63.424427 -34.187771 
L 64.609762 -34.39327 
L 65.795098 -34.615522 
L 66.980434 -34.85565 
L 68.16577 -35.114826 
L 69.351106 -35.394276 
L 70.536441 -35.69528 
L 71.721777 -36.019166 
L 72.907113 -36.367317 
L 74.092449 -36.741166 
L 75.277784 -37.142196 
L 76.46312 -37.571936 
L 77.648456 -38.031965 
L 78.833792 -38.523905 
L 80.019127 -39.049421 
L 81.204463 -39.610217 
L 82.389799 -40.208032 
L 83.575135 -40.844639 
L 84.760471 -41.521839 
L 85.945806 -42.241455 
L 87.131142 -43.005331 
L 88.316478 -43.815321 
L 89.501814 -44.673288 
L 90.687149 -45.581096 
L 91.872485 -46.5406 
L 93.057821 -47.553644 
L 94.243157 -48.622046 
L 95.428492 -49.747598 
L 96.613828 -50.932051 
L 97.799164 -52.177108 
L 98.9845 -53.484412 
L 100.169836 -54.855542 
L 101.355171 -56.291996 
L 102.540507 -57.795184 
L 103.725843 -59.366416 
L 104.911179 -61.006891 
L 106.096514 -62.717688 
L 107.28185 -64.499751 
L 108.467186 -66.353879 
L 109.652522 -68.280715 
L 110.837857 -70.280736 
L 112.023193 -72.35424 
L 113.208529 -74.501335 
L 114.393865 -76.721928 
L 115.579201 -79.015718 
L 116.764536 -81.382182 
L 117.949872 -83.820567 
L 119.135208 -86.329883 
L 120.320544 -88.908893 
L 121.505879 -91.556106 
L 122.691215 -94.269771 
L 123.876551 -97.047872 
L 125.061887 -99.88812 
L 126.247222 -102.787954 
L 127.432558 -105.744537 
L 128.617894 -108.754753 
L 129.80323 -111.815209 
L 130.988566 -114.922234 
L 132.173901 -118.071885 
L 133.359237 -121.259948 
L 134.544573 -124.481944 
L 135.729909 -127.733137 
L 136.915244 -131.008542 
L 138.10058 -134.302931 
L 139.285916 -137.610851 
L 140.471252 -140.926629 
L 141.656587 -144.244392 
L 142.841923 -147.55808 
L 144.027259 -150.861461 
L 145.212595 -154.148151 
L 146.397931 -157.411634 
L 147.583266 -160.64528 
L 148.768602 -163.842366 
L 149.953938 -166.996103 
L 151.139274 -170.099654 
L 152.324609 -173.14616 
L 153.509945 -176.128766 
L 154.695281 -179.040643 
L 155.880617 -181.875018 
L 157.065952 -184.625197 
L 158.251288 -187.28459 
L 159.436624 -189.846741 
L 160.62196 -192.305351 
L 161.807296 -194.654305 
L 162.992631 -196.887696 
L 164.177967 -198.999851 
L 165.363303 -200.985354 
L 166.548639 -202.83907 
L 167.733974 -204.556165 
L 168.91931 -206.132131 
L 170.104646 -207.562802 
L 171.289982 -208.844373 
L 172.475317 -209.973419 
L 173.660653 -210.946908 
L 174.845989 -211.762214 
L 176.031325 -212.417133 
L 177.216661 -212.909887 
L 178.401996 -213.239137 
L 179.587332 -213.403987 
L 180.772668 -213.403987 
L 181.958004 -213.239137 
L 183.143339 -212.909887 
L 184.328675 -212.417133 
L 185.514011 -211.762214 
L 186.699347 -210.946908 
L 187.884683 -209.973419 
L 189.070018 -208.844373 
L 190.255354 -207.562802 
L 191.44069 -206.132131 
L 192.626026 -204.556165 
L 193.811361 -202.83907 
L 194.996697 -200.985354 
L 196.182033 -198.999851 
L 197.367369 -196.887696 
L 198.552704 -194.654305 
L 199.73804 -192.305351 
L 200.923376 -189.846741 
L 202.108712 -187.28459 
L 203.294048 -184.625197 
L 204.479383 -181.875018 
L 205.664719 -179.040643 
L 206.850055 -176.128766 
L 208.035391 -173.14616 
L 209.220726 -170.099654 
L 210.406062 -166.996103 
L 211.591398 -163.842366 
L 212.776734 -160.64528 
L 213.962069 -157.411634 
L 215.147405 -154.148151 
L 216.332741 -150.861461 
L 217.518077 -147.55808 
L 218.703413 -144.244392 
L 219.888748 -140.926629 
L 221.074084 -137.610851 
L 222.25942 -134.302931 
L 223.444756 -131.008542 
L 224.630091 -127.733137 
L 225.815427 -124.481944 
L 227.000763 -121.259948 
L 228.186099 -118.071885 
L 229.371434 -114.922234 
L 230.55677 -111.815209 
L 231.742106 -108.754753 
L 232.927442 -105.744537 
L 234.112778 -102.787954 
L 235.298113 -99.88812 
L 236.483449 -97.047872 
L 237.668785 -94.269771 
L 238.854121 -91.556106 
L 240.039456 -88.908893 
L 241.224792 -86.329883 
L 242.410128 -83.820567 
L 243.595464 -81.382182 
L 244.780799 -79.015718 
L 245.966135 -76.721928 
L 247.151471 -74.501335 
L 248.336807 -72.35424 
L 249.522143 -70.280736 
L 250.707478 -68.280715 
L 251.892814 -66.353879 
L 253.07815 -64.499751 
L 254.263486 -62.717688 
L 255.448821 -61.006891 
L 256.634157 -59.366416 
L 257.819493 -57.795184 
L 259.004829 -56.291996 
L 260.190164 -54.855542 
L 261.3755 -53.484412 
L 262.560836 -52.177108 
L 263.746172 -50.932051 
L 264.931508 -49.747598 
L 266.116843 -48.622046 
L 267.302179 -47.553644 
L 268.487515 -46.5406 
L 269.672851 -45.581096 
L 270.858186 -44.673288 
L 272.043522 -43.815321 
L 273.228858 -43.005331 
L 274.414194 -42.241455 
L 275.599529 -41.521839 
L 276.784865 -40.844639 
L 277.970201 -40.208032 
L 279.155537 -39.610217 
L 280.340873 -39.049421 
L 281.526208 -38.523905 
L 282.711544 -38.031965 
L 283.89688 -37.571936 
L 285.082216 -37.142196 
L 286.267551 -36.741166 
L 287.452887 -36.367317 
L 288.638223 -36.019166 
L 289.823559 -35.69528 
L 291.008894 -35.394276 
L 292.19423 -35.114826 
L 293.379566 -34.85565 
L 294.564902 -34.615522 
L 295.750238 -34.39327 
L 296.935573 -34.187771 
L 298.120909 -33.997954 
L 298.120909 -31.982312 
L 298.120909 -31.982312 
L 296.935573 -31.982312 
L 295.750238 -31.982312 
L 294.564902 -31.982312 
L 293.379566 -31.982312 
L 292.19423 -31.982312 
L 291.008894 -31.982312 
L 289.823559 -31.982312 
L 288.638223 -31.982312 
L 287.452887 -31.982312 
L 286.267551 -31.982312 
L 285.082216 -31.982312 
L 283.89688 -31.982312 
L 282.711544 -31.982312 
L 281.526208 -31.982312 
L 280.340873 -31.982312 
L 279.155537 -31.982312 
L 277.970201 -31.982312 
L 276.784865 -31.982312 
L 275.599529 -31.982312 
L 274.414194 -31.982312 
L 273.228858 -31.982312 
L 272.043522 -31.982312 
L 270.858186 -31.982312 
L 269.672851 -31.982312 
L 268.487515 -31.982312 
L 267.302179 -31.982312 
L 266.116843 -31.982312 
L 264.931508 -31.982312 
L 263.746172 -31.982312 
L 262.560836 -31.982312 
L 261.3755 -31.982312 
L 260.190164 -31.982312 
L 259.004829 -31.982312 
L 257.819493 -31.982312 
L 256.634157 -31.982312 
L 255.448821 -31.982312 
L 254.263486 -31.982312 
L 253.07815 -31.982312 
L 251.892814 -31.982312 
L 250.707478 -31.982312 
L 249.522143 -31.982312 
L 248.336807 -31.982312 
L 247.151471 -31.982312 
L 245.966135 -31.982312 
L 244.780799 -31.982312 
L 243.595464 -31.982312 
L 242.410128 -31.982312 
L 241.224792 -31.982312 
L 240.039456 -31.982312 
L 238.854121 -31.982312 
L 237.668785 -31.982312 
L 236.483449 -31.982312 
L 235.298113 -31.982312 
L 234.112778 -31.982312 
L 232.927442 -31.982312 
L 231.742106 -31.982312 
L 230.55677 -31.982312 
L 229.371434 -31.982312 
L 228.186099 -31.982312 
L 227.000763 -31.982312 
L 225.815427 -31.982312 
L 224.630091 -31.982312 
L 223.444756 -31.982312 
L 222.25942 -31.982312 
L 221.074084 -31.982312 
L 219.888748 -31.982312 
L 218.703413 -31.982312 
L 217.518077 -31.982312 
L 216.332741 -31.982312 
L 215.147405 -31.982312 
L 213.962069 -31.982312 
L 212.776734 -31.982312 
L 211.591398 -31.982312 
L 210.406062 -31.982312 
L 209.220726 -31.982312 
L 208.035391 -31.982312 
L 206.850055 -31.982312 
L 205.664719 -31.982312 
L 204.479383 -31.982312 
L 203.294048 -31.982312 
L 202.108712 -31.982312 
L 200.923376 -31.982312 
L 199.73804 -31.982312 
L 198.552704 -31.982312 
L 197.367369 -31.982312 
L 196.182033 -31.982312 
L 194.996697 -31.982312 
L 193.811361 -31.982312 
L 192.626026 -31.982312 
L 191.44069 -31.982312 
L 190.255354 -31.982312 
L 189.070018 -31.982312 
L 187.884683 -31.982312 
L 186.699347 -31.982312 
L 185.514011 -31.982312 
L 184.328675 -31.982312 
L 183.143339 -31.982312 
L 181.958004 -31.982312 
L 180.772668 -31.982312 
L 179.587332 -31.982312 
L 178.401996 -31.982312 
L 177.216661 -31.982312 
L 176.031325 -31.982312 
L 174.845989 -31.982312 
L 173.660653 -31.982312 
L 172.475317 -31.982312 
L 171.289982 -31.982312 
L 170.104646 -31.982312 
L 168.91931 -31.982312 
L 167.733974 -31.982312 
L 166.548639 -31.982312 
L 165.363303 -31.982312 
L 164.177967 -31.982312 
L 162.992631 -31.982312 
L 161.807296 -31.982312 
L 160.62196 -31.982312 
L 159.436624 -31.982312 
L 158.251288 -31.982312 
L 157.065952 -31.982312 
L 155.880617 -31.982312 
L 154.695281 -31.982312 
L 153.509945 -31.982312 
L 152.324609 -31.982312 
L 151.139274 -31.982312 
L 149.953938 -31.982312 
L 148.768602 -31.982312 
L 147.583266 -31.982312 
L 146.397931 -31.982312 
L 145.212595 -31.982312 
L 144.027259 -31.982312 
L 142.841923 -31.982312 
L 141.656587 -31.982312 
L 140.471252 -31.982312 
L 139.285916 -31.982312 
L 138.10058 -31.982312 
L 136.915244 -31.982312 
L 135.729909 -31.982312 
L 134.544573 -31.982312 
L 133.359237 -31.982312 
L 132.173901 -31.982312 
L 130.988566 -31.982312 
L 129.80323 -31.982312 
L 128.617894 -31.982312 
L 127.432558 -31.982312 
L 126.247222 -31.982312 
L 125.061887 -31.982312 
L 123.876551 -31.982312 
L 122.691215 -31.982312 
L 121.505879 -31.982312 
L 120.320544 -31.982312 
L 119.135208 -31.982312 
L 117.949872 -31.982312 
L 116.764536 -31.982312 
L 115.579201 -31.982312 
L 114.393865 -31.982312 
L 113.208529 -31.982312 
L 112.023193 -31.982312 
L 110.837857 -31.982312 
L 109.652522 -31.982312 
L 108.467186 -31.982312 
L 107.28185 -31.982312 
L 106.096514 -31.982312 
L 104.911179 -31.982312 
L 103.725843 -31.982312 
L 102.540507 -31.982312 
L 101.355171 -31.982312 
L 100.169836 -31.982312 
L 98.9845 -31.982312 
L 97.799164 -31.982312 
L 96.613828 -31.982312 
L 95.428492 -31.982312 
L 94.243157 -31.982312 
L 93.057821 -31.982312 
L 91.872485 -31.982312 
L 90.687149 -31.982312 
L 89.501814 -31.982312 
L 88.316478 -31.982312 
L 87.131142 -31.982312 
L 85.945806 -31.982312 
L 84.760471 -31.982312 
L 83.575135 -31.982312 
L 82.389799 -31.982312 
L 81.204463 -31.982312 
L 80.019127 -31.982312 
L 78.833792 -31.982312 
L 77.648456 -31.982312 
L 76.46312 -31.982312 
L 75.277784 -31.982312 
L 74.092449 -31.982312 
L 72.907113 -31.982312 
L 71.721777 -31.982312 
L 70.536441 -31.982312 
L 69.351106 -31.982312 
L 68.16577 -31.982312 
L 66.980434 -31.982312 
L 65.795098 -31.982312 
L 64.609762 -31.982312 
L 63.424427 -31.982312 
L 62.239091 -31.982312 
z
" style="stroke: #eef4ff"/>
    </defs>
    <g clip-path="url(#p824edf1605)">
     <use xlink:href="#mbf1a8c1bc2" x="0" y="229.694312" style="fill: #eef4ff; stroke: #eef4ff"/>
    </g>
   </g>
   <g id="FillBetweenPolyCollection_2">
    <defs>
     <path id="m1a527a18b0" d="M 101.552727 -31.982312 
L 101.552727 -56.537856 
L 102.342951 -57.539961 
L 103.133175 -58.572217 
L 103.923399 -59.634989 
L 104.713623 -60.728623 
L 105.503847 -61.853437 
L 106.29407 -63.009726 
L 107.084294 -64.197756 
L 107.874518 -65.417763 
L 108.664742 -66.669954 
L 109.454966 -67.954504 
L 110.24519 -69.271555 
L 111.035413 -70.621212 
L 111.825637 -72.003546 
L 112.615861 -73.41859 
L 113.406085 -74.866335 
L 114.196309 -76.346735 
L 114.986533 -77.859701 
L 115.776757 -79.405099 
L 116.56698 -80.982753 
L 117.357204 -82.59244 
L 118.147428 -84.233891 
L 118.937652 -85.906787 
L 119.727876 -87.610763 
L 120.5181 -89.345403 
L 121.308323 -91.110239 
L 122.098547 -92.904752 
L 122.888771 -94.728372 
L 123.678995 -96.580474 
L 124.469219 -98.460381 
L 125.259443 -100.367361 
L 126.049667 -102.300627 
L 126.83989 -104.25934 
L 127.630114 -106.242604 
L 128.420338 -108.249467 
L 129.210562 -110.278924 
L 130.000786 -112.329915 
L 130.79101 -114.401326 
L 131.581233 -116.491988 
L 132.371457 -118.600679 
L 133.161681 -120.726123 
L 133.951905 -122.866994 
L 134.742129 -125.021914 
L 135.532353 -127.189453 
L 136.322577 -129.368134 
L 137.1128 -131.556433 
L 137.903024 -133.752777 
L 138.693248 -135.955549 
L 139.483472 -138.163091 
L 140.273696 -140.3737 
L 141.06392 -142.585637 
L 141.854143 -144.797123 
L 142.644367 -147.006344 
L 143.434591 -149.211454 
L 144.224815 -151.410576 
L 145.015039 -153.601803 
L 145.805263 -155.783205 
L 146.595487 -157.952827 
L 147.38571 -160.108695 
L 148.175934 -162.248816 
L 148.966158 -164.371184 
L 149.756382 -166.473781 
L 150.546606 -168.554581 
L 151.33683 -170.611552 
L 152.127053 -172.642662 
L 152.917277 -174.645878 
L 153.707501 -176.619174 
L 154.497725 -178.56053 
L 155.287949 -180.467939 
L 156.078173 -182.339408 
L 156.868397 -184.172962 
L 157.65862 -185.966648 
L 158.448844 -187.71854 
L 159.239068 -189.426738 
L 160.029292 -191.089375 
L 160.819516 -192.704621 
L 161.60974 -194.270681 
L 162.399963 -195.785806 
L 163.190187 -197.248291 
L 163.980411 -198.656478 
L 164.770635 -200.008762 
L 165.560859 -201.303593 
L 166.351083 -202.539478 
L 167.141307 -203.714985 
L 167.93153 -204.828744 
L 168.721754 -205.879452 
L 169.511978 -206.865875 
L 170.302202 -207.786849 
L 171.092426 -208.641282 
L 171.88265 -209.428161 
L 172.672873 -210.146546 
L 173.463097 -210.795579 
L 174.253321 -211.374481 
L 175.043545 -211.882559 
L 175.833769 -212.319198 
L 176.623993 -212.683874 
L 177.414217 -212.976146 
L 178.20444 -213.19566 
L 178.994664 -213.34215 
L 179.784888 -213.41544 
L 180.575112 -213.41544 
L 181.365336 -213.34215 
L 182.15556 -213.19566 
L 182.945783 -212.976146 
L 183.736007 -212.683874 
L 184.526231 -212.319198 
L 185.316455 -211.882559 
L 186.106679 -211.374481 
L 186.896903 -210.795579 
L 187.687127 -210.146546 
L 188.47735 -209.428161 
L 189.267574 -208.641282 
L 190.057798 -207.786849 
L 190.848022 -206.865875 
L 191.638246 -205.879452 
L 192.42847 -204.828744 
L 193.218693 -203.714985 
L 194.008917 -202.539478 
L 194.799141 -201.303593 
L 195.589365 -200.008762 
L 196.379589 -198.656478 
L 197.169813 -197.248291 
L 197.960037 -195.785806 
L 198.75026 -194.270681 
L 199.540484 -192.704621 
L 200.330708 -191.089375 
L 201.120932 -189.426738 
L 201.911156 -187.71854 
L 202.70138 -185.966648 
L 203.491603 -184.172962 
L 204.281827 -182.339408 
L 205.072051 -180.467939 
L 205.862275 -178.56053 
L 206.652499 -176.619174 
L 207.442723 -174.645878 
L 208.232947 -172.642662 
L 209.02317 -170.611552 
L 209.813394 -168.554581 
L 210.603618 -166.473781 
L 211.393842 -164.371184 
L 212.184066 -162.248816 
L 212.97429 -160.108695 
L 213.764513 -157.952827 
L 214.554737 -155.783205 
L 215.344961 -153.601803 
L 216.135185 -151.410576 
L 216.925409 -149.211454 
L 217.715633 -147.006344 
L 218.505857 -144.797123 
L 219.29608 -142.585637 
L 220.086304 -140.3737 
L 220.876528 -138.163091 
L 221.666752 -135.955549 
L 222.456976 -133.752777 
L 223.2472 -131.556433 
L 224.037423 -129.368134 
L 224.827647 -127.189453 
L 225.617871 -125.021914 
L 226.408095 -122.866994 
L 227.198319 -120.726123 
L 227.988543 -118.600679 
L 228.778767 -116.491988 
L 229.56899 -114.401326 
L 230.359214 -112.329915 
L 231.149438 -110.278924 
L 231.939662 -108.249467 
L 232.729886 -106.242604 
L 233.52011 -104.25934 
L 234.310333 -102.300627 
L 235.100557 -100.367361 
L 235.890781 -98.460381 
L 236.681005 -96.580474 
L 237.471229 -94.728372 
L 238.261453 -92.904752 
L 239.051677 -91.110239 
L 239.8419 -89.345403 
L 240.632124 -87.610763 
L 241.422348 -85.906787 
L 242.212572 -84.233891 
L 243.002796 -82.59244 
L 243.79302 -80.982753 
L 244.583243 -79.405099 
L 245.373467 -77.859701 
L 246.163691 -76.346735 
L 246.953915 -74.866335 
L 247.744139 -73.41859 
L 248.534363 -72.003546 
L 249.324587 -70.621212 
L 250.11481 -69.271555 
L 250.905034 -67.954504 
L 251.695258 -66.669954 
L 252.485482 -65.417763 
L 253.275706 -64.197756 
L 254.06593 -63.009726 
L 254.856153 -61.853437 
L 255.646377 -60.728623 
L 256.436601 -59.634989 
L 257.226825 -58.572217 
L 258.017049 -57.539961 
L 258.807273 -56.537856 
L 258.807273 -31.982312 
L 258.807273 -31.982312 
L 258.017049 -31.982312 
L 257.226825 -31.982312 
L 256.436601 -31.982312 
L 255.646377 -31.982312 
L 254.856153 -31.982312 
L 254.06593 -31.982312 
L 253.275706 -31.982312 
L 252.485482 -31.982312 
L 251.695258 -31.982312 
L 250.905034 -31.982312 
L 250.11481 -31.982312 
L 249.324587 -31.982312 
L 248.534363 -31.982312 
L 247.744139 -31.982312 
L 246.953915 -31.982312 
L 246.163691 -31.982312 
L 245.373467 -31.982312 
L 244.583243 -31.982312 
L 243.79302 -31.982312 
L 243.002796 -31.982312 
L 242.212572 -31.982312 
L 241.422348 -31.982312 
L 240.632124 -31.982312 
L 239.8419 -31.982312 
L 239.051677 -31.982312 
L 238.261453 -31.982312 
L 237.471229 -31.982312 
L 236.681005 -31.982312 
L 235.890781 -31.982312 
L 235.100557 -31.982312 
L 234.310333 -31.982312 
L 233.52011 -31.982312 
L 232.729886 -31.982312 
L 231.939662 -31.982312 
L 231.149438 -31.982312 
L 230.359214 -31.982312 
L 229.56899 -31.982312 
L 228.778767 -31.982312 
L 227.988543 -31.982312 
L 227.198319 -31.982312 
L 226.408095 -31.982312 
L 225.617871 -31.982312 
L 224.827647 -31.982312 
L 224.037423 -31.982312 
L 223.2472 -31.982312 
L 222.456976 -31.982312 
L 221.666752 -31.982312 
L 220.876528 -31.982312 
L 220.086304 -31.982312 
L 219.29608 -31.982312 
L 218.505857 -31.982312 
L 217.715633 -31.982312 
L 216.925409 -31.982312 
L 216.135185 -31.982312 
L 215.344961 -31.982312 
L 214.554737 -31.982312 
L 213.764513 -31.982312 
L 212.97429 -31.982312 
L 212.184066 -31.982312 
L 211.393842 -31.982312 
L 210.603618 -31.982312 
L 209.813394 -31.982312 
L 209.02317 -31.982312 
L 208.232947 -31.982312 
L 207.442723 -31.982312 
L 206.652499 -31.982312 
L 205.862275 -31.982312 
L 205.072051 -31.982312 
L 204.281827 -31.982312 
L 203.491603 -31.982312 
L 202.70138 -31.982312 
L 201.911156 -31.982312 
L 201.120932 -31.982312 
L 200.330708 -31.982312 
L 199.540484 -31.982312 
L 198.75026 -31.982312 
L 197.960037 -31.982312 
L 197.169813 -31.982312 
L 196.379589 -31.982312 
L 195.589365 -31.982312 
L 194.799141 -31.982312 
L 194.008917 -31.982312 
L 193.218693 -31.982312 
L 192.42847 -31.982312 
L 191.638246 -31.982312 
L 190.848022 -31.982312 
L 190.057798 -31.982312 
L 189.267574 -31.982312 
L 188.47735 -31.982312 
L 187.687127 -31.982312 
L 186.896903 -31.982312 
L 186.106679 -31.982312 
L 185.316455 -31.982312 
L 184.526231 -31.982312 
L 183.736007 -31.982312 
L 182.945783 -31.982312 
L 182.15556 -31.982312 
L 181.365336 -31.982312 
L 180.575112 -31.982312 
L 179.784888 -31.982312 
L 178.994664 -31.982312 
L 178.20444 -31.982312 
L 177.414217 -31.982312 
L 176.623993 -31.982312 
L 175.833769 -31.982312 
L 175.043545 -31.982312 
L 174.253321 -31.982312 
L 173.463097 -31.982312 
L 172.672873 -31.982312 
L 171.88265 -31.982312 
L 171.092426 -31.982312 
L 170.302202 -31.982312 
L 169.511978 -31.982312 
L 168.721754 -31.982312 
L 167.93153 -31.982312 
L 167.141307 -31.982312 
L 166.351083 -31.982312 
L 165.560859 -31.982312 
L 164.770635 -31.982312 
L 163.980411 -31.982312 
L 163.190187 -31.982312 
L 162.399963 -31.982312 
L 161.60974 -31.982312 
L 160.819516 -31.982312 
L 160.029292 -31.982312 
L 159.239068 -31.982312 
L 158.448844 -31.982312 
L 157.65862 -31.982312 
L 156.868397 -31.982312 
L 156.078173 -31.982312 
L 155.287949 -31.982312 
L 154.497725 -31.982312 
L 153.707501 -31.982312 
L 152.917277 -31.982312 
L 152.127053 -31.982312 
L 151.33683 -31.982312 
L 150.546606 -31.982312 
L 149.756382 -31.982312 
L 148.966158 -31.982312 
L 148.175934 -31.982312 
L 147.38571 -31.982312 
L 146.595487 -31.982312 
L 145.805263 -31.982312 
L 145.015039 -31.982312 
L 144.224815 -31.982312 
L 143.434591 -31.982312 
L 142.644367 -31.982312 
L 141.854143 -31.982312 
L 141.06392 -31.982312 
L 140.273696 -31.982312 
L 139.483472 -31.982312 
L 138.693248 -31.982312 
L 137.903024 -31.982312 
L 137.1128 -31.982312 
L 136.322577 -31.982312 
L 135.532353 -31.982312 
L 134.742129 -31.982312 
L 133.951905 -31.982312 
L 133.161681 -31.982312 
L 132.371457 -31.982312 
L 131.581233 -31.982312 
L 130.79101 -31.982312 
L 130.000786 -31.982312 
L 129.210562 -31.982312 
L 128.420338 -31.982312 
L 127.630114 -31.982312 
L 126.83989 -31.982312 
L 126.049667 -31.982312 
L 125.259443 -31.982312 
L 124.469219 -31.982312 
L 123.678995 -31.982312 
L 122.888771 -31.982312 
L 122.098547 -31.982312 
L 121.308323 -31.982312 
L 120.5181 -31.982312 
L 119.727876 -31.982312 
L 118.937652 -31.982312 
L 118.147428 -31.982312 
L 117.357204 -31.982312 
L 116.56698 -31.982312 
L 115.776757 -31.982312 
L 114.986533 -31.982312 
L 114.196309 -31.982312 
L 113.406085 -31.982312 
L 112.615861 -31.982312 
L 111.825637 -31.982312 
L 111.035413 -31.982312 
L 110.24519 -31.982312 
L 109.454966 -31.982312 
L 108.664742 -31.982312 
L 107.874518 -31.982312 
L 107.084294 -31.982312 
L 106.29407 -31.982312 
L 105.503847 -31.982312 
L 104.713623 -31.982312 
L 103.923399 -31.982312 
L 103.133175 -31.982312 
L 102.342951 -31.982312 
L 101.552727 -31.982312 
z
" style="stroke: #d7e6ff"/>
    </defs>
    <g clip-path="url(#p824edf1605)">
     <use xlink:href="#m1a527a18b0" x="0" y="229.694312" style="fill: #d7e6ff; stroke: #d7e6ff"/>
    </g>
   </g>
   <g id="FillBetweenPolyCollection_3">
    <defs>
     <path id="mf3b98e7158" d="M 140.866364 -31.982312 
L 140.866364 -142.032625 
L 141.261476 -143.138621 
L 141.656587 -144.244392 
L 142.051699 -145.349712 
L 142.446811 -146.454351 
L 142.841923 -147.55808 
L 143.237035 -148.660664 
L 143.632147 -149.76187 
L 144.027259 -150.861461 
L 144.422371 -151.959198 
L 144.817483 -153.054842 
L 145.212595 -154.148151 
L 145.607707 -155.238883 
L 146.002819 -156.326792 
L 146.397931 -157.411634 
L 146.793042 -158.493161 
L 147.188154 -159.571126 
L 147.583266 -160.64528 
L 147.978378 -161.715371 
L 148.37349 -162.781151 
L 148.768602 -163.842366 
L 149.163714 -164.898766 
L 149.558826 -165.950096 
L 149.953938 -166.996103 
L 150.34905 -168.036535 
L 150.744162 -169.071137 
L 151.139274 -170.099654 
L 151.534386 -171.121834 
L 151.929497 -172.13742 
L 152.324609 -173.14616 
L 152.719721 -174.1478 
L 153.114833 -175.142087 
L 153.509945 -176.128766 
L 153.905057 -177.107586 
L 154.300169 -178.078296 
L 154.695281 -179.040643 
L 155.090393 -179.994379 
L 155.485505 -180.939253 
L 155.880617 -181.875018 
L 156.275729 -182.801427 
L 156.670841 -183.718235 
L 157.065952 -184.625197 
L 157.461064 -185.52207 
L 157.856176 -186.408614 
L 158.251288 -187.28459 
L 158.6464 -188.149759 
L 159.041512 -189.003887 
L 159.436624 -189.846741 
L 159.831736 -190.678088 
L 160.226848 -191.4977 
L 160.62196 -192.305351 
L 161.017072 -193.100816 
L 161.412184 -193.883874 
L 161.807296 -194.654305 
L 162.202407 -195.411894 
L 162.597519 -196.156428 
L 162.992631 -196.887696 
L 163.387743 -197.605492 
L 163.782855 -198.30961 
L 164.177967 -198.999851 
L 164.573079 -199.676018 
L 164.968191 -200.337915 
L 165.363303 -200.985354 
L 165.758415 -201.618147 
L 166.153527 -202.236112 
L 166.548639 -202.83907 
L 166.943751 -203.426844 
L 167.338862 -203.999265 
L 167.733974 -204.556165 
L 168.129086 -205.097381 
L 168.524198 -205.622755 
L 168.91931 -206.132131 
L 169.314422 -206.625361 
L 169.709534 -207.102298 
L 170.104646 -207.562802 
L 170.499758 -208.006736 
L 170.89487 -208.433969 
L 171.289982 -208.844373 
L 171.685094 -209.237827 
L 172.080206 -209.614213 
L 172.475317 -209.973419 
L 172.870429 -210.315338 
L 173.265541 -210.639866 
L 173.660653 -210.946908 
L 174.055765 -211.23637 
L 174.450877 -211.508166 
L 174.845989 -211.762214 
L 175.241101 -211.998438 
L 175.636213 -212.216766 
L 176.031325 -212.417133 
L 176.426437 -212.599478 
L 176.821549 -212.763745 
L 177.216661 -212.909887 
L 177.611772 -213.037857 
L 178.006884 -213.147618 
L 178.401996 -213.239137 
L 178.797108 -213.312385 
L 179.19222 -213.36734 
L 179.587332 -213.403987 
L 179.982444 -213.422312 
L 180.377556 -213.422313 
L 180.772668 -213.403987 
L 181.16778 -213.36734 
L 181.562892 -213.312385 
L 181.958004 -213.239137 
L 182.353116 -213.147618 
L 182.748228 -213.037857 
L 183.143339 -212.909887 
L 183.538451 -212.763745 
L 183.933563 -212.599478 
L 184.328675 -212.417133 
L 184.723787 -212.216766 
L 185.118899 -211.998438 
L 185.514011 -211.762214 
L 185.909123 -211.508166 
L 186.304235 -211.23637 
L 186.699347 -210.946908 
L 187.094459 -210.639866 
L 187.489571 -210.315338 
L 187.884683 -209.973419 
L 188.279794 -209.614213 
L 188.674906 -209.237827 
L 189.070018 -208.844373 
L 189.46513 -208.433969 
L 189.860242 -208.006736 
L 190.255354 -207.562802 
L 190.650466 -207.102298 
L 191.045578 -206.625361 
L 191.44069 -206.132131 
L 191.835802 -205.622755 
L 192.230914 -205.097381 
L 192.626026 -204.556165 
L 193.021138 -203.999265 
L 193.416249 -203.426844 
L 193.811361 -202.83907 
L 194.206473 -202.236112 
L 194.601585 -201.618147 
L 194.996697 -200.985354 
L 195.391809 -200.337915 
L 195.786921 -199.676018 
L 196.182033 -198.999851 
L 196.577145 -198.30961 
L 196.972257 -197.605492 
L 197.367369 -196.887696 
L 197.762481 -196.156428 
L 198.157593 -195.411894 
L 198.552704 -194.654305 
L 198.947816 -193.883874 
L 199.342928 -193.100816 
L 199.73804 -192.305351 
L 200.133152 -191.4977 
L 200.528264 -190.678088 
L 200.923376 -189.846741 
L 201.318488 -189.003887 
L 201.7136 -188.149759 
L 202.108712 -187.28459 
L 202.503824 -186.408614 
L 202.898936 -185.52207 
L 203.294048 -184.625197 
L 203.689159 -183.718235 
L 204.084271 -182.801427 
L 204.479383 -181.875018 
L 204.874495 -180.939253 
L 205.269607 -179.994379 
L 205.664719 -179.040643 
L 206.059831 -178.078296 
L 206.454943 -177.107586 
L 206.850055 -176.128766 
L 207.245167 -175.142087 
L 207.640279 -174.1478 
L 208.035391 -173.14616 
L 208.430503 -172.13742 
L 208.825614 -171.121834 
L 209.220726 -170.099654 
L 209.615838 -169.071137 
L 210.01095 -168.036535 
L 210.406062 -166.996103 
L 210.801174 -165.950096 
L 211.196286 -164.898766 
L 211.591398 -163.842366 
L 211.98651 -162.781151 
L 212.381622 -161.715371 
L 212.776734 -160.64528 
L 213.171846 -159.571126 
L 213.566958 -158.493161 
L 213.962069 -157.411634 
L 214.357181 -156.326792 
L 214.752293 -155.238883 
L 215.147405 -154.148151 
L 215.542517 -153.054842 
L 215.937629 -151.959198 
L 216.332741 -150.861461 
L 216.727853 -149.76187 
L 217.122965 -148.660664 
L 217.518077 -147.55808 
L 217.913189 -146.454351 
L 218.308301 -145.349712 
L 218.703413 -144.244392 
L 219.098524 -143.138621 
L 219.493636 -142.032625 
L 219.493636 -31.982312 
L 219.493636 -31.982312 
L 219.098524 -31.982312 
L 218.703413 -31.982312 
L 218.308301 -31.982312 
L 217.913189 -31.982312 
L 217.518077 -31.982312 
L 217.122965 -31.982312 
L 216.727853 -31.982312 
L 216.332741 -31.982312 
L 215.937629 -31.982312 
L 215.542517 -31.982312 
L 215.147405 -31.982312 
L 214.752293 -31.982312 
L 214.357181 -31.982312 
L 213.962069 -31.982312 
L 213.566958 -31.982312 
L 213.171846 -31.982312 
L 212.776734 -31.982312 
L 212.381622 -31.982312 
L 211.98651 -31.982312 
L 211.591398 -31.982312 
L 211.196286 -31.982312 
L 210.801174 -31.982312 
L 210.406062 -31.982312 
L 210.01095 -31.982312 
L 209.615838 -31.982312 
L 209.220726 -31.982312 
L 208.825614 -31.982312 
L 208.430503 -31.982312 
L 208.035391 -31.982312 
L 207.640279 -31.982312 
L 207.245167 -31.982312 
L 206.850055 -31.982312 
L 206.454943 -31.982312 
L 206.059831 -31.982312 
L 205.664719 -31.982312 
L 205.269607 -31.982312 
L 204.874495 -31.982312 
L 204.479383 -31.982312 
L 204.084271 -31.982312 
L 203.689159 -31.982312 
L 203.294048 -31.982312 
L 202.898936 -31.982312 
L 202.503824 -31.982312 
L 202.108712 -31.982312 
L 201.7136 -31.982312 
L 201.318488 -31.982312 
L 200.923376 -31.982312 
L 200.528264 -31.982312 
L 200.133152 -31.982312 
L 199.73804 -31.982312 
L 199.342928 -31.982312 
L 198.947816 -31.982312 
L 198.552704 -31.982312 
L 198.157593 -31.982312 
L 197.762481 -31.982312 
L 197.367369 -31.982312 
L 196.972257 -31.982312 
L 196.577145 -31.982312 
L 196.182033 -31.982312 
L 195.786921 -31.982312 
L 195.391809 -31.982312 
L 194.996697 -31.982312 
L 194.601585 -31.982312 
L 194.206473 -31.982312 
L 193.811361 -31.982312 
L 193.416249 -31.982312 
L 193.021138 -31.982312 
L 192.626026 -31.982312 
L 192.230914 -31.982312 
L 191.835802 -31.982312 
L 191.44069 -31.982312 
L 191.045578 -31.982312 
L 190.650466 -31.982312 
L 190.255354 -31.982312 
L 189.860242 -31.982312 
L 189.46513 -31.982312 
L 189.070018 -31.982312 
L 188.674906 -31.982312 
L 188.279794 -31.982312 
L 187.884683 -31.982312 
L 187.489571 -31.982312 
L 187.094459 -31.982312 
L 186.699347 -31.982312 
L 186.304235 -31.982312 
L 185.909123 -31.982312 
L 185.514011 -31.982312 
L 185.118899 -31.982312 
L 184.723787 -31.982312 
L 184.328675 -31.982312 
L 183.933563 -31.982312 
L 183.538451 -31.982312 
L 183.143339 -31.982312 
L 182.748228 -31.982312 
L 182.353116 -31.982312 
L 181.958004 -31.982312 
L 181.562892 -31.982312 
L 181.16778 -31.982312 
L 180.772668 -31.982312 
L 180.377556 -31.982312 
L 179.982444 -31.982312 
L 179.587332 -31.982312 
L 179.19222 -31.982312 
L 178.797108 -31.982312 
L 178.401996 -31.982312 
L 178.006884 -31.982312 
L 177.611772 -31.982312 
L 177.216661 -31.982312 
L 176.821549 -31.982312 
L 176.426437 -31.982312 
L 176.031325 -31.982312 
L 175.636213 -31.982312 
L 175.241101 -31.982312 
L 174.845989 -31.982312 
L 174.450877 -31.982312 
L 174.055765 -31.982312 
L 173.660653 -31.982312 
L 173.265541 -31.982312 
L 172.870429 -31.982312 
L 172.475317 -31.982312 
L 172.080206 -31.982312 
L 171.685094 -31.982312 
L 171.289982 -31.982312 
L 170.89487 -31.982312 
L 170.499758 -31.982312 
L 170.104646 -31.982312 
L 169.709534 -31.982312 
L 169.314422 -31.982312 
L 168.91931 -31.982312 
L 168.524198 -31.982312 
L 168.129086 -31.982312 
L 167.733974 -31.982312 
L 167.338862 -31.982312 
L 166.943751 -31.982312 
L 166.548639 -31.982312 
L 166.153527 -31.982312 
L 165.758415 -31.982312 
L 165.363303 -31.982312 
L 164.968191 -31.982312 
L 164.573079 -31.982312 
L 164.177967 -31.982312 
L 163.782855 -31.982312 
L 163.387743 -31.982312 
L 162.992631 -31.982312 
L 162.597519 -31.982312 
L 162.202407 -31.982312 
L 161.807296 -31.982312 
L 161.412184 -31.982312 
L 161.017072 -31.982312 
L 160.62196 -31.982312 
L 160.226848 -31.982312 
L 159.831736 -31.982312 
L 159.436624 -31.982312 
L 159.041512 -31.982312 
L 158.6464 -31.982312 
L 158.251288 -31.982312 
L 157.856176 -31.982312 
L 157.461064 -31.982312 
L 157.065952 -31.982312 
L 156.670841 -31.982312 
L 156.275729 -31.982312 
L 155.880617 -31.982312 
L 155.485505 -31.982312 
L 155.090393 -31.982312 
L 154.695281 -31.982312 
L 154.300169 -31.982312 
L 153.905057 -31.982312 
L 153.509945 -31.982312 
L 153.114833 -31.982312 
L 152.719721 -31.982312 
L 152.324609 -31.982312 
L 151.929497 -31.982312 
L 151.534386 -31.982312 
L 151.139274 -31.982312 
L 150.744162 -31.982312 
L 150.34905 -31.982312 
L 149.953938 -31.982312 
L 149.558826 -31.982312 
L 149.163714 -31.982312 
L 148.768602 -31.982312 
L 148.37349 -31.982312 
L 147.978378 -31.982312 
L 147.583266 -31.982312 
L 147.188154 -31.982312 
L 146.793042 -31.982312 
L 146.397931 -31.982312 
L 146.002819 -31.982312 
L 145.607707 -31.982312 
L 145.212595 -31.982312 
L 144.817483 -31.982312 
L 144.422371 -31.982312 
L 144.027259 -31.982312 
L 143.632147 -31.982312 
L 143.237035 -31.982312 
L 142.841923 -31.982312 
L 142.446811 -31.982312 
L 142.051699 -31.982312 
L 141.656587 -31.982312 
L 141.261476 -31.982312 
L 140.866364 -31.982312 
z
" style="stroke: #b6d0ff"/>
    </defs>
    <g clip-path="url(#p824edf1605)">
     <use xlink:href="#mf3b98e7158" x="0" y="229.694312" style="fill: #b6d0ff; stroke: #b6d0ff"/>
    </g>
   </g>
   <g id="matplotlib.axis_1">
    <g id="xtick_1">
     <g id="line2d_1">
      <defs>
       <path id="m2d36626db4" d="M 0 0 
L 0 3.5 
" style="stroke: #000000; stroke-width: 0.8"/>
      </defs>
      <g>
       <use xlink:href="#m2d36626db4" x="62.239091" y="206.784" style="stroke: #000000; stroke-width: 0.8"/>
      </g>
     </g>
     <g id="text_1">
      <!-- $\mu-3\sigma$ -->
      <g transform="translate(49.594091 220.514312) scale(0.09 -0.09)">
       <defs>
        <path id="Cmmi10-b9" d="M 178 -1203 
Q 178 -1166 184 -1153 
L 1125 2625 
Q 1153 2716 1226 2772 
Q 1300 2828 1394 2828 
Q 1475 2828 1531 2779 
Q 1588 2731 1588 2650 
Q 1588 2631 1586 2620 
Q 1584 2609 1581 2597 
L 1203 1100 
Q 1141 834 1141 641 
Q 1141 403 1253 250 
Q 1366 97 1594 97 
Q 2059 97 2413 678 
Q 2416 684 2417 687 
Q 2419 691 2419 697 
L 2881 2553 
Q 2903 2638 2981 2698 
Q 3059 2759 3150 2759 
Q 3225 2759 3283 2709 
Q 3341 2659 3341 2578 
Q 3341 2541 3334 2528 
L 2875 684 
Q 2828 503 2828 372 
Q 2828 97 3016 97 
Q 3216 97 3317 344 
Q 3419 591 3494 941 
Q 3506 978 3547 978 
L 3622 978 
Q 3647 978 3664 958 
Q 3681 938 3681 916 
Q 3569 469 3436 198 
Q 3303 -72 3003 -72 
Q 2791 -72 2627 50 
Q 2463 172 2413 378 
Q 2253 178 2039 53 
Q 1825 -72 1588 -72 
Q 1188 -72 959 116 
L 634 -1178 
Q 616 -1269 541 -1325 
Q 466 -1381 372 -1381 
Q 294 -1381 236 -1332 
Q 178 -1284 178 -1203 
z
" transform="scale(0.015625)"/>
        <path id="Cmsy10-a1" d="M 653 1472 
Q 600 1472 565 1512 
Q 531 1553 531 1600 
Q 531 1647 565 1687 
Q 600 1728 653 1728 
L 4325 1728 
Q 4375 1728 4408 1687 
Q 4441 1647 4441 1600 
Q 4441 1553 4408 1512 
Q 4375 1472 4325 1472 
L 653 1472 
z
" transform="scale(0.015625)"/>
        <path id="Cmr10-33" d="M 609 494 
Q 759 275 1012 169 
Q 1266 63 1556 63 
Q 1928 63 2084 380 
Q 2241 697 2241 1100 
Q 2241 1281 2208 1462 
Q 2175 1644 2097 1800 
Q 2019 1956 1883 2050 
Q 1747 2144 1550 2144 
L 1125 2144 
Q 1069 2144 1069 2203 
L 1069 2259 
Q 1069 2309 1125 2309 
L 1478 2338 
Q 1703 2338 1851 2506 
Q 2000 2675 2069 2917 
Q 2138 3159 2138 3378 
Q 2138 3684 1994 3881 
Q 1850 4078 1556 4078 
Q 1313 4078 1091 3986 
Q 869 3894 738 3706 
Q 750 3709 759 3711 
Q 769 3713 781 3713 
Q 925 3713 1022 3613 
Q 1119 3513 1119 3372 
Q 1119 3234 1022 3134 
Q 925 3034 781 3034 
Q 641 3034 541 3134 
Q 441 3234 441 3372 
Q 441 3647 606 3850 
Q 772 4053 1033 4158 
Q 1294 4263 1556 4263 
Q 1750 4263 1965 4205 
Q 2181 4147 2356 4039 
Q 2531 3931 2642 3762 
Q 2753 3594 2753 3378 
Q 2753 3109 2633 2881 
Q 2513 2653 2303 2487 
Q 2094 2322 1844 2241 
Q 2122 2188 2372 2031 
Q 2622 1875 2773 1631 
Q 2925 1388 2925 1106 
Q 2925 753 2731 467 
Q 2538 181 2222 20 
Q 1906 -141 1556 -141 
Q 1256 -141 954 -26 
Q 653 88 461 316 
Q 269 544 269 863 
Q 269 1022 375 1128 
Q 481 1234 641 1234 
Q 744 1234 830 1186 
Q 916 1138 964 1050 
Q 1013 963 1013 863 
Q 1013 706 903 600 
Q 794 494 641 494 
L 609 494 
z
" transform="scale(0.015625)"/>
        <path id="Cmmi10-be" d="M 1197 -72 
Q 913 -72 692 64 
Q 472 200 351 431 
Q 231 663 231 941 
Q 231 1238 365 1566 
Q 500 1894 733 2166 
Q 966 2438 1259 2598 
Q 1553 2759 1863 2759 
L 3475 2759 
Q 3541 2759 3587 2715 
Q 3634 2672 3634 2597 
Q 3634 2503 3567 2433 
Q 3500 2363 3406 2363 
L 2625 2363 
Q 2809 2088 2809 1697 
Q 2809 1375 2684 1062 
Q 2559 750 2337 492 
Q 2116 234 1820 81 
Q 1525 -72 1197 -72 
z
M 1203 97 
Q 1553 97 1823 370 
Q 2094 644 2237 1039 
Q 2381 1434 2381 1772 
Q 2381 2047 2229 2205 
Q 2078 2363 1806 2363 
Q 1434 2363 1173 2113 
Q 913 1863 783 1484 
Q 653 1106 653 756 
Q 653 481 798 289 
Q 944 97 1203 97 
z
" transform="scale(0.015625)"/>
       </defs>
       <use xlink:href="#Cmmi10-b9" transform="translate(0 0.390625)"/>
       <use xlink:href="#Cmsy10-a1" transform="translate(77.763672 0.390625)"/>
       <use xlink:href="#Cmr10-33" transform="translate(173.007812 0.390625)"/>
       <use xlink:href="#Cmmi10-be" transform="translate(223.007812 0.390625)"/>
      </g>
     </g>
    </g>
    <g id="xtick_2">
     <g id="line2d_2">
      <g>
       <use xlink:href="#m2d36626db4" x="101.552727" y="206.784" style="stroke: #000000; stroke-width: 0.8"/>
      </g>
     </g>
     <g id="text_2">
      <!-- $-2\sigma$ -->
      <g transform="translate(93.227727 220.622594) scale(0.09 -0.09)">
       <defs>
        <path id="Cmr10-32" d="M 319 0 
L 319 172 
Q 319 188 331 206 
L 1325 1306 
Q 1550 1550 1690 1715 
Q 1831 1881 1968 2097 
Q 2106 2313 2186 2536 
Q 2266 2759 2266 3009 
Q 2266 3272 2169 3511 
Q 2072 3750 1880 3894 
Q 1688 4038 1416 4038 
Q 1138 4038 916 3870 
Q 694 3703 603 3438 
Q 628 3444 672 3444 
Q 816 3444 917 3347 
Q 1019 3250 1019 3097 
Q 1019 2950 917 2848 
Q 816 2747 672 2747 
Q 522 2747 420 2851 
Q 319 2956 319 3097 
Q 319 3338 409 3548 
Q 500 3759 670 3923 
Q 841 4088 1055 4175 
Q 1269 4263 1509 4263 
Q 1875 4263 2190 4108 
Q 2506 3953 2690 3670 
Q 2875 3388 2875 3009 
Q 2875 2731 2753 2481 
Q 2631 2231 2440 2026 
Q 2250 1822 1953 1562 
Q 1656 1303 1563 1216 
L 838 519 
L 1453 519 
Q 1906 519 2211 526 
Q 2516 534 2534 550 
Q 2609 631 2688 1141 
L 2875 1141 
L 2694 0 
L 319 0 
z
" transform="scale(0.015625)"/>
       </defs>
       <use xlink:href="#Cmsy10-a1" transform="translate(0 0.390625)"/>
       <use xlink:href="#Cmr10-32" transform="translate(77.685547 0.390625)"/>
       <use xlink:href="#Cmmi10-be" transform="translate(127.685547 0.390625)"/>
      </g>
     </g>
    </g>
    <g id="xtick_3">
     <g id="line2d_3">
      <g>
       <use xlink:href="#m2d36626db4" x="140.866364" y="206.784" style="stroke: #000000; stroke-width: 0.8"/>
      </g>
     </g>
     <g id="text_3">
      <!-- $-\sigma$ -->
      <g transform="translate(134.791364 220.622594) scale(0.09 -0.09)">
       <use xlink:href="#Cmsy10-a1" transform="translate(0 0.890625)"/>
       <use xlink:href="#Cmmi10-be" transform="translate(77.685547 0.890625)"/>
      </g>
     </g>
    </g>
    <g id="xtick_4">
     <g id="line2d_4">
      <g>
       <use xlink:href="#m2d36626db4" x="180.18" y="206.784" style="stroke: #000000; stroke-width: 0.8"/>
      </g>
     </g>
     <g id="text_4">
      <!-- $\mu$ -->
      <g transform="translate(177.435 220.514312) scale(0.09 -0.09)">
       <use xlink:href="#Cmmi10-b9" transform="translate(0 0.8125)"/>
      </g>
     </g>
    </g>
    <g id="xtick_5">
     <g id="line2d_5">
      <g>
       <use xlink:href="#m2d36626db4" x="219.493636" y="206.784" style="stroke: #000000; stroke-width: 0.8"/>
      </g>
     </g>
     <g id="text_5">
      <!-- $\sigma$ -->
      <g transform="translate(216.883636 220.622594) scale(0.09 -0.09)">
       <use xlink:href="#Cmmi10-be" transform="translate(0 0.890625)"/>
      </g>
     </g>
    </g>
    <g id="xtick_6">
     <g id="line2d_6">
      <g>
       <use xlink:href="#m2d36626db4" x="258.807273" y="206.784" style="stroke: #000000; stroke-width: 0.8"/>
      </g>
     </g>
     <g id="text_6">
      <!-- $2\sigma$ -->
      <g transform="translate(253.947273 220.622594) scale(0.09 -0.09)">
       <use xlink:href="#Cmr10-32" transform="translate(0 0.390625)"/>
       <use xlink:href="#Cmmi10-be" transform="translate(50 0.390625)"/>
      </g>
     </g>
    </g>
    <g id="xtick_7">
     <g id="line2d_7">
      <g>
       <use xlink:href="#m2d36626db4" x="298.120909" y="206.784" style="stroke: #000000; stroke-width: 0.8"/>
      </g>
     </g>
     <g id="text_7">
      <!-- $\mu+3\sigma$ -->
      <g transform="translate(285.475909 220.514312) scale(0.09 -0.09)">
       <defs>
        <path id="Cmr10-2b" d="M 481 1472 
Q 428 1472 393 1512 
Q 359 1553 359 1600 
Q 359 1647 393 1687 
Q 428 1728 481 1728 
L 2363 1728 
L 2363 3616 
Q 2363 3666 2400 3698 
Q 2438 3731 2491 3731 
Q 2538 3731 2578 3698 
Q 2619 3666 2619 3616 
L 2619 1728 
L 4500 1728 
Q 4547 1728 4581 1687 
Q 4616 1647 4616 1600 
Q 4616 1553 4581 1512 
Q 4547 1472 4500 1472 
L 2619 1472 
L 2619 -416 
Q 2619 -466 2578 -498 
Q 2538 -531 2491 -531 
Q 2438 -531 2400 -498 
Q 2363 -466 2363 -416 
L 2363 1472 
L 481 1472 
z
" transform="scale(0.015625)"/>
       </defs>
       <use xlink:href="#Cmmi10-b9" transform="translate(0 0.390625)"/>
       <use xlink:href="#Cmr10-2b" transform="translate(77.763672 0.390625)"/>
       <use xlink:href="#Cmr10-33" transform="translate(173.007812 0.390625)"/>
       <use xlink:href="#Cmmi10-be" transform="translate(223.007812 0.390625)"/>
      </g>
     </g>
    </g>
   </g>
   <g id="matplotlib.axis_2"/>
   <g id="line2d_8">
    <path d="M 22.925455 197.651133 
L 37.902078 197.452193 
L 47.360998 197.109105 
L 54.455188 196.62072 
L 59.972891 196.019268 
L 64.702351 195.284299 
L 68.643568 194.469353 
L 72.584785 193.424151 
L 75.737758 192.388849 
L 78.890731 191.145945 
L 82.043705 189.664761 
L 85.196678 187.912682 
L 88.349651 185.855641 
L 91.502625 183.458767 
L 93.867355 181.417098 
L 96.232085 179.150255 
L 98.596815 176.644426 
L 100.961545 173.886668 
L 103.326275 170.865227 
L 106.479248 166.409045 
L 109.632221 161.447211 
L 112.785195 155.968244 
L 115.938168 149.969576 
L 119.091141 143.458972 
L 122.244115 136.4558 
L 126.185332 127.0592 
L 130.126548 117.036073 
L 134.856008 104.360778 
L 142.738442 82.425203 
L 149.044388 65.114062 
L 152.985605 54.8766 
L 156.138578 47.213383 
L 159.291552 40.155716 
L 161.656282 35.332966 
L 164.021012 30.966981 
L 166.385742 27.102001 
L 168.750472 23.77788 
L 170.326958 21.879681 
L 171.903445 20.246366 
L 173.479932 18.885668 
L 175.056418 17.804067 
L 176.632905 17.006737 
L 178.209392 16.497507 
L 179.785878 16.278827 
L 181.362365 16.351749 
L 182.938852 16.715924 
L 184.515338 17.369597 
L 186.091825 18.309626 
L 187.668312 19.531504 
L 189.244798 21.029401 
L 190.821285 22.796201 
L 192.397772 24.823567 
L 194.762502 28.332102 
L 197.127232 32.368743 
L 199.491962 36.892095 
L 201.856692 41.856616 
L 205.009665 49.077293 
L 208.162638 56.872259 
L 212.103855 67.229225 
L 217.621558 82.425203 
L 227.868722 110.7724 
L 232.598182 123.118844 
L 236.539398 132.778988 
L 239.692372 140.017263 
L 242.845345 146.777341 
L 245.998319 153.033645 
L 249.151292 158.772756 
L 252.304265 163.992244 
L 255.457239 168.699317 
L 258.610212 172.909359 
L 261.763185 176.644426 
L 264.916159 179.931757 
L 268.069132 182.802351 
L 271.222105 185.289651 
L 274.375079 187.428366 
L 277.528052 189.253448 
L 280.681025 190.799231 
L 283.833999 192.098747 
L 286.986972 193.183194 
L 290.928189 194.28024 
L 294.869405 195.137545 
L 299.598865 195.912608 
L 305.116569 196.548688 
L 311.422515 197.02219 
L 319.304949 197.365815 
L 330.340355 197.58875 
L 337.434545 197.651133 
L 337.434545 197.651133 
" clip-path="url(#p824edf1605)" style="fill: none; stroke: #1f6feb; stroke-width: 2.3; stroke-linecap: square"/>
   </g>
   <g id="line2d_9">
    <path d="M 22.925455 197.651133 
L 37.902078 197.452193 
L 47.360998 197.109105 
L 54.455188 196.62072 
L 59.972891 196.019268 
L 64.702351 195.284299 
L 68.643568 194.469353 
L 72.584785 193.424151 
L 75.737758 192.388849 
L 78.890731 191.145945 
L 82.043705 189.664761 
L 85.196678 187.912682 
L 88.349651 185.855641 
L 91.502625 183.458767 
L 93.867355 181.417098 
L 96.232085 179.150255 
L 98.596815 176.644426 
L 100.961545 173.886668 
L 103.326275 170.865227 
L 106.479248 166.409045 
L 109.632221 161.447211 
L 112.785195 155.968244 
L 115.938168 149.969576 
L 119.091141 143.458972 
L 122.244115 136.4558 
L 126.185332 127.0592 
L 130.126548 117.036073 
L 134.856008 104.360778 
L 142.738442 82.425203 
L 149.044388 65.114062 
L 152.985605 54.8766 
L 156.138578 47.213383 
L 159.291552 40.155716 
L 161.656282 35.332966 
L 164.021012 30.966981 
L 166.385742 27.102001 
L 168.750472 23.77788 
L 170.326958 21.879681 
L 171.903445 20.246366 
L 173.479932 18.885668 
L 175.056418 17.804067 
L 176.632905 17.006737 
L 178.209392 16.497507 
L 179.785878 16.278827 
L 181.362365 16.351749 
L 182.938852 16.715924 
L 184.515338 17.369597 
L 186.091825 18.309626 
L 187.668312 19.531504 
L 189.244798 21.029401 
L 190.821285 22.796201 
L 192.397772 24.823567 
L 194.762502 28.332102 
L 197.127232 32.368743 
L 199.491962 36.892095 
L 201.856692 41.856616 
L 205.009665 49.077293 
L 208.162638 56.872259 
L 212.103855 67.229225 
L 217.621558 82.425203 
L 227.868722 110.7724 
L 232.598182 123.118844 
L 236.539398 132.778988 
L 239.692372 140.017263 
L 242.845345 146.777341 
L 245.998319 153.033645 
L 249.151292 158.772756 
L 252.304265 163.992244 
L 255.457239 168.699317 
L 258.610212 172.909359 
L 261.763185 176.644426 
L 264.916159 179.931757 
L 268.069132 182.802351 
L 271.222105 185.289651 
L 274.375079 187.428366 
L 277.528052 189.253448 
L 280.681025 190.799231 
L 283.833999 192.098747 
L 286.986972 193.183194 
L 290.928189 194.28024 
L 294.869405 195.137545 
L 299.598865 195.912608 
L 305.116569 196.548688 
L 311.422515 197.02219 
L 319.304949 197.365815 
L 330.340355 197.58875 
L 337.434545 197.651133 
L 337.434545 197.651133 
" clip-path="url(#p824edf1605)" style="fill: none; stroke: #1f6feb; stroke-width: 2.3; stroke-linecap: square"/>
   </g>
   <g id="patch_3">
    <path d="M 7.2 206.784 
L 353.16 206.784 
" style="fill: none; stroke: #333333; stroke-width: 0.8; stroke-linejoin: miter; stroke-linecap: square"/>
   </g>
   <g id="text_8">
    <!-- 68,3% -->
    <g transform="translate(165.884766 124.94266) scale(0.09 -0.09)">
     <defs>
      <path id="DejaVuSans-36" d="M 2113 2584 
Q 1688 2584 1439 2293 
Q 1191 2003 1191 1497 
Q 1191 994 1439 701 
Q 1688 409 2113 409 
Q 2538 409 2786 701 
Q 3034 994 3034 1497 
Q 3034 2003 2786 2293 
Q 2538 2584 2113 2584 
z
M 3366 4563 
L 3366 3988 
Q 3128 4100 2886 4159 
Q 2644 4219 2406 4219 
Q 1781 4219 1451 3797 
Q 1122 3375 1075 2522 
Q 1259 2794 1537 2939 
Q 1816 3084 2150 3084 
Q 2853 3084 3261 2657 
Q 3669 2231 3669 1497 
Q 3669 778 3244 343 
Q 2819 -91 2113 -91 
Q 1303 -91 875 529 
Q 447 1150 447 2328 
Q 447 3434 972 4092 
Q 1497 4750 2381 4750 
Q 2619 4750 2861 4703 
Q 3103 4656 3366 4563 
z
" transform="scale(0.015625)"/>
      <path id="DejaVuSans-38" d="M 2034 2216 
Q 1584 2216 1326 1975 
Q 1069 1734 1069 1313 
Q 1069 891 1326 650 
Q 1584 409 2034 409 
Q 2484 409 2743 651 
Q 3003 894 3003 1313 
Q 3003 1734 2745 1975 
Q 2488 2216 2034 2216 
z
M 1403 2484 
Q 997 2584 770 2862 
Q 544 3141 544 3541 
Q 544 4100 942 4425 
Q 1341 4750 2034 4750 
Q 2731 4750 3128 4425 
Q 3525 4100 3525 3541 
Q 3525 3141 3298 2862 
Q 3072 2584 2669 2484 
Q 3125 2378 3379 2068 
Q 3634 1759 3634 1313 
Q 3634 634 3220 271 
Q 2806 -91 2034 -91 
Q 1263 -91 848 271 
Q 434 634 434 1313 
Q 434 1759 690 2068 
Q 947 2378 1403 2484 
z
M 1172 3481 
Q 1172 3119 1398 2916 
Q 1625 2713 2034 2713 
Q 2441 2713 2670 2916 
Q 2900 3119 2900 3481 
Q 2900 3844 2670 4047 
Q 2441 4250 2034 4250 
Q 1625 4250 1398 4047 
Q 1172 3844 1172 3481 
z
" transform="scale(0.015625)"/>
      <path id="DejaVuSans-2c" d="M 750 794 
L 1409 794 
L 1409 256 
L 897 -744 
L 494 -744 
L 750 256 
L 750 794 
z
" transform="scale(0.015625)"/>
      <path id="DejaVuSans-33" d="M 2597 2516 
Q 3050 2419 3304 2112 
Q 3559 1806 3559 1356 
Q 3559 666 3084 287 
Q 2609 -91 1734 -91 
Q 1441 -91 1130 -33 
Q 819 25 488 141 
L 488 750 
Q 750 597 1062 519 
Q 1375 441 1716 441 
Q 2309 441 2620 675 
Q 2931 909 2931 1356 
Q 2931 1769 2642 2001 
Q 2353 2234 1838 2234 
L 1294 2234 
L 1294 2753 
L 1863 2753 
Q 2328 2753 2575 2939 
Q 2822 3125 2822 3475 
Q 2822 3834 2567 4026 
Q 2313 4219 1838 4219 
Q 1578 4219 1281 4162 
Q 984 4106 628 3988 
L 628 4550 
Q 988 4650 1302 4700 
Q 1616 4750 1894 4750 
Q 2613 4750 3031 4423 
Q 3450 4097 3450 3541 
Q 3450 3153 3228 2886 
Q 3006 2619 2597 2516 
z
" transform="scale(0.015625)"/>
      <path id="DejaVuSans-25" d="M 4653 2053 
Q 4381 2053 4226 1822 
Q 4072 1591 4072 1178 
Q 4072 772 4226 539 
Q 4381 306 4653 306 
Q 4919 306 5073 539 
Q 5228 772 5228 1178 
Q 5228 1588 5073 1820 
Q 4919 2053 4653 2053 
z
M 4653 2450 
Q 5147 2450 5437 2106 
Q 5728 1763 5728 1178 
Q 5728 594 5436 251 
Q 5144 -91 4653 -91 
Q 4153 -91 3862 251 
Q 3572 594 3572 1178 
Q 3572 1766 3864 2108 
Q 4156 2450 4653 2450 
z
M 1428 4353 
Q 1159 4353 1004 4120 
Q 850 3888 850 3481 
Q 850 3069 1003 2837 
Q 1156 2606 1428 2606 
Q 1700 2606 1854 2837 
Q 2009 3069 2009 3481 
Q 2009 3884 1853 4118 
Q 1697 4353 1428 4353 
z
M 4250 4750 
L 4750 4750 
L 1831 -91 
L 1331 -91 
L 4250 4750 
z
M 1428 4750 
Q 1922 4750 2215 4408 
Q 2509 4066 2509 3481 
Q 2509 2891 2217 2550 
Q 1925 2209 1428 2209 
Q 931 2209 642 2551 
Q 353 2894 353 3481 
Q 353 4063 643 4406 
Q 934 4750 1428 4750 
z
" transform="scale(0.015625)"/>
     </defs>
     <use xlink:href="#DejaVuSans-36"/>
     <use xlink:href="#DejaVuSans-38" transform="translate(63.623047 0)"/>
     <use xlink:href="#DejaVuSans-2c" transform="translate(127.246094 0)"/>
     <use xlink:href="#DejaVuSans-33" transform="translate(159.033203 0)"/>
     <use xlink:href="#DejaVuSans-25" transform="translate(222.65625 0)"/>
    </g>
   </g>
   <g id="text_9">
    <!-- 95,4% -->
    <g transform="translate(165.884766 177.245623) scale(0.09 -0.09)">
     <defs>
      <path id="DejaVuSans-39" d="M 703 97 
L 703 672 
Q 941 559 1184 500 
Q 1428 441 1663 441 
Q 2288 441 2617 861 
Q 2947 1281 2994 2138 
Q 2813 1869 2534 1725 
Q 2256 1581 1919 1581 
Q 1219 1581 811 2004 
Q 403 2428 403 3163 
Q 403 3881 828 4315 
Q 1253 4750 1959 4750 
Q 2769 4750 3195 4129 
Q 3622 3509 3622 2328 
Q 3622 1225 3098 567 
Q 2575 -91 1691 -91 
Q 1453 -91 1209 -44 
Q 966 3 703 97 
z
M 1959 2075 
Q 2384 2075 2632 2365 
Q 2881 2656 2881 3163 
Q 2881 3666 2632 3958 
Q 2384 4250 1959 4250 
Q 1534 4250 1286 3958 
Q 1038 3666 1038 3163 
Q 1038 2656 1286 2365 
Q 1534 2075 1959 2075 
z
" transform="scale(0.015625)"/>
      <path id="DejaVuSans-35" d="M 691 4666 
L 3169 4666 
L 3169 4134 
L 1269 4134 
L 1269 2991 
Q 1406 3038 1543 3061 
Q 1681 3084 1819 3084 
Q 2600 3084 3056 2656 
Q 3513 2228 3513 1497 
Q 3513 744 3044 326 
Q 2575 -91 1722 -91 
Q 1428 -91 1123 -41 
Q 819 9 494 109 
L 494 744 
Q 775 591 1075 516 
Q 1375 441 1709 441 
Q 2250 441 2565 725 
Q 2881 1009 2881 1497 
Q 2881 1984 2565 2268 
Q 2250 2553 1709 2553 
Q 1456 2553 1204 2497 
Q 953 2441 691 2322 
L 691 4666 
z
" transform="scale(0.015625)"/>
      <path id="DejaVuSans-34" d="M 2419 4116 
L 825 1625 
L 2419 1625 
L 2419 4116 
z
M 2253 4666 
L 3047 4666 
L 3047 1625 
L 3713 1625 
L 3713 1100 
L 3047 1100 
L 3047 0 
L 2419 0 
L 2419 1100 
L 313 1100 
L 313 1709 
L 2253 4666 
z
" transform="scale(0.015625)"/>
     </defs>
     <use xlink:href="#DejaVuSans-39"/>
     <use xlink:href="#DejaVuSans-35" transform="translate(63.623047 0)"/>
     <use xlink:href="#DejaVuSans-2c" transform="translate(127.246094 0)"/>
     <use xlink:href="#DejaVuSans-34" transform="translate(159.033203 0)"/>
     <use xlink:href="#DejaVuSans-25" transform="translate(222.65625 0)"/>
    </g>
   </g>
   <g id="text_10">
    <!-- 99,7% -->
    <g transform="translate(165.884766 192.254299) scale(0.09 -0.09)">
     <defs>
      <path id="DejaVuSans-37" d="M 525 4666 
L 3525 4666 
L 3525 4397 
L 1831 0 
L 1172 0 
L 2766 4134 
L 525 4134 
L 525 4666 
z
" transform="scale(0.015625)"/>
     </defs>
     <use xlink:href="#DejaVuSans-39"/>
     <use xlink:href="#DejaVuSans-39" transform="translate(63.623047 0)"/>
     <use xlink:href="#DejaVuSans-2c" transform="translate(127.246094 0)"/>
     <use xlink:href="#DejaVuSans-37" transform="translate(159.033203 0)"/>
     <use xlink:href="#DejaVuSans-25" transform="translate(222.65625 0)"/>
    </g>
   </g>
  </g>
 </g>
 <defs>
  <clipPath id="p824edf1605">
   <rect x="7.2" y="7.2" width="345.96" height="199.584"/>
  </clipPath>
 </defs>
</svg>
