<?xml version="1.0" encoding="utf-8" standalone="no"?>
<!DOCTYPE svg PUBLIC "-//W3C//DTD SVG 1.1//EN"
  "http://www.w3.org/Graphics/SVG/1.1/DTD/svg11.dtd">
<svg xmlns:xlink="http://www.w3.org/1999/xlink" width="273.322969pt" height="255.741562pt" viewBox="0 0 273.322969 255.741562" xmlns="http://www.w3.org/2000/svg" version="1.1">
 <metadata>
  <rdf:RDF xmlns:dc="http://purl.org/dc/elements/1.1/" xmlns:cc="http://creativecommons.org/ns#" xmlns:rdf="http://www.w3.org/1999/02/22-rdf-syntax-ns#">
   <cc:Work>
    <dc:type rdf:resource="http://purl.org/dc/dcmitype/StillImage"/>
    <dc:date>2026-06-07T17:27:02.757076</dc:date>
    <dc:format>image/svg+xml</dc:format>
    <dc:creator>
     <cc:Agent>
      <dc:title>Matplotlib v3.10.8, https://matplotlib.org/</dc:title>
     </cc:Agent>
    </dc:creator>
   </cc:Work>
  </rdf:RDF>
 </metadata>
 <defs>
  <style type="text/css">*{stroke-linejoin: round; stroke-linecap: butt}</style>
 </defs>
 <g id="figure_1">
  <g id="patch_1">
   <path d="M 0 255.741562 
L 273.322969 255.741562 
L 273.322969 0 
L 0 0 
z
" style="fill: #ffffff"/>
  </g>
  <g id="axes_1">
   <g id="patch_2">
    <path d="M 33.364844 228.96 
L 239.831051 228.96 
L 239.831051 7.2 
L 33.364844 7.2 
z
" style="fill: #ffffff"/>
   </g>
   <g id="FillBetweenPolyCollection_1">
    <defs>
     <path id="m2709fac71f" d="M 60.128982 -137.661563 
L 60.128982 -137.661563 
L 60.897514 -137.661563 
L 61.666046 -137.661563 
L 62.434579 -137.661563 
L 63.203111 -137.661563 
L 63.971643 -137.661563 
L 64.740176 -137.661563 
L 65.508708 -137.661563 
L 66.27724 -137.661563 
L 67.045773 -137.661563 
L 67.814305 -137.661563 
L 68.582837 -137.661563 
L 69.351369 -137.661563 
L 70.119902 -137.661563 
L 70.888434 -137.661563 
L 71.656966 -137.661563 
L 72.425499 -137.661563 
L 73.194031 -137.661563 
L 73.962563 -137.661563 
L 74.731096 -137.661563 
L 75.499628 -137.661563 
L 76.26816 -137.661563 
L 77.036693 -137.661563 
L 77.805225 -137.661563 
L 78.573757 -137.661563 
L 79.34229 -137.661563 
L 80.110822 -137.661563 
L 80.879354 -137.661563 
L 81.647887 -137.661563 
L 82.416419 -137.661563 
L 83.184951 -137.661563 
L 83.953484 -137.661563 
L 84.722016 -137.661563 
L 85.490548 -137.661563 
L 86.25908 -137.661563 
L 87.027613 -137.661563 
L 87.796145 -137.661563 
L 88.564677 -137.661563 
L 89.33321 -137.661563 
L 90.101742 -137.661563 
L 90.870274 -137.661563 
L 91.638807 -137.661563 
L 92.407339 -137.661563 
L 93.175871 -137.661563 
L 93.944404 -137.661563 
L 94.712936 -137.661563 
L 95.481468 -137.661563 
L 96.250001 -137.661563 
L 97.018533 -137.661563 
L 97.787065 -137.661563 
L 98.555598 -137.661563 
L 99.32413 -137.661563 
L 100.092662 -137.661563 
L 100.861194 -137.661563 
L 101.629727 -137.661563 
L 102.398259 -137.661563 
L 103.166791 -137.661563 
L 103.935324 -137.661563 
L 104.703856 -137.661563 
L 105.472388 -137.661563 
L 106.240921 -137.661563 
L 107.009453 -137.661563 
L 107.777985 -137.661563 
L 108.546518 -137.661563 
L 109.31505 -137.661563 
L 110.083582 -137.661563 
L 110.852115 -137.661563 
L 111.620647 -137.661563 
L 112.389179 -137.661563 
L 113.157712 -137.661563 
L 113.926244 -137.661563 
L 114.694776 -137.661563 
L 115.463308 -137.661563 
L 116.231841 -137.661563 
L 117.000373 -137.661563 
L 117.768905 -137.661563 
L 118.537438 -137.661563 
L 119.30597 -137.661563 
L 120.074502 -137.661563 
L 120.843035 -137.661563 
L 121.611567 -137.661563 
L 122.380099 -137.661563 
L 123.148632 -137.661563 
L 123.917164 -137.661563 
L 124.685696 -137.661563 
L 125.454229 -137.661563 
L 126.222761 -137.661563 
L 126.991293 -137.661563 
L 127.759826 -137.661563 
L 128.528358 -137.661563 
L 129.29689 -137.661563 
L 130.065423 -137.661563 
L 130.833955 -137.661563 
L 131.602487 -137.661563 
L 132.371019 -137.661563 
L 133.139552 -137.661563 
L 133.908084 -137.661563 
L 134.676616 -137.661563 
L 135.445149 -137.661563 
L 136.213681 -137.661563 
L 136.982213 -137.661563 
L 137.750746 -137.661563 
L 138.519278 -137.661563 
L 139.28781 -137.661563 
L 140.056343 -137.661563 
L 140.824875 -137.661563 
L 141.593407 -137.661563 
L 142.36194 -137.661563 
L 143.130472 -137.661563 
L 143.899004 -137.661563 
L 144.667537 -137.661563 
L 145.436069 -137.661563 
L 146.204601 -137.661563 
L 146.973133 -137.661563 
L 147.741666 -137.661563 
L 148.510198 -137.661563 
L 149.27873 -137.661563 
L 150.047263 -137.661563 
L 150.815795 -137.661563 
L 151.584327 -137.661563 
L 152.35286 -137.661563 
L 153.121392 -137.661563 
L 153.889924 -137.661563 
L 154.658457 -137.661563 
L 155.426989 -137.661563 
L 156.195521 -137.661563 
L 156.964054 -137.661563 
L 157.732586 -137.661563 
L 158.501118 -137.661563 
L 159.269651 -137.661563 
L 160.038183 -137.661563 
L 160.806715 -137.661563 
L 161.575247 -137.661563 
L 162.34378 -137.661563 
L 163.112312 -137.661563 
L 163.880844 -137.661563 
L 164.649377 -137.661563 
L 165.417909 -137.661563 
L 166.186441 -137.661563 
L 166.954974 -137.661563 
L 167.723506 -137.661563 
L 168.492038 -137.661563 
L 169.260571 -137.661563 
L 170.029103 -137.661563 
L 170.797635 -137.661563 
L 171.566168 -137.661563 
L 172.3347 -137.661563 
L 173.103232 -137.661563 
L 173.871765 -137.661563 
L 174.640297 -137.661563 
L 175.408829 -137.661563 
L 176.177362 -137.661563 
L 176.945894 -137.661563 
L 177.714426 -137.661563 
L 178.482958 -137.661563 
L 179.251491 -137.661563 
L 180.020023 -137.661563 
L 180.788555 -137.661563 
L 181.557088 -137.661563 
L 182.32562 -137.661563 
L 183.094152 -137.661563 
L 183.862685 -137.661563 
L 184.631217 -137.661563 
L 185.399749 -137.661563 
L 186.168282 -137.661563 
L 186.936814 -137.661563 
L 187.705346 -137.661563 
L 188.473879 -137.661563 
L 189.242411 -137.661563 
L 190.010943 -137.661563 
L 190.779476 -137.661563 
L 191.548008 -137.661563 
L 192.31654 -137.661563 
L 193.085072 -137.661563 
L 193.853605 -137.661563 
L 194.622137 -137.661563 
L 195.390669 -137.661563 
L 196.159202 -137.661563 
L 196.927734 -137.661563 
L 197.696266 -137.661563 
L 198.464799 -137.661563 
L 199.233331 -137.661563 
L 200.001863 -137.661563 
L 200.770396 -137.661563 
L 201.538928 -137.661563 
L 202.30746 -137.661563 
L 203.075993 -137.661563 
L 203.844525 -137.661563 
L 204.613057 -137.661563 
L 205.38159 -137.661563 
L 206.150122 -137.661563 
L 206.918654 -137.661563 
L 207.687186 -137.661563 
L 208.455719 -137.661563 
L 209.224251 -137.661563 
L 209.992783 -137.661563 
L 210.761316 -137.661563 
L 211.529848 -137.661563 
L 212.29838 -137.661563 
L 213.066913 -137.661563 
L 213.066913 -137.661563 
L 213.066913 -137.661563 
L 212.29838 -148.475771 
L 211.529848 -152.916493 
L 210.761316 -156.297481 
L 209.992783 -159.125502 
L 209.224251 -161.597365 
L 208.455719 -163.814255 
L 207.687186 -165.836423 
L 206.918654 -167.703215 
L 206.150122 -169.442023 
L 205.38159 -171.072837 
L 204.613057 -172.610776 
L 203.844525 -174.067612 
L 203.075993 -175.452728 
L 202.30746 -176.773742 
L 201.538928 -178.036947 
L 200.770396 -179.247612 
L 200.001863 -180.410201 
L 199.233331 -181.528536 
L 198.464799 -182.605921 
L 197.696266 -183.645234 
L 196.927734 -184.649002 
L 196.159202 -185.619457 
L 195.390669 -186.558582 
L 194.622137 -187.468149 
L 193.853605 -188.34975 
L 193.085072 -189.20482 
L 192.31654 -190.034658 
L 191.548008 -190.840445 
L 190.779476 -191.623259 
L 190.010943 -192.384086 
L 189.242411 -193.12383 
L 188.473879 -193.843325 
L 187.705346 -194.543339 
L 186.936814 -195.224582 
L 186.168282 -195.887713 
L 185.399749 -196.533345 
L 184.631217 -197.162047 
L 183.862685 -197.77435 
L 183.094152 -198.370751 
L 182.32562 -198.951714 
L 181.557088 -199.517673 
L 180.788555 -200.069037 
L 180.020023 -200.606189 
L 179.251491 -201.129491 
L 178.482958 -201.639281 
L 177.714426 -202.135882 
L 176.945894 -202.619594 
L 176.177362 -203.090705 
L 175.408829 -203.549483 
L 174.640297 -203.996186 
L 173.871765 -204.431056 
L 173.103232 -204.854321 
L 172.3347 -205.266201 
L 171.566168 -205.666902 
L 170.797635 -206.056621 
L 170.029103 -206.435544 
L 169.260571 -206.803849 
L 168.492038 -207.161704 
L 167.723506 -207.50927 
L 166.954974 -207.846701 
L 166.186441 -208.174141 
L 165.417909 -208.491729 
L 164.649377 -208.799597 
L 163.880844 -209.097871 
L 163.112312 -209.386671 
L 162.34378 -209.66611 
L 161.575247 -209.936296 
L 160.806715 -210.197335 
L 160.038183 -210.449323 
L 159.269651 -210.692354 
L 158.501118 -210.926519 
L 157.732586 -211.1519 
L 156.964054 -211.36858 
L 156.195521 -211.576634 
L 155.426989 -211.776135 
L 154.658457 -211.967152 
L 153.889924 -212.149751 
L 153.121392 -212.323993 
L 152.35286 -212.489936 
L 151.584327 -212.647635 
L 150.815795 -212.797143 
L 150.047263 -212.938508 
L 149.27873 -213.071777 
L 148.510198 -213.196991 
L 147.741666 -213.314191 
L 146.973133 -213.423414 
L 146.204601 -213.524695 
L 145.436069 -213.618065 
L 144.667537 -213.703554 
L 143.899004 -213.781187 
L 143.130472 -213.85099 
L 142.36194 -213.912983 
L 141.593407 -213.967185 
L 140.824875 -214.013614 
L 140.056343 -214.052283 
L 139.28781 -214.083204 
L 138.519278 -214.106387 
L 137.750746 -214.121838 
L 136.982213 -214.129563 
L 136.213681 -214.129563 
L 135.445149 -214.121838 
L 134.676616 -214.106387 
L 133.908084 -214.083204 
L 133.139552 -214.052283 
L 132.371019 -214.013614 
L 131.602487 -213.967185 
L 130.833955 -213.912983 
L 130.065423 -213.85099 
L 129.29689 -213.781187 
L 128.528358 -213.703554 
L 127.759826 -213.618065 
L 126.991293 -213.524695 
L 126.222761 -213.423414 
L 125.454229 -213.314191 
L 124.685696 -213.196991 
L 123.917164 -213.071777 
L 123.148632 -212.938508 
L 122.380099 -212.797143 
L 121.611567 -212.647635 
L 120.843035 -212.489936 
L 120.074502 -212.323993 
L 119.30597 -212.149751 
L 118.537438 -211.967152 
L 117.768905 -211.776135 
L 117.000373 -211.576634 
L 116.231841 -211.36858 
L 115.463308 -211.1519 
L 114.694776 -210.926519 
L 113.926244 -210.692354 
L 113.157712 -210.449323 
L 112.389179 -210.197335 
L 111.620647 -209.936296 
L 110.852115 -209.66611 
L 110.083582 -209.386671 
L 109.31505 -209.097871 
L 108.546518 -208.799597 
L 107.777985 -208.491729 
L 107.009453 -208.174141 
L 106.240921 -207.846701 
L 105.472388 -207.50927 
L 104.703856 -207.161704 
L 103.935324 -206.803849 
L 103.166791 -206.435544 
L 102.398259 -206.056621 
L 101.629727 -205.666902 
L 100.861194 -205.266201 
L 100.092662 -204.854321 
L 99.32413 -204.431056 
L 98.555598 -203.996186 
L 97.787065 -203.549483 
L 97.018533 -203.090705 
L 96.250001 -202.619594 
L 95.481468 -202.135882 
L 94.712936 -201.639281 
L 93.944404 -201.129491 
L 93.175871 -200.606189 
L 92.407339 -200.069037 
L 91.638807 -199.517673 
L 90.870274 -198.951714 
L 90.101742 -198.370751 
L 89.33321 -197.77435 
L 88.564677 -197.162047 
L 87.796145 -196.533345 
L 87.027613 -195.887713 
L 86.25908 -195.224582 
L 85.490548 -194.543339 
L 84.722016 -193.843325 
L 83.953484 -193.12383 
L 83.184951 -192.384086 
L 82.416419 -191.623259 
L 81.647887 -190.840445 
L 80.879354 -190.034658 
L 80.110822 -189.20482 
L 79.34229 -188.34975 
L 78.573757 -187.468149 
L 77.805225 -186.558582 
L 77.036693 -185.619457 
L 76.26816 -184.649002 
L 75.499628 -183.645234 
L 74.731096 -182.605921 
L 73.962563 -181.528536 
L 73.194031 -180.410201 
L 72.425499 -179.247612 
L 71.656966 -178.036947 
L 70.888434 -176.773742 
L 70.119902 -175.452728 
L 69.351369 -174.067612 
L 68.582837 -172.610776 
L 67.814305 -171.072837 
L 67.045773 -169.442023 
L 66.27724 -167.703215 
L 65.508708 -165.836423 
L 64.740176 -163.814255 
L 63.971643 -161.597365 
L 63.203111 -159.125502 
L 62.434579 -156.297481 
L 61.666046 -152.916493 
L 60.897514 -148.475771 
L 60.128982 -137.661563 
z
" style="stroke: #e7f0ff"/>
    </defs>
    <g clip-path="url(#p63382fd483)">
     <use xlink:href="#m2709fac71f" x="0" y="255.741562" style="fill: #e7f0ff; stroke: #e7f0ff"/>
    </g>
   </g>
   <g id="matplotlib.axis_1">
    <g id="xtick_1">
     <g id="line2d_1">
      <defs>
       <path id="m3532d9c7cd" d="M 0 0 
L 0 3.5 
" style="stroke: #000000; stroke-width: 0.8"/>
      </defs>
      <g>
       <use xlink:href="#m3532d9c7cd" x="60.128982" y="228.96" style="stroke: #000000; stroke-width: 0.8"/>
      </g>
     </g>
     <g id="text_1">
      <!-- −2 -->
      <g transform="translate(50.54656 245.837969) scale(0.13 -0.13)">
       <defs>
        <path id="DejaVuSans-2212" d="M 678 2272 
L 4684 2272 
L 4684 1741 
L 678 1741 
L 678 2272 
z
" transform="scale(0.015625)"/>
        <path id="DejaVuSans-32" d="M 1228 531 
L 3431 531 
L 3431 0 
L 469 0 
L 469 531 
Q 828 903 1448 1529 
Q 2069 2156 2228 2338 
Q 2531 2678 2651 2914 
Q 2772 3150 2772 3378 
Q 2772 3750 2511 3984 
Q 2250 4219 1831 4219 
Q 1534 4219 1204 4116 
Q 875 4013 500 3803 
L 500 4441 
Q 881 4594 1212 4672 
Q 1544 4750 1819 4750 
Q 2544 4750 2975 4387 
Q 3406 4025 3406 3419 
Q 3406 3131 3298 2873 
Q 3191 2616 2906 2266 
Q 2828 2175 2409 1742 
Q 1991 1309 1228 531 
z
" transform="scale(0.015625)"/>
       </defs>
       <use xlink:href="#DejaVuSans-2212"/>
       <use xlink:href="#DejaVuSans-32" transform="translate(83.789062 0)"/>
      </g>
     </g>
    </g>
    <g id="xtick_2">
     <g id="line2d_2">
      <g>
       <use xlink:href="#m3532d9c7cd" x="136.597947" y="228.96" style="stroke: #000000; stroke-width: 0.8"/>
      </g>
     </g>
     <g id="text_2">
      <!-- 0 -->
      <g transform="translate(132.462322 245.837969) scale(0.13 -0.13)">
       <defs>
        <path id="DejaVuSans-30" d="M 2034 4250 
Q 1547 4250 1301 3770 
Q 1056 3291 1056 2328 
Q 1056 1369 1301 889 
Q 1547 409 2034 409 
Q 2525 409 2770 889 
Q 3016 1369 3016 2328 
Q 3016 3291 2770 3770 
Q 2525 4250 2034 4250 
z
M 2034 4750 
Q 2819 4750 3233 4129 
Q 3647 3509 3647 2328 
Q 3647 1150 3233 529 
Q 2819 -91 2034 -91 
Q 1250 -91 836 529 
Q 422 1150 422 2328 
Q 422 3509 836 4129 
Q 1250 4750 2034 4750 
z
" transform="scale(0.015625)"/>
       </defs>
       <use xlink:href="#DejaVuSans-30"/>
      </g>
     </g>
    </g>
    <g id="xtick_3">
     <g id="line2d_3">
      <g>
       <use xlink:href="#m3532d9c7cd" x="213.066913" y="228.96" style="stroke: #000000; stroke-width: 0.8"/>
      </g>
     </g>
     <g id="text_3">
      <!-- 2 -->
      <g transform="translate(208.931288 245.837969) scale(0.13 -0.13)">
       <use xlink:href="#DejaVuSans-32"/>
      </g>
     </g>
    </g>
   </g>
   <g id="matplotlib.axis_2">
    <g id="ytick_1">
     <g id="line2d_4">
      <defs>
       <path id="m8e61e481eb" d="M 0 0 
L -3.5 0 
" style="stroke: #000000; stroke-width: 0.8"/>
      </defs>
      <g>
       <use xlink:href="#m8e61e481eb" x="33.364844" y="194.548966" style="stroke: #000000; stroke-width: 0.8"/>
      </g>
     </g>
     <g id="text_4">
      <!-- −2 -->
      <g transform="translate(7.2 199.48795) scale(0.13 -0.13)">
       <use xlink:href="#DejaVuSans-2212"/>
       <use xlink:href="#DejaVuSans-32" transform="translate(83.789062 0)"/>
      </g>
     </g>
    </g>
    <g id="ytick_2">
     <g id="line2d_5">
      <g>
       <use xlink:href="#m8e61e481eb" x="33.364844" y="156.314483" style="stroke: #000000; stroke-width: 0.8"/>
      </g>
     </g>
     <g id="text_5">
      <!-- −1 -->
      <g transform="translate(7.2 161.253467) scale(0.13 -0.13)">
       <defs>
        <path id="DejaVuSans-31" d="M 794 531 
L 1825 531 
L 1825 4091 
L 703 3866 
L 703 4441 
L 1819 4666 
L 2450 4666 
L 2450 531 
L 3481 531 
L 3481 0 
L 794 0 
L 794 531 
z
" transform="scale(0.015625)"/>
       </defs>
       <use xlink:href="#DejaVuSans-2212"/>
       <use xlink:href="#DejaVuSans-31" transform="translate(83.789062 0)"/>
      </g>
     </g>
    </g>
    <g id="ytick_3">
     <g id="line2d_6">
      <g>
       <use xlink:href="#m8e61e481eb" x="33.364844" y="118.08" style="stroke: #000000; stroke-width: 0.8"/>
      </g>
     </g>
     <g id="text_6">
      <!-- 0 -->
      <g transform="translate(18.093594 123.018984) scale(0.13 -0.13)">
       <use xlink:href="#DejaVuSans-30"/>
      </g>
     </g>
    </g>
    <g id="ytick_4">
     <g id="line2d_7">
      <g>
       <use xlink:href="#m8e61e481eb" x="33.364844" y="79.845517" style="stroke: #000000; stroke-width: 0.8"/>
      </g>
     </g>
     <g id="text_7">
      <!-- 1 -->
      <g transform="translate(18.093594 84.784502) scale(0.13 -0.13)">
       <use xlink:href="#DejaVuSans-31"/>
      </g>
     </g>
    </g>
    <g id="ytick_5">
     <g id="line2d_8">
      <g>
       <use xlink:href="#m8e61e481eb" x="33.364844" y="41.611034" style="stroke: #000000; stroke-width: 0.8"/>
      </g>
     </g>
     <g id="text_8">
      <!-- 2 -->
      <g transform="translate(18.093594 46.550019) scale(0.13 -0.13)">
       <use xlink:href="#DejaVuSans-32"/>
      </g>
     </g>
    </g>
   </g>
   <g id="line2d_9">
    <path d="M 33.364844 118.08 
L 239.831051 118.08 
" clip-path="url(#p63382fd483)" style="fill: none; stroke: #333333; stroke-linecap: square"/>
   </g>
   <g id="line2d_10">
    <path d="M 60.128982 118.08 
L 60.897514 107.265792 
L 61.666046 102.825069 
L 62.434579 99.444082 
L 63.971643 94.144197 
L 65.508708 89.90514 
L 67.045773 86.299539 
L 68.582837 83.130787 
L 70.888434 78.967821 
L 73.194031 75.331361 
L 75.499628 72.096328 
L 77.805225 69.182981 
L 80.879354 65.706905 
L 83.953484 62.617732 
L 87.027613 59.853849 
L 90.101742 57.370811 
L 93.175871 55.135373 
L 97.018533 52.650858 
L 100.861194 50.475361 
L 104.703856 48.579859 
L 108.546518 46.941965 
L 112.389179 45.544228 
L 116.231841 44.372983 
L 120.074502 43.41757 
L 123.917164 42.669786 
L 127.759826 42.123497 
L 131.602487 41.774377 
L 135.445149 41.619724 
L 139.28781 41.658358 
L 143.130472 41.890573 
L 146.973133 42.318148 
L 150.815795 42.944419 
L 154.658457 43.77441 
L 158.501118 44.815044 
L 162.34378 46.075453 
L 166.186441 47.567422 
L 170.029103 49.306019 
L 173.871765 51.310507 
L 177.714426 53.605681 
L 180.788555 55.672526 
L 183.862685 57.967212 
L 186.936814 60.516981 
L 190.010943 63.357477 
L 193.085072 66.536743 
L 196.159202 70.122106 
L 198.464799 73.135641 
L 200.770396 76.49395 
L 203.075993 80.288835 
L 205.38159 84.668726 
L 206.918654 88.038348 
L 208.455719 91.927307 
L 209.992783 96.61606 
L 210.761316 99.444082 
L 211.529848 102.825069 
L 212.29838 107.265792 
L 213.066913 118.08 
L 213.066913 118.08 
" clip-path="url(#p63382fd483)" style="fill: none; stroke: #1f6feb; stroke-width: 2.3; stroke-linecap: square"/>
   </g>
   <g id="line2d_11">
    <path d="M 60.128982 118.08 
L 60.897514 128.894208 
L 61.666046 133.334931 
L 62.434579 136.715918 
L 63.971643 142.015803 
L 65.508708 146.25486 
L 67.045773 149.860461 
L 68.582837 153.029213 
L 70.888434 157.192179 
L 73.194031 160.828639 
L 75.499628 164.063672 
L 77.805225 166.977019 
L 80.879354 170.453095 
L 83.953484 173.542268 
L 87.027613 176.306151 
L 90.101742 178.789189 
L 93.175871 181.024627 
L 97.018533 183.509142 
L 100.861194 185.684639 
L 104.703856 187.580141 
L 108.546518 189.218035 
L 112.389179 190.615772 
L 116.231841 191.787017 
L 120.074502 192.74243 
L 123.917164 193.490214 
L 127.759826 194.036503 
L 131.602487 194.385623 
L 135.445149 194.540276 
L 139.28781 194.501642 
L 143.130472 194.269427 
L 146.973133 193.841852 
L 150.815795 193.215581 
L 154.658457 192.38559 
L 158.501118 191.344956 
L 162.34378 190.084547 
L 166.186441 188.592578 
L 170.029103 186.853981 
L 173.871765 184.849493 
L 177.714426 182.554319 
L 180.788555 180.487474 
L 183.862685 178.192788 
L 186.936814 175.643019 
L 190.010943 172.802523 
L 193.085072 169.623257 
L 196.159202 166.037894 
L 198.464799 163.024359 
L 200.770396 159.66605 
L 203.075993 155.871165 
L 205.38159 151.491274 
L 206.918654 148.121652 
L 208.455719 144.232693 
L 209.992783 139.54394 
L 210.761316 136.715918 
L 211.529848 133.334931 
L 212.29838 128.894208 
L 213.066913 118.08 
L 213.066913 118.08 
" clip-path="url(#p63382fd483)" style="fill: none; stroke-dasharray: 1.4,2.31; stroke-dashoffset: 0; stroke: #1f6feb; stroke-width: 1.4"/>
   </g>
   <g id="text_9">
    <!-- $f(x)=\sqrt{r^2-x^2}$ -->
    <g style="fill: #1f6feb" transform="translate(86.89312 32.052414) scale(0.12 -0.12)">
     <defs>
      <path id="Cmmi10-66" d="M 622 -1056 
Q 741 -1147 909 -1147 
Q 1138 -1147 1281 -641 
Q 1341 -397 1606 966 
L 1900 2534 
L 1350 2534 
Q 1288 2534 1288 2619 
Q 1313 2759 1369 2759 
L 1941 2759 
L 2016 3175 
Q 2053 3369 2084 3508 
Q 2116 3647 2152 3765 
Q 2188 3884 2259 4031 
Q 2369 4241 2555 4377 
Q 2741 4513 2956 4513 
Q 3097 4513 3230 4461 
Q 3363 4409 3447 4306 
Q 3531 4203 3531 4063 
Q 3531 3900 3423 3779 
Q 3316 3659 3163 3659 
Q 3059 3659 2986 3723 
Q 2913 3788 2913 3891 
Q 2913 4031 3008 4136 
Q 3103 4241 3244 4256 
Q 3125 4347 2950 4347 
Q 2853 4347 2767 4256 
Q 2681 4166 2656 4063 
Q 2616 3900 2478 3181 
L 2400 2759 
L 3059 2759 
Q 3122 2759 3122 2675 
Q 3119 2659 3109 2620 
Q 3100 2581 3083 2557 
Q 3066 2534 3041 2534 
L 2356 2534 
L 2059 972 
Q 2003 631 1929 279 
Q 1856 -72 1723 -442 
Q 1591 -813 1384 -1063 
Q 1178 -1313 897 -1313 
Q 681 -1313 511 -1189 
Q 341 -1066 341 -863 
Q 341 -700 445 -579 
Q 550 -459 709 -459 
Q 816 -459 887 -523 
Q 959 -588 959 -691 
Q 959 -828 857 -942 
Q 756 -1056 622 -1056 
z
" transform="scale(0.015625)"/>
      <path id="Cmr10-28" d="M 1984 -1588 
Q 1628 -1306 1370 -942 
Q 1113 -578 948 -165 
Q 784 247 703 697 
Q 622 1147 622 1600 
Q 622 2059 703 2509 
Q 784 2959 951 3375 
Q 1119 3791 1378 4153 
Q 1638 4516 1984 4788 
Q 1984 4800 2016 4800 
L 2075 4800 
Q 2094 4800 2109 4783 
Q 2125 4766 2125 4744 
Q 2125 4716 2113 4703 
Q 1800 4397 1592 4047 
Q 1384 3697 1257 3301 
Q 1131 2906 1075 2482 
Q 1019 2059 1019 1600 
Q 1019 -434 2106 -1491 
Q 2125 -1509 2125 -1544 
Q 2125 -1559 2108 -1579 
Q 2091 -1600 2075 -1600 
L 2016 -1600 
Q 1984 -1600 1984 -1588 
z
" transform="scale(0.015625)"/>
      <path id="Cmmi10-78" d="M 500 184 
Q 613 97 819 97 
Q 1019 97 1172 289 
Q 1325 481 1381 709 
L 1672 1844 
Q 1741 2153 1741 2266 
Q 1741 2425 1652 2544 
Q 1563 2663 1403 2663 
Q 1200 2663 1022 2536 
Q 844 2409 722 2214 
Q 600 2019 550 1819 
Q 538 1778 500 1778 
L 422 1778 
Q 372 1778 372 1838 
L 372 1856 
Q 434 2094 584 2320 
Q 734 2547 951 2687 
Q 1169 2828 1416 2828 
Q 1650 2828 1839 2703 
Q 2028 2578 2106 2363 
Q 2216 2559 2386 2693 
Q 2556 2828 2759 2828 
Q 2897 2828 3040 2779 
Q 3184 2731 3275 2631 
Q 3366 2531 3366 2381 
Q 3366 2219 3261 2101 
Q 3156 1984 2994 1984 
Q 2891 1984 2822 2050 
Q 2753 2116 2753 2216 
Q 2753 2350 2845 2451 
Q 2938 2553 3066 2572 
Q 2950 2663 2747 2663 
Q 2541 2663 2389 2472 
Q 2238 2281 2175 2047 
L 1894 916 
Q 1825 659 1825 494 
Q 1825 331 1917 214 
Q 2009 97 2163 97 
Q 2463 97 2698 361 
Q 2934 625 3009 941 
Q 3022 978 3059 978 
L 3138 978 
Q 3163 978 3178 961 
Q 3194 944 3194 922 
Q 3194 916 3188 903 
Q 3097 522 2806 225 
Q 2516 -72 2150 -72 
Q 1916 -72 1727 54 
Q 1538 181 1459 397 
Q 1359 209 1182 68 
Q 1006 -72 806 -72 
Q 669 -72 523 -23 
Q 378 25 287 125 
Q 197 225 197 378 
Q 197 528 301 651 
Q 406 775 563 775 
Q 669 775 741 711 
Q 813 647 813 544 
Q 813 409 723 309 
Q 634 209 500 184 
z
" transform="scale(0.015625)"/>
      <path id="Cmr10-29" d="M 416 -1600 
Q 359 -1600 359 -1544 
Q 359 -1516 372 -1503 
Q 1466 -434 1466 1600 
Q 1466 3634 384 4691 
Q 359 4706 359 4744 
Q 359 4766 376 4783 
Q 394 4800 416 4800 
L 475 4800 
Q 494 4800 506 4788 
Q 966 4425 1272 3906 
Q 1578 3388 1720 2800 
Q 1863 2213 1863 1600 
Q 1863 1147 1786 708 
Q 1709 269 1542 -157 
Q 1375 -584 1119 -945 
Q 863 -1306 506 -1588 
Q 494 -1600 475 -1600 
L 416 -1600 
z
" transform="scale(0.015625)"/>
      <path id="Cmr10-3d" d="M 481 850 
Q 428 850 393 890 
Q 359 931 359 978 
Q 359 1031 393 1068 
Q 428 1106 481 1106 
L 4500 1106 
Q 4547 1106 4581 1068 
Q 4616 1031 4616 978 
Q 4616 931 4581 890 
Q 4547 850 4500 850 
L 481 850 
z
M 481 2094 
Q 428 2094 393 2131 
Q 359 2169 359 2222 
Q 359 2269 393 2309 
Q 428 2350 481 2350 
L 4500 2350 
Q 4547 2350 4581 2309 
Q 4616 2269 4616 2222 
Q 4616 2169 4581 2131 
Q 4547 2094 4500 2094 
L 481 2094 
z
" transform="scale(0.015625)"/>
      <path id="Cmex10-70" d="M 2713 -7425 
L 1269 -4063 
L 819 -4409 
L 703 -4294 
L 1619 -3584 
L 2969 -6725 
L 6291 197 
Q 6322 256 6400 256 
Q 6453 256 6490 218 
Q 6528 181 6528 128 
Q 6528 97 6522 84 
L 2950 -7366 
Q 2925 -7425 2853 -7425 
L 2713 -7425 
z
" transform="scale(0.015625)"/>
      <path id="Cmmi10-72" d="M 494 109 
Q 494 147 500 166 
L 978 2075 
Q 1025 2253 1025 2388 
Q 1025 2663 838 2663 
Q 638 2663 541 2423 
Q 444 2184 353 1819 
Q 353 1800 334 1789 
Q 316 1778 300 1778 
L 225 1778 
Q 203 1778 187 1801 
Q 172 1825 172 1844 
Q 241 2122 305 2315 
Q 369 2509 505 2668 
Q 641 2828 844 2828 
Q 1066 2828 1233 2700 
Q 1400 2572 1441 2363 
Q 1603 2575 1811 2701 
Q 2019 2828 2266 2828 
Q 2469 2828 2623 2709 
Q 2778 2591 2778 2388 
Q 2778 2225 2676 2104 
Q 2575 1984 2406 1984 
Q 2303 1984 2233 2048 
Q 2163 2113 2163 2216 
Q 2163 2356 2266 2467 
Q 2369 2578 2503 2578 
Q 2400 2663 2253 2663 
Q 1978 2663 1775 2467 
Q 1572 2272 1409 1972 
L 953 141 
Q 931 53 854 -9 
Q 778 -72 684 -72 
Q 606 -72 550 -22 
Q 494 28 494 109 
z
" transform="scale(0.015625)"/>
      <path id="Cmr10-32" d="M 319 0 
L 319 172 
Q 319 188 331 206 
L 1325 1306 
Q 1550 1550 1690 1715 
Q 1831 1881 1968 2097 
Q 2106 2313 2186 2536 
Q 2266 2759 2266 3009 
Q 2266 3272 2169 3511 
Q 2072 3750 1880 3894 
Q 1688 4038 1416 4038 
Q 1138 4038 916 3870 
Q 694 3703 603 3438 
Q 628 3444 672 3444 
Q 816 3444 917 3347 
Q 1019 3250 1019 3097 
Q 1019 2950 917 2848 
Q 816 2747 672 2747 
Q 522 2747 420 2851 
Q 319 2956 319 3097 
Q 319 3338 409 3548 
Q 500 3759 670 3923 
Q 841 4088 1055 4175 
Q 1269 4263 1509 4263 
Q 1875 4263 2190 4108 
Q 2506 3953 2690 3670 
Q 2875 3388 2875 3009 
Q 2875 2731 2753 2481 
Q 2631 2231 2440 2026 
Q 2250 1822 1953 1562 
Q 1656 1303 1563 1216 
L 838 519 
L 1453 519 
Q 1906 519 2211 526 
Q 2516 534 2534 550 
Q 2609 631 2688 1141 
L 2875 1141 
L 2694 0 
L 319 0 
z
" transform="scale(0.015625)"/>
      <path id="Cmsy10-a1" d="M 653 1472 
Q 600 1472 565 1512 
Q 531 1553 531 1600 
Q 531 1647 565 1687 
Q 600 1728 653 1728 
L 4325 1728 
Q 4375 1728 4408 1687 
Q 4441 1647 4441 1600 
Q 4441 1553 4408 1512 
Q 4375 1472 4325 1472 
L 653 1472 
z
" transform="scale(0.015625)"/>
     </defs>
     <use xlink:href="#Cmmi10-66" transform="translate(0 0.875)"/>
     <use xlink:href="#Cmr10-28" transform="translate(48.876953 0.875)"/>
     <use xlink:href="#Cmmi10-78" transform="translate(87.695312 0.875)"/>
     <use xlink:href="#Cmr10-29" transform="translate(144.775391 0.875)"/>
     <use xlink:href="#Cmr10-3d" transform="translate(201.152344 0.875)"/>
     <use xlink:href="#Cmex10-70" transform="translate(296.396484 113.09375) scale(0.977086)"/>
     <use xlink:href="#Cmmi10-72" transform="translate(406.599609 0.859375)"/>
     <use xlink:href="#Cmr10-32" transform="translate(458.020078 39.123437) scale(0.7)"/>
     <use xlink:href="#Cmsy10-a1" transform="translate(516.956016 0.859375)"/>
     <use xlink:href="#Cmmi10-78" transform="translate(612.200156 0.859375)"/>
     <use xlink:href="#Cmr10-32" transform="translate(675.583516 39.123437) scale(0.7)"/>
     <path d="M 394.099609 110.5 
L 394.099609 116.75 
L 729.460859 116.75 
L 729.460859 110.5 
L 394.099609 110.5 
z
"/>
    </g>
   </g>
   <g id="text_10">
    <!-- $V=\pi\int_{-r}^{r} f(x)^2\,dx=\frac{4}{3}\pi r^3$ -->
    <g transform="translate(74.677947 215.577931) scale(0.12 -0.12)">
     <defs>
      <path id="Cmmi10-56" d="M 1409 -72 
L 897 4006 
Q 850 4147 416 4147 
Q 353 4147 353 4231 
Q 366 4300 384 4336 
Q 403 4372 459 4372 
L 2022 4372 
Q 2056 4372 2072 4347 
Q 2088 4322 2088 4288 
Q 2063 4147 2003 4147 
Q 1503 4147 1472 3975 
L 1894 628 
L 3866 3775 
Q 3922 3881 3922 3944 
Q 3922 4056 3820 4101 
Q 3719 4147 3584 4147 
Q 3519 4147 3519 4231 
Q 3531 4281 3540 4309 
Q 3550 4338 3569 4355 
Q 3588 4372 3628 4372 
L 4863 4372 
Q 4922 4372 4922 4288 
Q 4897 4147 4838 4147 
Q 4356 4147 4084 3725 
Q 4072 3713 4063 3713 
L 1703 -72 
Q 1656 -141 1581 -141 
L 1491 -141 
Q 1419 -141 1409 -72 
z
" transform="scale(0.015625)"/>
      <path id="Cmmi10-bc" d="M 647 109 
Q 647 144 672 213 
Q 850 584 1004 942 
Q 1159 1300 1282 1639 
Q 1406 1978 1509 2363 
L 1100 2363 
Q 866 2363 662 2216 
Q 459 2069 325 1844 
Q 313 1819 288 1819 
L 213 1819 
Q 153 1819 153 1881 
Q 153 1894 166 1919 
Q 375 2275 614 2517 
Q 853 2759 1153 2759 
L 3475 2759 
Q 3541 2759 3587 2715 
Q 3634 2672 3634 2597 
Q 3634 2503 3567 2433 
Q 3500 2363 3406 2363 
L 2591 2363 
Q 2488 1859 2478 1381 
Q 2478 766 2694 269 
Q 2713 231 2713 191 
Q 2713 122 2672 62 
Q 2631 3 2567 -34 
Q 2503 -72 2431 -72 
Q 2263 -72 2200 203 
Q 2138 478 2138 738 
Q 2138 1103 2200 1442 
Q 2263 1781 2400 2363 
L 1703 2363 
Q 1197 313 1094 103 
Q 1003 -72 844 -72 
Q 766 -72 706 -20 
Q 647 31 647 109 
z
" transform="scale(0.015625)"/>
      <path id="Cmex10-5a" d="M 678 -13894 
Q 838 -14053 1069 -14053 
Q 1300 -14053 1490 -13736 
Q 1681 -13419 1825 -12944 
Q 1969 -12469 2036 -12148 
Q 2103 -11828 2203 -11322 
Q 2294 -10850 2378 -10375 
Q 2463 -9900 2552 -9364 
Q 2641 -8828 2739 -8276 
Q 2838 -7725 2963 -7103 
Q 3131 -6284 3204 -5932 
Q 3278 -5581 3428 -4917 
Q 3578 -4253 3626 -4042 
Q 3675 -3831 3903 -2888 
L 3988 -2553 
Q 4131 -1991 4209 -1702 
Q 4288 -1413 4452 -995 
Q 4616 -578 4837 -289 
Q 5059 0 5325 0 
Q 5513 0 5673 -84 
Q 5834 -169 5934 -316 
Q 6034 -463 6034 -653 
Q 6034 -791 5943 -881 
Q 5853 -972 5716 -972 
Q 5575 -972 5481 -881 
Q 5388 -791 5388 -653 
Q 5388 -513 5481 -419 
Q 5575 -325 5716 -325 
Q 5550 -166 5331 -166 
Q 5213 -166 5070 -512 
Q 4928 -859 4808 -1329 
Q 4688 -1800 4623 -2114 
Q 4559 -2428 4469 -2900 
Q 4363 -3434 4292 -3831 
Q 4222 -4228 4122 -4812 
Q 4022 -5397 3926 -5925 
Q 3831 -6453 3700 -7116 
Q 3616 -7534 3456 -8292 
Q 3297 -9050 3245 -9278 
Q 3194 -9506 2983 -10393 
Q 2772 -11281 2759 -11334 
L 2681 -11628 
Q 2516 -12306 2348 -12820 
Q 2181 -13334 1857 -13778 
Q 1534 -14222 1069 -14222 
Q 791 -14222 575 -14034 
Q 359 -13847 359 -13575 
Q 359 -13434 453 -13340 
Q 547 -13247 684 -13247 
Q 775 -13247 848 -13290 
Q 922 -13334 964 -13409 
Q 1006 -13484 1006 -13575 
Q 1006 -13713 912 -13803 
Q 819 -13894 678 -13894 
z
" transform="scale(0.015625)"/>
      <path id="Cmmi10-64" d="M 1113 -72 
Q 709 -72 476 233 
Q 244 538 244 953 
Q 244 1363 456 1803 
Q 669 2244 1030 2536 
Q 1391 2828 1806 2828 
Q 1994 2828 2145 2723 
Q 2297 2619 2381 2444 
L 2741 3872 
Q 2766 3981 2772 4044 
Q 2772 4147 2356 4147 
Q 2291 4147 2291 4231 
Q 2294 4247 2305 4287 
Q 2316 4328 2333 4350 
Q 2350 4372 2381 4372 
L 3244 4441 
Q 3322 4441 3322 4359 
L 2400 678 
Q 2356 572 2356 372 
Q 2356 97 2541 97 
Q 2741 97 2845 351 
Q 2950 606 3022 941 
Q 3034 978 3072 978 
L 3150 978 
Q 3175 978 3190 956 
Q 3206 934 3206 916 
Q 3094 469 2961 198 
Q 2828 -72 2528 -72 
Q 2313 -72 2147 54 
Q 1981 181 1941 391 
Q 1528 -72 1113 -72 
z
M 1119 97 
Q 1350 97 1567 270 
Q 1784 444 1941 678 
Q 1947 684 1947 703 
L 2297 2113 
Q 2259 2338 2131 2500 
Q 2003 2663 1791 2663 
Q 1575 2663 1389 2486 
Q 1203 2309 1075 2069 
Q 950 1813 836 1366 
Q 722 919 722 672 
Q 722 450 817 273 
Q 913 97 1119 97 
z
" transform="scale(0.015625)"/>
      <path id="Cmr10-34" d="M 178 1056 
L 178 1281 
L 2156 4231 
Q 2178 4263 2222 4263 
L 2316 4263 
Q 2388 4263 2388 4191 
L 2388 1281 
L 3016 1281 
L 3016 1056 
L 2388 1056 
L 2388 428 
Q 2388 297 2575 261 
Q 2763 225 3009 225 
L 3009 0 
L 1247 0 
L 1247 225 
Q 1494 225 1681 261 
Q 1869 297 1869 428 
L 1869 1056 
L 178 1056 
z
M 391 1281 
L 1906 1281 
L 1906 3547 
L 391 1281 
z
" transform="scale(0.015625)"/>
      <path id="Cmr10-33" d="M 609 494 
Q 759 275 1012 169 
Q 1266 63 1556 63 
Q 1928 63 2084 380 
Q 2241 697 2241 1100 
Q 2241 1281 2208 1462 
Q 2175 1644 2097 1800 
Q 2019 1956 1883 2050 
Q 1747 2144 1550 2144 
L 1125 2144 
Q 1069 2144 1069 2203 
L 1069 2259 
Q 1069 2309 1125 2309 
L 1478 2338 
Q 1703 2338 1851 2506 
Q 2000 2675 2069 2917 
Q 2138 3159 2138 3378 
Q 2138 3684 1994 3881 
Q 1850 4078 1556 4078 
Q 1313 4078 1091 3986 
Q 869 3894 738 3706 
Q 750 3709 759 3711 
Q 769 3713 781 3713 
Q 925 3713 1022 3613 
Q 1119 3513 1119 3372 
Q 1119 3234 1022 3134 
Q 925 3034 781 3034 
Q 641 3034 541 3134 
Q 441 3234 441 3372 
Q 441 3647 606 3850 
Q 772 4053 1033 4158 
Q 1294 4263 1556 4263 
Q 1750 4263 1965 4205 
Q 2181 4147 2356 4039 
Q 2531 3931 2642 3762 
Q 2753 3594 2753 3378 
Q 2753 3109 2633 2881 
Q 2513 2653 2303 2487 
Q 2094 2322 1844 2241 
Q 2122 2188 2372 2031 
Q 2622 1875 2773 1631 
Q 2925 1388 2925 1106 
Q 2925 753 2731 467 
Q 2538 181 2222 20 
Q 1906 -141 1556 -141 
Q 1256 -141 954 -26 
Q 653 88 461 316 
Q 269 544 269 863 
Q 269 1022 375 1128 
Q 481 1234 641 1234 
Q 744 1234 830 1186 
Q 916 1138 964 1050 
Q 1013 963 1013 863 
Q 1013 706 903 600 
Q 794 494 641 494 
L 609 494 
z
" transform="scale(0.015625)"/>
     </defs>
     <use xlink:href="#Cmmi10-56" transform="translate(0 0.632292)"/>
     <use xlink:href="#Cmr10-3d" transform="translate(75.859375 0.632292)"/>
     <use xlink:href="#Cmmi10-bc" transform="translate(171.103516 0.632292)"/>
     <use xlink:href="#Cmex10-5a" transform="translate(228.085938 145.075)"/>
     <use xlink:href="#Cmmi10-72" transform="translate(336.686211 128.06875) scale(0.7)"/>
     <use xlink:href="#Cmsy10-a1" transform="translate(276.020273 -94.15) scale(0.7)"/>
     <use xlink:href="#Cmmi10-72" transform="translate(330.400156 -94.15) scale(0.7)"/>
     <use xlink:href="#Cmmi10-66" transform="translate(368.268242 0.632292)"/>
     <use xlink:href="#Cmr10-28" transform="translate(417.145195 0.632292)"/>
     <use xlink:href="#Cmmi10-78" transform="translate(455.963555 0.632292)"/>
     <use xlink:href="#Cmr10-29" transform="translate(513.043633 0.632292)"/>
     <use xlink:href="#Cmr10-32" transform="translate(556.326133 38.896354) scale(0.7)"/>
     <use xlink:href="#Cmmi10-64" transform="translate(612.335931 0.632292)"/>
     <use xlink:href="#Cmmi10-78" transform="translate(664.337884 0.632292)"/>
     <use xlink:href="#Cmr10-3d" transform="translate(738.976556 0.632292)"/>
     <use xlink:href="#Cmr10-34" transform="translate(834.220696 38.132292) scale(0.7)"/>
     <use xlink:href="#Cmr10-33" transform="translate(834.220696 -39.744271) scale(0.7)"/>
     <use xlink:href="#Cmmi10-bc" transform="translate(881.720696 0.632292)"/>
     <use xlink:href="#Cmmi10-72" transform="translate(938.703118 0.632292)"/>
     <use xlink:href="#Cmr10-33" transform="translate(990.123587 38.896354) scale(0.7)"/>
     <path d="M 834.220696 13.132292 
L 834.220696 19.382292 
L 869.220696 19.382292 
L 869.220696 13.132292 
L 834.220696 13.132292 
z
"/>
    </g>
   </g>
   <g id="patch_3">
    <path d="M 196.08781 158.598658 
Q 182.302978 142.322567 190.849815 120.963962 
" style="fill: none; stroke: #888888; stroke-linecap: round"/>
    <path d="M 187.506892 123.93463 
L 190.849815 120.963962 
L 191.220595 125.420701 
" style="fill: none; stroke: #888888; stroke-linecap: round"/>
   </g>
   <g id="text_11">
    <!-- Rotation um die x-Achse -->
    <g style="fill: #888888" transform="translate(144.244844 169.696552) scale(0.1 -0.1)">
     <defs>
      <path id="DejaVuSans-52" d="M 2841 2188 
Q 3044 2119 3236 1894 
Q 3428 1669 3622 1275 
L 4263 0 
L 3584 0 
L 2988 1197 
Q 2756 1666 2539 1819 
Q 2322 1972 1947 1972 
L 1259 1972 
L 1259 0 
L 628 0 
L 628 4666 
L 2053 4666 
Q 2853 4666 3247 4331 
Q 3641 3997 3641 3322 
Q 3641 2881 3436 2590 
Q 3231 2300 2841 2188 
z
M 1259 4147 
L 1259 2491 
L 2053 2491 
Q 2509 2491 2742 2702 
Q 2975 2913 2975 3322 
Q 2975 3731 2742 3939 
Q 2509 4147 2053 4147 
L 1259 4147 
z
" transform="scale(0.015625)"/>
      <path id="DejaVuSans-6f" d="M 1959 3097 
Q 1497 3097 1228 2736 
Q 959 2375 959 1747 
Q 959 1119 1226 758 
Q 1494 397 1959 397 
Q 2419 397 2687 759 
Q 2956 1122 2956 1747 
Q 2956 2369 2687 2733 
Q 2419 3097 1959 3097 
z
M 1959 3584 
Q 2709 3584 3137 3096 
Q 3566 2609 3566 1747 
Q 3566 888 3137 398 
Q 2709 -91 1959 -91 
Q 1206 -91 779 398 
Q 353 888 353 1747 
Q 353 2609 779 3096 
Q 1206 3584 1959 3584 
z
" transform="scale(0.015625)"/>
      <path id="DejaVuSans-74" d="M 1172 4494 
L 1172 3500 
L 2356 3500 
L 2356 3053 
L 1172 3053 
L 1172 1153 
Q 1172 725 1289 603 
Q 1406 481 1766 481 
L 2356 481 
L 2356 0 
L 1766 0 
Q 1100 0 847 248 
Q 594 497 594 1153 
L 594 3053 
L 172 3053 
L 172 3500 
L 594 3500 
L 594 4494 
L 1172 4494 
z
" transform="scale(0.015625)"/>
      <path id="DejaVuSans-61" d="M 2194 1759 
Q 1497 1759 1228 1600 
Q 959 1441 959 1056 
Q 959 750 1161 570 
Q 1363 391 1709 391 
Q 2188 391 2477 730 
Q 2766 1069 2766 1631 
L 2766 1759 
L 2194 1759 
z
M 3341 1997 
L 3341 0 
L 2766 0 
L 2766 531 
Q 2569 213 2275 61 
Q 1981 -91 1556 -91 
Q 1019 -91 701 211 
Q 384 513 384 1019 
Q 384 1609 779 1909 
Q 1175 2209 1959 2209 
L 2766 2209 
L 2766 2266 
Q 2766 2663 2505 2880 
Q 2244 3097 1772 3097 
Q 1472 3097 1187 3025 
Q 903 2953 641 2809 
L 641 3341 
Q 956 3463 1253 3523 
Q 1550 3584 1831 3584 
Q 2591 3584 2966 3190 
Q 3341 2797 3341 1997 
z
" transform="scale(0.015625)"/>
      <path id="DejaVuSans-69" d="M 603 3500 
L 1178 3500 
L 1178 0 
L 603 0 
L 603 3500 
z
M 603 4863 
L 1178 4863 
L 1178 4134 
L 603 4134 
L 603 4863 
z
" transform="scale(0.015625)"/>
      <path id="DejaVuSans-6e" d="M 3513 2113 
L 3513 0 
L 2938 0 
L 2938 2094 
Q 2938 2591 2744 2837 
Q 2550 3084 2163 3084 
Q 1697 3084 1428 2787 
Q 1159 2491 1159 1978 
L 1159 0 
L 581 0 
L 581 3500 
L 1159 3500 
L 1159 2956 
Q 1366 3272 1645 3428 
Q 1925 3584 2291 3584 
Q 2894 3584 3203 3211 
Q 3513 2838 3513 2113 
z
" transform="scale(0.015625)"/>
      <path id="DejaVuSans-20" transform="scale(0.015625)"/>
      <path id="DejaVuSans-75" d="M 544 1381 
L 544 3500 
L 1119 3500 
L 1119 1403 
Q 1119 906 1312 657 
Q 1506 409 1894 409 
Q 2359 409 2629 706 
Q 2900 1003 2900 1516 
L 2900 3500 
L 3475 3500 
L 3475 0 
L 2900 0 
L 2900 538 
Q 2691 219 2414 64 
Q 2138 -91 1772 -91 
Q 1169 -91 856 284 
Q 544 659 544 1381 
z
M 1991 3584 
L 1991 3584 
z
" transform="scale(0.015625)"/>
      <path id="DejaVuSans-6d" d="M 3328 2828 
Q 3544 3216 3844 3400 
Q 4144 3584 4550 3584 
Q 5097 3584 5394 3201 
Q 5691 2819 5691 2113 
L 5691 0 
L 5113 0 
L 5113 2094 
Q 5113 2597 4934 2840 
Q 4756 3084 4391 3084 
Q 3944 3084 3684 2787 
Q 3425 2491 3425 1978 
L 3425 0 
L 2847 0 
L 2847 2094 
Q 2847 2600 2669 2842 
Q 2491 3084 2119 3084 
Q 1678 3084 1418 2786 
Q 1159 2488 1159 1978 
L 1159 0 
L 581 0 
L 581 3500 
L 1159 3500 
L 1159 2956 
Q 1356 3278 1631 3431 
Q 1906 3584 2284 3584 
Q 2666 3584 2933 3390 
Q 3200 3197 3328 2828 
z
" transform="scale(0.015625)"/>
      <path id="DejaVuSans-64" d="M 2906 2969 
L 2906 4863 
L 3481 4863 
L 3481 0 
L 2906 0 
L 2906 525 
Q 2725 213 2448 61 
Q 2172 -91 1784 -91 
Q 1150 -91 751 415 
Q 353 922 353 1747 
Q 353 2572 751 3078 
Q 1150 3584 1784 3584 
Q 2172 3584 2448 3432 
Q 2725 3281 2906 2969 
z
M 947 1747 
Q 947 1113 1208 752 
Q 1469 391 1925 391 
Q 2381 391 2643 752 
Q 2906 1113 2906 1747 
Q 2906 2381 2643 2742 
Q 2381 3103 1925 3103 
Q 1469 3103 1208 2742 
Q 947 2381 947 1747 
z
" transform="scale(0.015625)"/>
      <path id="DejaVuSans-65" d="M 3597 1894 
L 3597 1613 
L 953 1613 
Q 991 1019 1311 708 
Q 1631 397 2203 397 
Q 2534 397 2845 478 
Q 3156 559 3463 722 
L 3463 178 
Q 3153 47 2828 -22 
Q 2503 -91 2169 -91 
Q 1331 -91 842 396 
Q 353 884 353 1716 
Q 353 2575 817 3079 
Q 1281 3584 2069 3584 
Q 2775 3584 3186 3129 
Q 3597 2675 3597 1894 
z
M 3022 2063 
Q 3016 2534 2758 2815 
Q 2500 3097 2075 3097 
Q 1594 3097 1305 2825 
Q 1016 2553 972 2059 
L 3022 2063 
z
" transform="scale(0.015625)"/>
      <path id="DejaVuSans-78" d="M 3513 3500 
L 2247 1797 
L 3578 0 
L 2900 0 
L 1881 1375 
L 863 0 
L 184 0 
L 1544 1831 
L 300 3500 
L 978 3500 
L 1906 2253 
L 2834 3500 
L 3513 3500 
z
" transform="scale(0.015625)"/>
      <path id="DejaVuSans-2d" d="M 313 2009 
L 1997 2009 
L 1997 1497 
L 313 1497 
L 313 2009 
z
" transform="scale(0.015625)"/>
      <path id="DejaVuSans-41" d="M 2188 4044 
L 1331 1722 
L 3047 1722 
L 2188 4044 
z
M 1831 4666 
L 2547 4666 
L 4325 0 
L 3669 0 
L 3244 1197 
L 1141 1197 
L 716 0 
L 50 0 
L 1831 4666 
z
" transform="scale(0.015625)"/>
      <path id="DejaVuSans-63" d="M 3122 3366 
L 3122 2828 
Q 2878 2963 2633 3030 
Q 2388 3097 2138 3097 
Q 1578 3097 1268 2742 
Q 959 2388 959 1747 
Q 959 1106 1268 751 
Q 1578 397 2138 397 
Q 2388 397 2633 464 
Q 2878 531 3122 666 
L 3122 134 
Q 2881 22 2623 -34 
Q 2366 -91 2075 -91 
Q 1284 -91 818 406 
Q 353 903 353 1747 
Q 353 2603 823 3093 
Q 1294 3584 2113 3584 
Q 2378 3584 2631 3529 
Q 2884 3475 3122 3366 
z
" transform="scale(0.015625)"/>
      <path id="DejaVuSans-68" d="M 3513 2113 
L 3513 0 
L 2938 0 
L 2938 2094 
Q 2938 2591 2744 2837 
Q 2550 3084 2163 3084 
Q 1697 3084 1428 2787 
Q 1159 2491 1159 1978 
L 1159 0 
L 581 0 
L 581 4863 
L 1159 4863 
L 1159 2956 
Q 1366 3272 1645 3428 
Q 1925 3584 2291 3584 
Q 2894 3584 3203 3211 
Q 3513 2838 3513 2113 
z
" transform="scale(0.015625)"/>
      <path id="DejaVuSans-73" d="M 2834 3397 
L 2834 2853 
Q 2591 2978 2328 3040 
Q 2066 3103 1784 3103 
Q 1356 3103 1142 2972 
Q 928 2841 928 2578 
Q 928 2378 1081 2264 
Q 1234 2150 1697 2047 
L 1894 2003 
Q 2506 1872 2764 1633 
Q 3022 1394 3022 966 
Q 3022 478 2636 193 
Q 2250 -91 1575 -91 
Q 1294 -91 989 -36 
Q 684 19 347 128 
L 347 722 
Q 666 556 975 473 
Q 1284 391 1588 391 
Q 1994 391 2212 530 
Q 2431 669 2431 922 
Q 2431 1156 2273 1281 
Q 2116 1406 1581 1522 
L 1381 1569 
Q 847 1681 609 1914 
Q 372 2147 372 2553 
Q 372 3047 722 3315 
Q 1072 3584 1716 3584 
Q 2034 3584 2315 3537 
Q 2597 3491 2834 3397 
z
" transform="scale(0.015625)"/>
     </defs>
     <use xlink:href="#DejaVuSans-52"/>
     <use xlink:href="#DejaVuSans-6f" transform="translate(64.982422 0)"/>
     <use xlink:href="#DejaVuSans-74" transform="translate(126.164062 0)"/>
     <use xlink:href="#DejaVuSans-61" transform="translate(165.373047 0)"/>
     <use xlink:href="#DejaVuSans-74" transform="translate(226.652344 0)"/>
     <use xlink:href="#DejaVuSans-69" transform="translate(265.861328 0)"/>
     <use xlink:href="#DejaVuSans-6f" transform="translate(293.644531 0)"/>
     <use xlink:href="#DejaVuSans-6e" transform="translate(354.826172 0)"/>
     <use xlink:href="#DejaVuSans-20" transform="translate(418.205078 0)"/>
     <use xlink:href="#DejaVuSans-75" transform="translate(449.992188 0)"/>
     <use xlink:href="#DejaVuSans-6d" transform="translate(513.371094 0)"/>
     <use xlink:href="#DejaVuSans-20" transform="translate(610.783203 0)"/>
     <use xlink:href="#DejaVuSans-64" transform="translate(642.570312 0)"/>
     <use xlink:href="#DejaVuSans-69" transform="translate(706.046875 0)"/>
     <use xlink:href="#DejaVuSans-65" transform="translate(733.830078 0)"/>
     <use xlink:href="#DejaVuSans-20" transform="translate(795.353516 0)"/>
     <use xlink:href="#DejaVuSans-78" transform="translate(827.140625 0)"/>
     <use xlink:href="#DejaVuSans-2d" transform="translate(886.320312 0)"/>
     <use xlink:href="#DejaVuSans-41" transform="translate(920.154297 0)"/>
     <use xlink:href="#DejaVuSans-63" transform="translate(986.8125 0)"/>
     <use xlink:href="#DejaVuSans-68" transform="translate(1041.792969 0)"/>
     <use xlink:href="#DejaVuSans-73" transform="translate(1105.171875 0)"/>
     <use xlink:href="#DejaVuSans-65" transform="translate(1157.271484 0)"/>
    </g>
   </g>
  </g>
 </g>
 <defs>
  <clipPath id="p63382fd483">
   <rect x="33.364844" y="7.2" width="206.466207" height="221.76"/>
  </clipPath>
 </defs>
</svg>
