<?xml version="1.0" encoding="utf-8" standalone="no"?>
<!DOCTYPE svg PUBLIC "-//W3C//DTD SVG 1.1//EN"
  "http://www.w3.org/Graphics/SVG/1.1/DTD/svg11.dtd">
<svg xmlns:xlink="http://www.w3.org/1999/xlink" width="326.88pt" height="258.336pt" viewBox="0 0 326.88 258.336" xmlns="http://www.w3.org/2000/svg" version="1.1">
 <metadata>
  <rdf:RDF xmlns:dc="http://purl.org/dc/elements/1.1/" xmlns:cc="http://creativecommons.org/ns#" xmlns:rdf="http://www.w3.org/1999/02/22-rdf-syntax-ns#">
   <cc:Work>
    <dc:type rdf:resource="http://purl.org/dc/dcmitype/StillImage"/>
    <dc:date>2026-06-07T17:28:18.546377</dc:date>
    <dc:format>image/svg+xml</dc:format>
    <dc:creator>
     <cc:Agent>
      <dc:title>Matplotlib v3.10.8, https://matplotlib.org/</dc:title>
     </cc:Agent>
    </dc:creator>
   </cc:Work>
  </rdf:RDF>
 </metadata>
 <defs>
  <style type="text/css">*{stroke-linejoin: round; stroke-linecap: butt}</style>
 </defs>
 <g id="figure_1">
  <g id="patch_1">
   <path d="M 0 258.336 
L 326.88 258.336 
L 326.88 0 
L 0 0 
z
" style="fill: #ffffff"/>
  </g>
  <g id="axes_1">
   <g id="patch_2">
    <path d="M 23.76144 242.59824 
L 303.11856 242.59824 
Q 310.93056 242.59824 310.93056 234.97524 
L 310.93056 23.36076 
Q 310.93056 15.73776 303.11856 15.73776 
L 23.76144 15.73776 
Q 15.94944 15.73776 15.94944 23.36076 
L 15.94944 234.97524 
Q 15.94944 242.59824 23.76144 242.59824 
z
" clip-path="url(#p2116e066e8)" style="fill: #eaf2ff; stroke: #33415c; stroke-width: 1.3; stroke-linejoin: miter"/>
   </g>
   <g id="patch_3">
    <path d="M 45.63504 230.40144 
L 281.24496 230.40144 
Q 289.05696 230.40144 289.05696 222.77844 
L 289.05696 47.75436 
Q 289.05696 40.13136 281.24496 40.13136 
L 45.63504 40.13136 
Q 37.82304 40.13136 37.82304 47.75436 
L 37.82304 222.77844 
Q 37.82304 230.40144 45.63504 230.40144 
z
" clip-path="url(#p2116e066e8)" style="fill: #d7e6ff; stroke: #33415c; stroke-width: 1.3; stroke-linejoin: miter"/>
   </g>
   <g id="patch_4">
    <path d="M 67.50864 218.20464 
L 259.37136 218.20464 
Q 267.18336 218.20464 267.18336 210.58164 
L 267.18336 72.14796 
Q 267.18336 64.52496 259.37136 64.52496 
L 67.50864 64.52496 
Q 59.69664 64.52496 59.69664 72.14796 
L 59.69664 210.58164 
Q 59.69664 218.20464 67.50864 218.20464 
z
" clip-path="url(#p2116e066e8)" style="fill: #bcd6ff; stroke: #33415c; stroke-width: 1.3; stroke-linejoin: miter"/>
   </g>
   <g id="patch_5">
    <path d="M 89.38224 206.00784 
L 237.49776 206.00784 
Q 245.30976 206.00784 245.30976 198.38484 
L 245.30976 96.54156 
Q 245.30976 88.91856 237.49776 88.91856 
L 89.38224 88.91856 
Q 81.57024 88.91856 81.57024 96.54156 
L 81.57024 198.38484 
Q 81.57024 206.00784 89.38224 206.00784 
z
" clip-path="url(#p2116e066e8)" style="fill: #9ec1f0; stroke: #33415c; stroke-width: 1.3; stroke-linejoin: miter"/>
   </g>
   <g id="patch_6">
    <path d="M 111.25584 193.81104 
L 215.62416 193.81104 
Q 223.43616 193.81104 223.43616 186.18804 
L 223.43616 120.93516 
Q 223.43616 113.31216 215.62416 113.31216 
L 111.25584 113.31216 
Q 103.44384 113.31216 103.44384 120.93516 
L 103.44384 186.18804 
Q 103.44384 193.81104 111.25584 193.81104 
z
" clip-path="url(#p2116e066e8)" style="fill: #7aa7e6; stroke: #33415c; stroke-width: 1.3; stroke-linejoin: miter"/>
   </g>
   <g id="text_1">
    <!-- $\mathbb{C}$  $2+3i$ -->
    <g transform="translate(138.61 30.069) scale(0.13 -0.13)">
     <defs>
      <path id="STIXGeneral-Italic-2102" d="M 4493 3392 
L 4333 3258 
Q 4275 3315 4147 3449 
Q 4019 3584 3971 3629 
Q 3923 3674 3820 3763 
Q 3718 3853 3644 3881 
Q 3571 3910 3452 3955 
Q 3334 4000 3203 4013 
Q 3072 4026 2906 4026 
Q 2150 4026 1715 3693 
L 870 486 
Q 1318 122 1901 122 
Q 2176 122 2400 163 
Q 2624 205 2768 249 
Q 2912 294 3120 435 
Q 3328 576 3421 653 
Q 3514 730 3789 960 
L 3923 794 
Q 3162 -115 1862 -115 
Q 1107 -115 665 297 
Q 224 710 224 1459 
Q 224 2630 973 3446 
Q 1722 4262 2880 4262 
Q 3942 4262 4493 3392 
z
M 678 659 
L 1466 3597 
Q 992 3226 726 2685 
Q 461 2144 461 1549 
Q 461 941 678 659 
z
" transform="scale(0.015625)"/>
      <path id="DejaVuSans-20" transform="scale(0.015625)"/>
      <path id="Cmr10-32" d="M 319 0 
L 319 172 
Q 319 188 331 206 
L 1325 1306 
Q 1550 1550 1690 1715 
Q 1831 1881 1968 2097 
Q 2106 2313 2186 2536 
Q 2266 2759 2266 3009 
Q 2266 3272 2169 3511 
Q 2072 3750 1880 3894 
Q 1688 4038 1416 4038 
Q 1138 4038 916 3870 
Q 694 3703 603 3438 
Q 628 3444 672 3444 
Q 816 3444 917 3347 
Q 1019 3250 1019 3097 
Q 1019 2950 917 2848 
Q 816 2747 672 2747 
Q 522 2747 420 2851 
Q 319 2956 319 3097 
Q 319 3338 409 3548 
Q 500 3759 670 3923 
Q 841 4088 1055 4175 
Q 1269 4263 1509 4263 
Q 1875 4263 2190 4108 
Q 2506 3953 2690 3670 
Q 2875 3388 2875 3009 
Q 2875 2731 2753 2481 
Q 2631 2231 2440 2026 
Q 2250 1822 1953 1562 
Q 1656 1303 1563 1216 
L 838 519 
L 1453 519 
Q 1906 519 2211 526 
Q 2516 534 2534 550 
Q 2609 631 2688 1141 
L 2875 1141 
L 2694 0 
L 319 0 
z
" transform="scale(0.015625)"/>
      <path id="Cmr10-2b" d="M 481 1472 
Q 428 1472 393 1512 
Q 359 1553 359 1600 
Q 359 1647 393 1687 
Q 428 1728 481 1728 
L 2363 1728 
L 2363 3616 
Q 2363 3666 2400 3698 
Q 2438 3731 2491 3731 
Q 2538 3731 2578 3698 
Q 2619 3666 2619 3616 
L 2619 1728 
L 4500 1728 
Q 4547 1728 4581 1687 
Q 4616 1647 4616 1600 
Q 4616 1553 4581 1512 
Q 4547 1472 4500 1472 
L 2619 1472 
L 2619 -416 
Q 2619 -466 2578 -498 
Q 2538 -531 2491 -531 
Q 2438 -531 2400 -498 
Q 2363 -466 2363 -416 
L 2363 1472 
L 481 1472 
z
" transform="scale(0.015625)"/>
      <path id="Cmr10-33" d="M 609 494 
Q 759 275 1012 169 
Q 1266 63 1556 63 
Q 1928 63 2084 380 
Q 2241 697 2241 1100 
Q 2241 1281 2208 1462 
Q 2175 1644 2097 1800 
Q 2019 1956 1883 2050 
Q 1747 2144 1550 2144 
L 1125 2144 
Q 1069 2144 1069 2203 
L 1069 2259 
Q 1069 2309 1125 2309 
L 1478 2338 
Q 1703 2338 1851 2506 
Q 2000 2675 2069 2917 
Q 2138 3159 2138 3378 
Q 2138 3684 1994 3881 
Q 1850 4078 1556 4078 
Q 1313 4078 1091 3986 
Q 869 3894 738 3706 
Q 750 3709 759 3711 
Q 769 3713 781 3713 
Q 925 3713 1022 3613 
Q 1119 3513 1119 3372 
Q 1119 3234 1022 3134 
Q 925 3034 781 3034 
Q 641 3034 541 3134 
Q 441 3234 441 3372 
Q 441 3647 606 3850 
Q 772 4053 1033 4158 
Q 1294 4263 1556 4263 
Q 1750 4263 1965 4205 
Q 2181 4147 2356 4039 
Q 2531 3931 2642 3762 
Q 2753 3594 2753 3378 
Q 2753 3109 2633 2881 
Q 2513 2653 2303 2487 
Q 2094 2322 1844 2241 
Q 2122 2188 2372 2031 
Q 2622 1875 2773 1631 
Q 2925 1388 2925 1106 
Q 2925 753 2731 467 
Q 2538 181 2222 20 
Q 1906 -141 1556 -141 
Q 1256 -141 954 -26 
Q 653 88 461 316 
Q 269 544 269 863 
Q 269 1022 375 1128 
Q 481 1234 641 1234 
Q 744 1234 830 1186 
Q 916 1138 964 1050 
Q 1013 963 1013 863 
Q 1013 706 903 600 
Q 794 494 641 494 
L 609 494 
z
" transform="scale(0.015625)"/>
      <path id="Cmmi10-69" d="M 500 459 
Q 500 578 550 709 
L 1069 2088 
Q 1153 2322 1153 2472 
Q 1153 2663 1013 2663 
Q 759 2663 595 2402 
Q 431 2141 353 1819 
Q 341 1778 300 1778 
L 225 1778 
Q 172 1778 172 1838 
L 172 1856 
Q 275 2238 487 2533 
Q 700 2828 1025 2828 
Q 1253 2828 1411 2678 
Q 1569 2528 1569 2297 
Q 1569 2178 1516 2047 
L 997 672 
Q 909 459 909 288 
Q 909 97 1056 97 
Q 1306 97 1473 364 
Q 1641 631 1709 941 
Q 1722 978 1759 978 
L 1838 978 
Q 1863 978 1878 961 
Q 1894 944 1894 922 
Q 1894 916 1888 903 
Q 1800 541 1583 234 
Q 1366 -72 1044 -72 
Q 819 -72 659 83 
Q 500 238 500 459 
z
M 1222 3878 
Q 1222 4013 1334 4122 
Q 1447 4231 1581 4231 
Q 1691 4231 1761 4164 
Q 1831 4097 1831 3994 
Q 1831 3850 1717 3742 
Q 1603 3634 1466 3634 
Q 1363 3634 1292 3704 
Q 1222 3775 1222 3878 
z
" transform="scale(0.015625)"/>
     </defs>
     <use xlink:href="#STIXGeneral-Italic-2102" transform="translate(0 0.390625)"/>
     <use xlink:href="#DejaVuSans-20" transform="translate(70.199982 0.390625)"/>
     <use xlink:href="#DejaVuSans-20" transform="translate(101.987091 0.390625)"/>
     <use xlink:href="#Cmr10-32" transform="translate(133.7742 0.390625)"/>
     <use xlink:href="#Cmr10-2b" transform="translate(201.332794 0.390625)"/>
     <use xlink:href="#Cmr10-33" transform="translate(296.576935 0.390625)"/>
     <use xlink:href="#Cmmi10-69" transform="translate(346.576935 0.390625)"/>
    </g>
   </g>
   <g id="text_2">
    <!-- $\mathbb{R}$  $\sqrt{2},\,\pi$ -->
    <g transform="translate(137.05 54.4626) scale(0.13 -0.13)">
     <defs>
      <path id="STIXGeneral-Italic-211d" d="M 1229 4179 
L 3360 4179 
Q 3827 4179 4108 3894 
Q 4390 3610 4390 3142 
Q 4390 2554 4060 2186 
Q 3731 1818 3149 1715 
L 4026 0 
L 2925 0 
L 2125 1690 
L 1549 1690 
L 1094 0 
L 109 0 
L 1229 4179 
z
M 3866 3821 
L 3392 2022 
Q 3770 2144 3962 2438 
Q 4154 2733 4154 3136 
Q 4154 3584 3866 3821 
z
M 3142 1978 
L 3648 3872 
Q 3450 3942 3296 3942 
L 2150 3942 
L 1613 1926 
L 2630 1926 
Q 2957 1926 3142 1978 
z
M 3629 237 
L 2899 1696 
Q 2829 1683 2682 1683 
Q 2630 1683 2531 1686 
Q 2432 1690 2387 1690 
L 3072 237 
L 3629 237 
z
M 1907 3942 
L 1408 3942 
L 416 237 
L 915 237 
L 1907 3942 
z
" transform="scale(0.015625)"/>
      <path id="Cmex10-70" d="M 2713 -7425 
L 1269 -4063 
L 819 -4409 
L 703 -4294 
L 1619 -3584 
L 2969 -6725 
L 6291 197 
Q 6322 256 6400 256 
Q 6453 256 6490 218 
Q 6528 181 6528 128 
Q 6528 97 6522 84 
L 2950 -7366 
Q 2925 -7425 2853 -7425 
L 2713 -7425 
z
" transform="scale(0.015625)"/>
      <path id="Cmmi10-3b" d="M 634 -1153 
Q 634 -1125 659 -1100 
Q 891 -878 1019 -587 
Q 1147 -297 1147 25 
L 1147 103 
Q 1044 0 891 0 
Q 744 0 641 103 
Q 538 206 538 353 
Q 538 503 641 603 
Q 744 703 891 703 
Q 1119 703 1216 492 
Q 1313 281 1313 25 
Q 1313 -331 1170 -651 
Q 1028 -972 769 -1228 
Q 744 -1241 728 -1241 
Q 697 -1241 665 -1212 
Q 634 -1184 634 -1153 
z
" transform="scale(0.015625)"/>
      <path id="Cmmi10-bc" d="M 647 109 
Q 647 144 672 213 
Q 850 584 1004 942 
Q 1159 1300 1282 1639 
Q 1406 1978 1509 2363 
L 1100 2363 
Q 866 2363 662 2216 
Q 459 2069 325 1844 
Q 313 1819 288 1819 
L 213 1819 
Q 153 1819 153 1881 
Q 153 1894 166 1919 
Q 375 2275 614 2517 
Q 853 2759 1153 2759 
L 3475 2759 
Q 3541 2759 3587 2715 
Q 3634 2672 3634 2597 
Q 3634 2503 3567 2433 
Q 3500 2363 3406 2363 
L 2591 2363 
Q 2488 1859 2478 1381 
Q 2478 766 2694 269 
Q 2713 231 2713 191 
Q 2713 122 2672 62 
Q 2631 3 2567 -34 
Q 2503 -72 2431 -72 
Q 2263 -72 2200 203 
Q 2138 478 2138 738 
Q 2138 1103 2200 1442 
Q 2263 1781 2400 2363 
L 1703 2363 
Q 1197 313 1094 103 
Q 1003 -72 844 -72 
Q 766 -72 706 -20 
Q 647 31 647 109 
z
" transform="scale(0.015625)"/>
     </defs>
     <use xlink:href="#STIXGeneral-Italic-211d" transform="translate(0 0.140625)"/>
     <use xlink:href="#DejaVuSans-20" transform="translate(68.699982 0.140625)"/>
     <use xlink:href="#DejaVuSans-20" transform="translate(100.487091 0.140625)"/>
     <use xlink:href="#Cmex10-70" transform="translate(132.2742 94.734375) scale(0.815389)"/>
     <use xlink:href="#Cmr10-32" transform="translate(226.30545 0.140625)"/>
     <use xlink:href="#Cmmi10-3b" transform="translate(288.80545 0.140625)"/>
     <use xlink:href="#Cmmi10-bc" transform="translate(348.682045 0.140625)"/>
     <path d="M 213.80545 91.5 
L 213.80545 97.75 
L 288.80545 97.75 
L 288.80545 91.5 
L 213.80545 91.5 
z
"/>
    </g>
   </g>
   <g id="text_3">
    <!-- $\mathbb{Q}$  $\frac{2}{3}$ -->
    <g transform="translate(151.48 78.8562) scale(0.13 -0.13)">
     <defs>
      <path id="STIXGeneral-Italic-211a" d="M 3878 -122 
L 3930 -333 
Q 3693 -454 3405 -454 
Q 3194 -454 3002 -326 
Q 2810 -198 2701 0 
Q 2317 -115 1907 -115 
Q 1133 -115 678 291 
Q 224 698 224 1459 
Q 224 2221 553 2861 
Q 883 3501 1497 3881 
Q 2112 4262 2880 4262 
Q 3654 4262 4108 3856 
Q 4563 3450 4563 2688 
Q 4563 1830 4134 1120 
Q 3706 410 2944 90 
Q 3136 -218 3437 -218 
Q 3674 -218 3878 -122 
z
M 4102 3462 
L 3328 557 
Q 3808 902 4067 1446 
Q 4326 1990 4326 2598 
Q 4326 3066 4102 3462 
z
M 3053 384 
L 3923 3661 
Q 3744 3834 3459 3930 
Q 3174 4026 2906 4026 
Q 2195 4026 1741 3770 
L 864 480 
Q 1011 339 1210 262 
Q 1536 659 2048 659 
Q 2310 659 2473 572 
Q 2637 486 2810 269 
Q 2944 320 3053 384 
z
M 685 691 
L 1459 3597 
Q 979 3238 720 2697 
Q 461 2157 461 1549 
Q 461 1037 685 691 
z
M 2554 192 
Q 2349 422 2029 422 
Q 1683 422 1453 179 
Q 1677 122 1901 122 
Q 2214 122 2554 192 
z
" transform="scale(0.015625)"/>
     </defs>
     <use xlink:href="#STIXGeneral-Italic-211a" transform="translate(0 0.873437)"/>
     <use xlink:href="#DejaVuSans-20" transform="translate(72.299988 0.873437)"/>
     <use xlink:href="#DejaVuSans-20" transform="translate(104.087097 0.873437)"/>
     <use xlink:href="#Cmr10-32" transform="translate(135.874207 38.373438) scale(0.7)"/>
     <use xlink:href="#Cmr10-33" transform="translate(135.874207 -39.503125) scale(0.7)"/>
     <path d="M 135.874207 13.373437 
L 135.874207 19.623437 
L 170.874207 19.623437 
L 170.874207 13.373437 
L 135.874207 13.373437 
z
"/>
    </g>
   </g>
   <g id="text_4">
    <!-- $\mathbb{Z}$  $-5$ -->
    <g transform="translate(146.085 103.2498) scale(0.13 -0.13)">
     <defs>
      <path id="STIXGeneral-Italic-2124" d="M 4800 3942 
L 1382 256 
L 1382 237 
L 4128 237 
L 4070 0 
L 45 0 
L 45 237 
L 3494 3930 
L 3494 3942 
L 909 3942 
L 966 4179 
L 4800 4179 
L 4800 3942 
z
M 4467 3942 
L 3827 3942 
L 390 237 
L 1050 237 
L 4467 3942 
z
" transform="scale(0.015625)"/>
      <path id="Cmsy10-a1" d="M 653 1472 
Q 600 1472 565 1512 
Q 531 1553 531 1600 
Q 531 1647 565 1687 
Q 600 1728 653 1728 
L 4325 1728 
Q 4375 1728 4408 1687 
Q 4441 1647 4441 1600 
Q 4441 1553 4408 1512 
Q 4375 1472 4325 1472 
L 653 1472 
z
" transform="scale(0.015625)"/>
      <path id="Cmr10-35" d="M 556 728 
Q 622 541 758 387 
Q 894 234 1080 148 
Q 1266 63 1466 63 
Q 1928 63 2103 422 
Q 2278 781 2278 1294 
Q 2278 1516 2270 1667 
Q 2263 1819 2228 1959 
Q 2169 2184 2020 2353 
Q 1872 2522 1656 2522 
Q 1441 2522 1286 2456 
Q 1131 2391 1034 2303 
Q 938 2216 863 2119 
Q 788 2022 769 2016 
L 697 2016 
Q 681 2016 657 2036 
Q 634 2056 634 2075 
L 634 4213 
Q 634 4228 654 4245 
Q 675 4263 697 4263 
L 716 4263 
Q 1147 4056 1631 4056 
Q 2106 4056 2547 4263 
L 2566 4263 
Q 2588 4263 2606 4247 
Q 2625 4231 2625 4213 
L 2625 4153 
Q 2625 4122 2613 4122 
Q 2394 3831 2064 3668 
Q 1734 3506 1381 3506 
Q 1125 3506 856 3578 
L 856 2369 
Q 1069 2541 1236 2614 
Q 1403 2688 1663 2688 
Q 2016 2688 2295 2484 
Q 2575 2281 2725 1954 
Q 2875 1628 2875 1288 
Q 2875 903 2686 575 
Q 2497 247 2172 53 
Q 1847 -141 1466 -141 
Q 1150 -141 886 21 
Q 622 184 470 459 
Q 319 734 319 1044 
Q 319 1188 412 1278 
Q 506 1369 647 1369 
Q 788 1369 883 1276 
Q 978 1184 978 1044 
Q 978 906 883 811 
Q 788 716 647 716 
Q 625 716 597 720 
Q 569 725 556 728 
z
" transform="scale(0.015625)"/>
     </defs>
     <use xlink:href="#STIXGeneral-Italic-2124" transform="translate(0 0.390625)"/>
     <use xlink:href="#DejaVuSans-20" transform="translate(75.399994 0.390625)"/>
     <use xlink:href="#DejaVuSans-20" transform="translate(107.187103 0.390625)"/>
     <use xlink:href="#Cmsy10-a1" transform="translate(138.974213 0.390625)"/>
     <use xlink:href="#Cmr10-35" transform="translate(216.65976 0.390625)"/>
    </g>
   </g>
   <g id="text_5">
    <!-- $\mathbb{N}$  $0,1,2$ -->
    <g transform="translate(138.935 127.6434) scale(0.13 -0.13)">
     <defs>
      <path id="STIXGeneral-Italic-2115" d="M 4832 4179 
L 3718 0 
L 3008 0 
L 1331 3379 
L 1306 3379 
L 397 0 
L 160 0 
L 1280 4179 
L 1997 4179 
L 3674 806 
L 3686 806 
L 4595 4179 
L 4832 4179 
z
M 3590 448 
L 1856 3942 
L 1453 3942 
L 1408 3763 
L 3155 237 
L 3533 237 
L 3590 448 
z
" transform="scale(0.015625)"/>
      <path id="Cmr10-30" d="M 1600 -141 
Q 816 -141 533 504 
Q 250 1150 250 2041 
Q 250 2597 351 3087 
Q 453 3578 754 3920 
Q 1056 4263 1600 4263 
Q 2022 4263 2290 4056 
Q 2559 3850 2700 3523 
Q 2841 3197 2892 2823 
Q 2944 2450 2944 2041 
Q 2944 1491 2842 1011 
Q 2741 531 2444 195 
Q 2147 -141 1600 -141 
z
M 1600 25 
Q 1956 25 2131 390 
Q 2306 756 2347 1200 
Q 2388 1644 2388 2144 
Q 2388 2625 2347 3031 
Q 2306 3438 2132 3767 
Q 1959 4097 1600 4097 
Q 1238 4097 1063 3765 
Q 888 3434 847 3029 
Q 806 2625 806 2144 
Q 806 1788 823 1472 
Q 841 1156 916 820 
Q 991 484 1158 254 
Q 1325 25 1600 25 
z
" transform="scale(0.015625)"/>
      <path id="Cmr10-31" d="M 594 0 
L 594 225 
Q 1394 225 1394 428 
L 1394 3788 
Q 1063 3628 556 3628 
L 556 3853 
Q 1341 3853 1741 4263 
L 1831 4263 
Q 1853 4263 1873 4245 
Q 1894 4228 1894 4206 
L 1894 428 
Q 1894 225 2694 225 
L 2694 0 
L 594 0 
z
" transform="scale(0.015625)"/>
     </defs>
     <use xlink:href="#STIXGeneral-Italic-2115" transform="translate(0 0.390625)"/>
     <use xlink:href="#DejaVuSans-20" transform="translate(72.699982 0.390625)"/>
     <use xlink:href="#DejaVuSans-20" transform="translate(104.487091 0.390625)"/>
     <use xlink:href="#Cmr10-30" transform="translate(136.2742 0.390625)"/>
     <use xlink:href="#Cmmi10-3b" transform="translate(186.2742 0.390625)"/>
     <use xlink:href="#Cmr10-31" transform="translate(231.518341 0.390625)"/>
     <use xlink:href="#Cmmi10-3b" transform="translate(281.518341 0.390625)"/>
     <use xlink:href="#Cmr10-32" transform="translate(326.762482 0.390625)"/>
    </g>
   </g>
   <g id="text_6">
    <!-- Jede Erweiterung macht eine neue Gleichung lösbar -->
    <g style="fill: #888888" transform="translate(39.721797 37.692) scale(0.095 -0.095)">
     <defs>
      <path id="DejaVuSans-4a" d="M 628 4666 
L 1259 4666 
L 1259 325 
Q 1259 -519 939 -900 
Q 619 -1281 -91 -1281 
L -331 -1281 
L -331 -750 
L -134 -750 
Q 284 -750 456 -515 
Q 628 -281 628 325 
L 628 4666 
z
" transform="scale(0.015625)"/>
      <path id="DejaVuSans-65" d="M 3597 1894 
L 3597 1613 
L 953 1613 
Q 991 1019 1311 708 
Q 1631 397 2203 397 
Q 2534 397 2845 478 
Q 3156 559 3463 722 
L 3463 178 
Q 3153 47 2828 -22 
Q 2503 -91 2169 -91 
Q 1331 -91 842 396 
Q 353 884 353 1716 
Q 353 2575 817 3079 
Q 1281 3584 2069 3584 
Q 2775 3584 3186 3129 
Q 3597 2675 3597 1894 
z
M 3022 2063 
Q 3016 2534 2758 2815 
Q 2500 3097 2075 3097 
Q 1594 3097 1305 2825 
Q 1016 2553 972 2059 
L 3022 2063 
z
" transform="scale(0.015625)"/>
      <path id="DejaVuSans-64" d="M 2906 2969 
L 2906 4863 
L 3481 4863 
L 3481 0 
L 2906 0 
L 2906 525 
Q 2725 213 2448 61 
Q 2172 -91 1784 -91 
Q 1150 -91 751 415 
Q 353 922 353 1747 
Q 353 2572 751 3078 
Q 1150 3584 1784 3584 
Q 2172 3584 2448 3432 
Q 2725 3281 2906 2969 
z
M 947 1747 
Q 947 1113 1208 752 
Q 1469 391 1925 391 
Q 2381 391 2643 752 
Q 2906 1113 2906 1747 
Q 2906 2381 2643 2742 
Q 2381 3103 1925 3103 
Q 1469 3103 1208 2742 
Q 947 2381 947 1747 
z
" transform="scale(0.015625)"/>
      <path id="DejaVuSans-45" d="M 628 4666 
L 3578 4666 
L 3578 4134 
L 1259 4134 
L 1259 2753 
L 3481 2753 
L 3481 2222 
L 1259 2222 
L 1259 531 
L 3634 531 
L 3634 0 
L 628 0 
L 628 4666 
z
" transform="scale(0.015625)"/>
      <path id="DejaVuSans-72" d="M 2631 2963 
Q 2534 3019 2420 3045 
Q 2306 3072 2169 3072 
Q 1681 3072 1420 2755 
Q 1159 2438 1159 1844 
L 1159 0 
L 581 0 
L 581 3500 
L 1159 3500 
L 1159 2956 
Q 1341 3275 1631 3429 
Q 1922 3584 2338 3584 
Q 2397 3584 2469 3576 
Q 2541 3569 2628 3553 
L 2631 2963 
z
" transform="scale(0.015625)"/>
      <path id="DejaVuSans-77" d="M 269 3500 
L 844 3500 
L 1563 769 
L 2278 3500 
L 2956 3500 
L 3675 769 
L 4391 3500 
L 4966 3500 
L 4050 0 
L 3372 0 
L 2619 2869 
L 1863 0 
L 1184 0 
L 269 3500 
z
" transform="scale(0.015625)"/>
      <path id="DejaVuSans-69" d="M 603 3500 
L 1178 3500 
L 1178 0 
L 603 0 
L 603 3500 
z
M 603 4863 
L 1178 4863 
L 1178 4134 
L 603 4134 
L 603 4863 
z
" transform="scale(0.015625)"/>
      <path id="DejaVuSans-74" d="M 1172 4494 
L 1172 3500 
L 2356 3500 
L 2356 3053 
L 1172 3053 
L 1172 1153 
Q 1172 725 1289 603 
Q 1406 481 1766 481 
L 2356 481 
L 2356 0 
L 1766 0 
Q 1100 0 847 248 
Q 594 497 594 1153 
L 594 3053 
L 172 3053 
L 172 3500 
L 594 3500 
L 594 4494 
L 1172 4494 
z
" transform="scale(0.015625)"/>
      <path id="DejaVuSans-75" d="M 544 1381 
L 544 3500 
L 1119 3500 
L 1119 1403 
Q 1119 906 1312 657 
Q 1506 409 1894 409 
Q 2359 409 2629 706 
Q 2900 1003 2900 1516 
L 2900 3500 
L 3475 3500 
L 3475 0 
L 2900 0 
L 2900 538 
Q 2691 219 2414 64 
Q 2138 -91 1772 -91 
Q 1169 -91 856 284 
Q 544 659 544 1381 
z
M 1991 3584 
L 1991 3584 
z
" transform="scale(0.015625)"/>
      <path id="DejaVuSans-6e" d="M 3513 2113 
L 3513 0 
L 2938 0 
L 2938 2094 
Q 2938 2591 2744 2837 
Q 2550 3084 2163 3084 
Q 1697 3084 1428 2787 
Q 1159 2491 1159 1978 
L 1159 0 
L 581 0 
L 581 3500 
L 1159 3500 
L 1159 2956 
Q 1366 3272 1645 3428 
Q 1925 3584 2291 3584 
Q 2894 3584 3203 3211 
Q 3513 2838 3513 2113 
z
" transform="scale(0.015625)"/>
      <path id="DejaVuSans-67" d="M 2906 1791 
Q 2906 2416 2648 2759 
Q 2391 3103 1925 3103 
Q 1463 3103 1205 2759 
Q 947 2416 947 1791 
Q 947 1169 1205 825 
Q 1463 481 1925 481 
Q 2391 481 2648 825 
Q 2906 1169 2906 1791 
z
M 3481 434 
Q 3481 -459 3084 -895 
Q 2688 -1331 1869 -1331 
Q 1566 -1331 1297 -1286 
Q 1028 -1241 775 -1147 
L 775 -588 
Q 1028 -725 1275 -790 
Q 1522 -856 1778 -856 
Q 2344 -856 2625 -561 
Q 2906 -266 2906 331 
L 2906 616 
Q 2728 306 2450 153 
Q 2172 0 1784 0 
Q 1141 0 747 490 
Q 353 981 353 1791 
Q 353 2603 747 3093 
Q 1141 3584 1784 3584 
Q 2172 3584 2450 3431 
Q 2728 3278 2906 2969 
L 2906 3500 
L 3481 3500 
L 3481 434 
z
" transform="scale(0.015625)"/>
      <path id="DejaVuSans-6d" d="M 3328 2828 
Q 3544 3216 3844 3400 
Q 4144 3584 4550 3584 
Q 5097 3584 5394 3201 
Q 5691 2819 5691 2113 
L 5691 0 
L 5113 0 
L 5113 2094 
Q 5113 2597 4934 2840 
Q 4756 3084 4391 3084 
Q 3944 3084 3684 2787 
Q 3425 2491 3425 1978 
L 3425 0 
L 2847 0 
L 2847 2094 
Q 2847 2600 2669 2842 
Q 2491 3084 2119 3084 
Q 1678 3084 1418 2786 
Q 1159 2488 1159 1978 
L 1159 0 
L 581 0 
L 581 3500 
L 1159 3500 
L 1159 2956 
Q 1356 3278 1631 3431 
Q 1906 3584 2284 3584 
Q 2666 3584 2933 3390 
Q 3200 3197 3328 2828 
z
" transform="scale(0.015625)"/>
      <path id="DejaVuSans-61" d="M 2194 1759 
Q 1497 1759 1228 1600 
Q 959 1441 959 1056 
Q 959 750 1161 570 
Q 1363 391 1709 391 
Q 2188 391 2477 730 
Q 2766 1069 2766 1631 
L 2766 1759 
L 2194 1759 
z
M 3341 1997 
L 3341 0 
L 2766 0 
L 2766 531 
Q 2569 213 2275 61 
Q 1981 -91 1556 -91 
Q 1019 -91 701 211 
Q 384 513 384 1019 
Q 384 1609 779 1909 
Q 1175 2209 1959 2209 
L 2766 2209 
L 2766 2266 
Q 2766 2663 2505 2880 
Q 2244 3097 1772 3097 
Q 1472 3097 1187 3025 
Q 903 2953 641 2809 
L 641 3341 
Q 956 3463 1253 3523 
Q 1550 3584 1831 3584 
Q 2591 3584 2966 3190 
Q 3341 2797 3341 1997 
z
" transform="scale(0.015625)"/>
      <path id="DejaVuSans-63" d="M 3122 3366 
L 3122 2828 
Q 2878 2963 2633 3030 
Q 2388 3097 2138 3097 
Q 1578 3097 1268 2742 
Q 959 2388 959 1747 
Q 959 1106 1268 751 
Q 1578 397 2138 397 
Q 2388 397 2633 464 
Q 2878 531 3122 666 
L 3122 134 
Q 2881 22 2623 -34 
Q 2366 -91 2075 -91 
Q 1284 -91 818 406 
Q 353 903 353 1747 
Q 353 2603 823 3093 
Q 1294 3584 2113 3584 
Q 2378 3584 2631 3529 
Q 2884 3475 3122 3366 
z
" transform="scale(0.015625)"/>
      <path id="DejaVuSans-68" d="M 3513 2113 
L 3513 0 
L 2938 0 
L 2938 2094 
Q 2938 2591 2744 2837 
Q 2550 3084 2163 3084 
Q 1697 3084 1428 2787 
Q 1159 2491 1159 1978 
L 1159 0 
L 581 0 
L 581 4863 
L 1159 4863 
L 1159 2956 
Q 1366 3272 1645 3428 
Q 1925 3584 2291 3584 
Q 2894 3584 3203 3211 
Q 3513 2838 3513 2113 
z
" transform="scale(0.015625)"/>
      <path id="DejaVuSans-47" d="M 3809 666 
L 3809 1919 
L 2778 1919 
L 2778 2438 
L 4434 2438 
L 4434 434 
Q 4069 175 3628 42 
Q 3188 -91 2688 -91 
Q 1594 -91 976 548 
Q 359 1188 359 2328 
Q 359 3472 976 4111 
Q 1594 4750 2688 4750 
Q 3144 4750 3555 4637 
Q 3966 4525 4313 4306 
L 4313 3634 
Q 3963 3931 3569 4081 
Q 3175 4231 2741 4231 
Q 1884 4231 1454 3753 
Q 1025 3275 1025 2328 
Q 1025 1384 1454 906 
Q 1884 428 2741 428 
Q 3075 428 3337 486 
Q 3600 544 3809 666 
z
" transform="scale(0.015625)"/>
      <path id="DejaVuSans-6c" d="M 603 4863 
L 1178 4863 
L 1178 0 
L 603 0 
L 603 4863 
z
" transform="scale(0.015625)"/>
      <path id="DejaVuSans-f6" d="M 1959 3097 
Q 1497 3097 1228 2736 
Q 959 2375 959 1747 
Q 959 1119 1226 758 
Q 1494 397 1959 397 
Q 2419 397 2687 759 
Q 2956 1122 2956 1747 
Q 2956 2369 2687 2733 
Q 2419 3097 1959 3097 
z
M 1959 3584 
Q 2709 3584 3137 3096 
Q 3566 2609 3566 1747 
Q 3566 888 3137 398 
Q 2709 -91 1959 -91 
Q 1206 -91 779 398 
Q 353 888 353 1747 
Q 353 2609 779 3096 
Q 1206 3584 1959 3584 
z
M 2254 4850 
L 2888 4850 
L 2888 4219 
L 2254 4219 
L 2254 4850 
z
M 1032 4850 
L 1666 4850 
L 1666 4219 
L 1032 4219 
L 1032 4850 
z
" transform="scale(0.015625)"/>
      <path id="DejaVuSans-73" d="M 2834 3397 
L 2834 2853 
Q 2591 2978 2328 3040 
Q 2066 3103 1784 3103 
Q 1356 3103 1142 2972 
Q 928 2841 928 2578 
Q 928 2378 1081 2264 
Q 1234 2150 1697 2047 
L 1894 2003 
Q 2506 1872 2764 1633 
Q 3022 1394 3022 966 
Q 3022 478 2636 193 
Q 2250 -91 1575 -91 
Q 1294 -91 989 -36 
Q 684 19 347 128 
L 347 722 
Q 666 556 975 473 
Q 1284 391 1588 391 
Q 1994 391 2212 530 
Q 2431 669 2431 922 
Q 2431 1156 2273 1281 
Q 2116 1406 1581 1522 
L 1381 1569 
Q 847 1681 609 1914 
Q 372 2147 372 2553 
Q 372 3047 722 3315 
Q 1072 3584 1716 3584 
Q 2034 3584 2315 3537 
Q 2597 3491 2834 3397 
z
" transform="scale(0.015625)"/>
      <path id="DejaVuSans-62" d="M 3116 1747 
Q 3116 2381 2855 2742 
Q 2594 3103 2138 3103 
Q 1681 3103 1420 2742 
Q 1159 2381 1159 1747 
Q 1159 1113 1420 752 
Q 1681 391 2138 391 
Q 2594 391 2855 752 
Q 3116 1113 3116 1747 
z
M 1159 2969 
Q 1341 3281 1617 3432 
Q 1894 3584 2278 3584 
Q 2916 3584 3314 3078 
Q 3713 2572 3713 1747 
Q 3713 922 3314 415 
Q 2916 -91 2278 -91 
Q 1894 -91 1617 61 
Q 1341 213 1159 525 
L 1159 0 
L 581 0 
L 581 4863 
L 1159 4863 
L 1159 2969 
z
" transform="scale(0.015625)"/>
     </defs>
     <use xlink:href="#DejaVuSans-4a"/>
     <use xlink:href="#DejaVuSans-65" transform="translate(29.492188 0)"/>
     <use xlink:href="#DejaVuSans-64" transform="translate(91.015625 0)"/>
     <use xlink:href="#DejaVuSans-65" transform="translate(154.492188 0)"/>
     <use xlink:href="#DejaVuSans-20" transform="translate(216.015625 0)"/>
     <use xlink:href="#DejaVuSans-45" transform="translate(247.802734 0)"/>
     <use xlink:href="#DejaVuSans-72" transform="translate(310.986328 0)"/>
     <use xlink:href="#DejaVuSans-77" transform="translate(352.099609 0)"/>
     <use xlink:href="#DejaVuSans-65" transform="translate(433.886719 0)"/>
     <use xlink:href="#DejaVuSans-69" transform="translate(495.410156 0)"/>
     <use xlink:href="#DejaVuSans-74" transform="translate(523.193359 0)"/>
     <use xlink:href="#DejaVuSans-65" transform="translate(562.402344 0)"/>
     <use xlink:href="#DejaVuSans-72" transform="translate(623.925781 0)"/>
     <use xlink:href="#DejaVuSans-75" transform="translate(665.039062 0)"/>
     <use xlink:href="#DejaVuSans-6e" transform="translate(728.417969 0)"/>
     <use xlink:href="#DejaVuSans-67" transform="translate(791.796875 0)"/>
     <use xlink:href="#DejaVuSans-20" transform="translate(855.273438 0)"/>
     <use xlink:href="#DejaVuSans-6d" transform="translate(887.060547 0)"/>
     <use xlink:href="#DejaVuSans-61" transform="translate(984.472656 0)"/>
     <use xlink:href="#DejaVuSans-63" transform="translate(1045.751953 0)"/>
     <use xlink:href="#DejaVuSans-68" transform="translate(1100.732422 0)"/>
     <use xlink:href="#DejaVuSans-74" transform="translate(1164.111328 0)"/>
     <use xlink:href="#DejaVuSans-20" transform="translate(1203.320312 0)"/>
     <use xlink:href="#DejaVuSans-65" transform="translate(1235.107422 0)"/>
     <use xlink:href="#DejaVuSans-69" transform="translate(1296.630859 0)"/>
     <use xlink:href="#DejaVuSans-6e" transform="translate(1324.414062 0)"/>
     <use xlink:href="#DejaVuSans-65" transform="translate(1387.792969 0)"/>
     <use xlink:href="#DejaVuSans-20" transform="translate(1449.316406 0)"/>
     <use xlink:href="#DejaVuSans-6e" transform="translate(1481.103516 0)"/>
     <use xlink:href="#DejaVuSans-65" transform="translate(1544.482422 0)"/>
     <use xlink:href="#DejaVuSans-75" transform="translate(1606.005859 0)"/>
     <use xlink:href="#DejaVuSans-65" transform="translate(1669.384766 0)"/>
     <use xlink:href="#DejaVuSans-20" transform="translate(1730.908203 0)"/>
     <use xlink:href="#DejaVuSans-47" transform="translate(1762.695312 0)"/>
     <use xlink:href="#DejaVuSans-6c" transform="translate(1840.185547 0)"/>
     <use xlink:href="#DejaVuSans-65" transform="translate(1867.96875 0)"/>
     <use xlink:href="#DejaVuSans-69" transform="translate(1929.492188 0)"/>
     <use xlink:href="#DejaVuSans-63" transform="translate(1957.275391 0)"/>
     <use xlink:href="#DejaVuSans-68" transform="translate(2012.255859 0)"/>
     <use xlink:href="#DejaVuSans-75" transform="translate(2075.634766 0)"/>
     <use xlink:href="#DejaVuSans-6e" transform="translate(2139.013672 0)"/>
     <use xlink:href="#DejaVuSans-67" transform="translate(2202.392578 0)"/>
     <use xlink:href="#DejaVuSans-20" transform="translate(2265.869141 0)"/>
     <use xlink:href="#DejaVuSans-6c" transform="translate(2297.65625 0)"/>
     <use xlink:href="#DejaVuSans-f6" transform="translate(2325.439453 0)"/>
     <use xlink:href="#DejaVuSans-73" transform="translate(2386.621094 0)"/>
     <use xlink:href="#DejaVuSans-62" transform="translate(2438.720703 0)"/>
     <use xlink:href="#DejaVuSans-61" transform="translate(2502.197266 0)"/>
     <use xlink:href="#DejaVuSans-72" transform="translate(2563.476562 0)"/>
    </g>
   </g>
  </g>
 </g>
 <defs>
  <clipPath id="p2116e066e8">
   <rect x="7.2" y="7.2" width="312.48" height="243.936"/>
  </clipPath>
 </defs>
</svg>
